<svg data-name="Group 15952" xmlns="http://www.w3.org/2000/svg" width="156.8" height="146">
  <defs>
    <clipPath id="a">
      <path style="fill:none" d="M0 0h156.8v146H0z"/>
    </clipPath>
  </defs>
  <g style="clip-path:url(#a)">
    <path d="M48.2 31.8c24.4-24.4 63.8-24.5 88-.3s24.1 63.7-.3 88-63.8 24.6-88 .4-24-63.7.3-88" transform="translate(-7.3 -3.3)" style="fill:#6ba8fa"/>
    <path d="M156.4 41.4a13 13 0 0 1 2.4 7.6c-.3 3.2-1.8 6.1-2 9.3 0 5.4 4 9.9 5.3 15.1 1.4 5.9-4 12.5-6 15.8s-1.3-2.7-2.6-5-4 9.7-8.4 12.3c-2.4 1.4-5.1 2.4-6.8 4.5-2.5 3.2-1.8 7.7-1.4 11.8s-.2 8.9-3.8 10.7c-2 1-4.7.7-6.6 2-3.3 2.5-1.7 7.9-3 11.8-1.5 4.3-4.3 4.4-8.7 5.3s.5-9-1.5-12.4c-1-1.8-2.7-3.2-3.6-5.1-1.2-2.7-.8-6.3-3.1-8-1.7-1.3-4.1-1-6.3-1s-4.8-1-5-3.2c-.2-1.9 1.7-3.4 3.5-3.9s3.9-.2 5.7-.8c5.2-1.6 7.7-9 13.1-9.4 4.7-.3 8.6 5 13.2 4 2.6-.5 4.3-2.8 6.2-4.6 2.4-2.3 5.5-4 7.4-6.9s2.3-7.2-.5-9.1c-2-1.5-5-.9-7 .6s-3.4 3.7-4.8 5.7a3.7 3.7 0 0 1-1.7 1.5c-2 .6-3.5-2.2-3-4.2s1.9-3.9 2-6c0-3.7-3.8-6-7.3-7.3s-7.5-2.7-8.5-6.2c-.3-1.3-.2-2.7-.8-3.9-1.8-3.9-11.3-5.9-9-8.1s9.5-2.8 10.9-7.4c.5-1.7 1-3.8 2.7-4 2.7-.2 4.3 3.2 6.6 3.8 1 .3 5.5-1.2 4.6-2-3.5-3.5-14-5.3-11.8-6.8s12.8-5.5 14.4-3.3-1 .4-1.7 3 7.9 2.3 11.8 3.5a2.8 2.8 0 0 0 2 0c.7-.3 1-1 1.3-1.8 2-3.6 8.5-1.2 8.5-1.2a10.8 10.8 0 0 1 3.3 3.2" transform="translate(-23.2 -8.3)" style="fill:#e9f1ff"/>
    <path d="M126.8 18c1 1.9-2 1.9-2.2 4-2.7.2-3.8-4-6.4-4.4a3.9 3.9 0 0 0-3.7 2c-.8 1.3-1.2 2.8-1.8 4.1a10.1 10.1 0 0 1-8 5.4 2.8 2.8 0 0 1-2.2-.5c-1.6-1.4.7-4 .1-6-.6-2.4-4-2-6.3-2.9-.6-.2-5.4-1.5-5.5-2.2-.1-1.2 2-2 4.6-2.6 4.2-1 11.7-1 15.4-.7 4.8.5 12.9.1 16 3.8z" transform="translate(-22 -3.4)" style="fill:#e9f1ff"/>
    <path d="M36 106a66 66 0 0 1-1.2-21.8c.2-2 .9-4.2 2.7-4.6 2.2-.5 5 1.9 6.2 0a3 3 0 0 0-.1-2.8 19 19 0 0 0-4.5-6.3 23.6 23.6 0 0 1-3.5-3.3c-2-2.8-1-7.2 1.4-9.6s6 1.4 8.7-.4 2.4-5.6 2.7-8.8c.2-2.4 1.5-8.9 3.5-5.9s-1.4 15.6-6 21.8a3.8 3.8 0 0 0-1 2.5c.3 2.3 3.5 2 5.6 2.3 2.7.4 6.6-1.3 4.7 3.5-1 2.6-6.4 6.4-4.8 8s6.6 6 9 9.8 3.8 8.5 2.4 12.8-6 7.5-10.2 6c-2-.7-4.1-2.3-5.8-1-1.5 1-1.1 3.4-1 5.3s-.6 4.5-2.4 4.1a3 3 0 0 1-1.6-1A22 22 0 0 1 36 106" transform="translate(-8.4 -10.2)" style="fill:#e9f1ff"/>
    <path d="M172.6 65.9c0 5.7-7.2 19.8-10.6 19.8-3 0-10.5-14.1-10.5-19.8a10.6 10.6 0 0 1 21.1 0" transform="translate(-36.9 -13.5)" style="fill:#ffd834"/>
    <path d="M123 42.8a.6.6 0 0 1 0-1.1 11.5 11.5 0 0 1 2.9-.2.6.6 0 1 1 0 1.1 10.4 10.4 0 0 0-2.7.2.5.5 0 0 1-.1 0"/>
    <path d="M125.2 72.8c-3.6 0-11.1-15-11.1-20.5a10.8 10.8 0 0 1 7-10 .6.6 0 1 1 .4 1 9.7 9.7 0 0 0-6.3 9c0 5.8 7.5 19.3 10 19.3.2 0 .8-.1 1.8-1.1a.6.6 0 1 1 .8.7 4 4 0 0 1-2.6 1.6"/>
    <path d="M119.4 50.3v5.4a1.2 1.2 0 0 0 .6 1l4.7 2.7a1.2 1.2 0 0 0 1.2 0l4.7-2.7a1.2 1.2 0 0 0 .6-1v-5.4a1.2 1.2 0 0 0-.6-1.1l-4.7-2.7a1.2 1.2 0 0 0-1.2 0l-4.7 2.7a1.2 1.2 0 0 0-.6 1"/>
    <path d="M46.5 106c0 5.8-7.2 20-10.5 20-3 0-10.6-14.2-10.6-20a10.6 10.6 0 0 1 21.1 0" transform="translate(-6.2 -23.3)" style="fill:#ffd834"/>
    <path d="M27.7 73.2a.6.6 0 0 1-.1-1 11.5 11.5 0 0 1 2.9-.3.6.6 0 0 1 .5.6.6.6 0 0 1-.6.5 10.5 10.5 0 0 0-2.6.2.6.6 0 0 1-.1 0"/>
    <path d="M29.8 103.2c-3.6 0-11.1-14.9-11.1-20.4a10.8 10.8 0 0 1 7-10.2.6.6 0 1 1 .4 1.1 9.7 9.7 0 0 0-6.3 9c0 5.8 7.6 19.3 10 19.3.2 0 .8 0 1.8-1.1a.6.6 0 1 1 .8.8 4 4 0 0 1-2.6 1.5"/>
    <path d="M24 80.7V86a1.2 1.2 0 0 0 .6 1l4.7 2.8a1.2 1.2 0 0 0 1.2 0l4.7-2.7a1.2 1.2 0 0 0 .6-1.1v-5.4a1.2 1.2 0 0 0-.6-1.1l-4.7-2.7a1.2 1.2 0 0 0-1.2 0l-4.7 2.7a1.2 1.2 0 0 0-.6 1"/>
    <path d="M135 119.1c0 9.1-11.3 31.8-16.5 31.8-4.6 0-16.5-22.7-16.5-31.8a16.5 16.5 0 0 1 33 0" transform="translate(-24.8 -25)" style="fill:#ffd834"/>
    <path d="M100.1 79.5a.6.6 0 0 1-.2 0 15.9 15.9 0 0 0-2.3-.8.6.6 0 0 1 .3-1.1 17 17 0 0 1 2.4.8.6.6 0 0 1-.2 1.1"/>
    <path d="M90.4 78.5a.6.6 0 0 1-.1-1 17.3 17.3 0 0 1 4.5-.4.6.6 0 0 1 .5.6.6.6 0 0 1-.6.5 16.3 16.3 0 0 0-4.2.3.6.6 0 0 1-.1 0"/>
    <path d="M93.7 126.5c-5.4 0-17-23.8-17-32.3a17 17 0 0 1 10.7-16 .6.6 0 1 1 .5 1.1 15.9 15.9 0 0 0-10.2 14.9c0 4 2.6 11.5 6.5 19 3.7 7.1 7.6 12.1 9.5 12.1.5 0 1.5-.3 3-2a.6.6 0 0 1 .9.8c-1.5 1.6-2.8 2.4-3.9 2.4"/>
    <path d="M99 122.2a.6.6 0 0 1-.5-1 42.1 42.1 0 0 0 1.6-2.2.6.6 0 1 1 1 .6 42.6 42.6 0 0 1-1.7 2.4.6.6 0 0 1-.4.2"/>
    <path d="M113.7 38 103 34.7a.9.9 0 0 0-.6 0L91.2 40a.9.9 0 0 0 0 1.6l8.6 4.7z" transform="translate(-22 -8.4)" style="fill:#ffd834"/>
    <path d="M139.4 14.3c-2.3.6-11.1-2.2-15.8-2.5-3-.2-48.7 19.4-80.4 33.2L26 40.6a6.3 6.3 0 0 1-3-1.9l-9.2-10a2.5 2.5 0 0 0-2.9-.6C7.8 29.6.8 32.3.9 33l9.7 25.7c-2.8.9-2.7 2.3-2.3 3.1a1.5 1.5 0 0 0 1.3.9c4.6 0 29.2.5 39.7 1.5 3.8.3 15.8-3.7 30.3-9.5a6.9 6.9 0 0 0-.2 5c1.4 3.7 6.6 5.8 10.2 4.3L98 60l-.2.5c2.6-1 3.8-5.4 2.4-8.9a8 8 0 0 0-3.5-4c25.8-11.3 52.1-24.7 52.5-28 .7-6.3-7.6-5.7-9.9-5.2" transform="translate(-.2 -2.9)" style="fill:#fff"/>
    <path d="m85.8 61.7 25.2-11-15.3 33.8a1.9 1.9 0 0 1-1 1L79 90.6a1.9 1.9 0 0 1-2.3-2.3z" transform="translate(-18.7 -12.4)" style="fill:#ffd834"/>
    <path d="M54.1 44.5h.1a1.7 1.7 0 0 1 2 1.2l.3 1a1.7 1.7 0 0 1-1.3 2v.1a1.7 1.7 0 0 1-2-1.2l-.3-1.1a1.7 1.7 0 0 1 1.2-2"/>
    <path d="M60.2 42.5h.2a1.7 1.7 0 0 1 2 1.2l.2 1a1.7 1.7 0 0 1-1.2 2.1h-.1a1.7 1.7 0 0 1-2-1.2l-.3-1a1.7 1.7 0 0 1 1.3-2"/>
    <path d="M66.2 39.6a1.7 1.7 0 0 1 2 1.2l.3 1a1.7 1.7 0 0 1-1.2 2l-.1.1a1.7 1.7 0 0 1-2-1.2l-.3-1.1a1.7 1.7 0 0 1 1.3-2"/>
    <path d="M71.7 37.2h.1a1.7 1.7 0 0 1 2 1.3l.3 1a1.7 1.7 0 0 1-1.3 2 1.7 1.7 0 0 1-2-1.2l-.3-1a1.7 1.7 0 0 1 1.2-2"/>
    <path d="M78.2 34.7h.1a1.7 1.7 0 0 1 2 1.2l.3 1a1.7 1.7 0 0 1-1.3 2v.1a1.7 1.7 0 0 1-2-1.2l-.3-1.1a1.7 1.7 0 0 1 1.2-2"/>
    <path d="M84.2 32.2h.1a1.7 1.7 0 0 1 2 1.2l.3 1.1a1.7 1.7 0 0 1-1.2 2h-.1a1.7 1.7 0 0 1-2-1.2l-.3-1a1.7 1.7 0 0 1 1.2-2"/>
    <path d="M90.1 29.3h.1a1.7 1.7 0 0 1 2 1.2l.3 1a1.7 1.7 0 0 1-1.2 2l-.1.1a1.7 1.7 0 0 1-2-1.2l-.3-1a1.7 1.7 0 0 1 1.2-2.1"/>
    <path d="M95.8 27.4h.1a1.7 1.7 0 0 1 2 1.2l.3 1.1a1.7 1.7 0 0 1-1.3 2 1.7 1.7 0 0 1-2-1.2l-.3-1a1.7 1.7 0 0 1 1.2-2"/>
    <path d="M101.8 25h.1a1.7 1.7 0 0 1 2 1.2l.3 1a1.7 1.7 0 0 1-1.2 2l-.2.1a1.7 1.7 0 0 1-2-1.2l-.2-1.1a1.7 1.7 0 0 1 1.2-2"/>
    <path d="M107.7 22h.1a1.7 1.7 0 0 1 2 1.3l.3 1a1.7 1.7 0 0 1-1.2 2h-.1a1.7 1.7 0 0 1-2-1.2l-.3-1a1.7 1.7 0 0 1 1.2-2"/>
    <path d="M113.4 20.2a1.7 1.7 0 0 1 2.1 1.2l.3 1a1.7 1.7 0 0 1-1.3 2v.1a1.7 1.7 0 0 1-2.1-1.2l-.3-1a1.7 1.7 0 0 1 1.3-2.1"/>
    <path d="m130.8 10.1-9.2 5.7a2.2 2.2 0 0 0-.6 2.5 4.9 4.9 0 0 0 1 2c.8.7 13-6.2 16.8-8.4.8-.4-2-.7-2.9-.8z"/>
    <path d="M60.5 78.8a.6.6 0 0 1-.2-1l15.5-5.1a1.3 1.3 0 0 0 .7-.7L92 38.2a.6.6 0 1 1 1 .4L77.6 72.5a2.4 2.4 0 0 1-1.5 1.3l-15.5 5.1a.6.6 0 0 1-.1 0"/>
    <path d="M49.5 62H49c-4-.4-10.3-.7-18.9-1a.6.6 0 0 1-.5-.6.6.6 0 0 1 .6-.6c8.6.3 15 .7 18.9 1 1.3.2 4.6-.3 12.7-3A.6.6 0 1 1 62 59c-6 2-10.3 3-12.6 3"/>
    <path d="M97.9 44.6a.6.6 0 0 1-.2-1c27.7-12.3 50.5-24.4 50.8-27.1.3-2.6-1.2-4.2-4.4-4.7a.6.6 0 1 1 .2-1c3.8.5 5.7 2.6 5.3 5.8 0 .7-.3 2.7-16.5 11.3-9.3 4.9-22 11-35 16.7a.6.6 0 0 1-.2 0"/>
    <path d="M138.4 12A44.7 44.7 0 0 1 131 11l-1.8-.4a.6.6 0 0 1 .2-1.1l1.8.3c3.3.7 6.7 1.5 7.8 1.2a15.1 15.1 0 0 1 3.6-.3.6.6 0 0 1 .6.6.6.6 0 0 1-.6.5 14.1 14.1 0 0 0-3.3.3 4 4 0 0 1-.9 0"/>
    <path d="M50.4 39.4a.6.6 0 0 1-.2-1c24.2-10.6 55.6-24 67.9-28.5 4-1.4 4.9-1.6 5.3-1.5a.6.6 0 0 1 0 1.1c-.2 0-1 0-5 1.5-12.1 4.5-43.6 17.9-67.8 28.4a.6.6 0 0 1-.2 0"/>
    <path d="M91.3 53.1a.6.6 0 0 1-.6-.3 5.4 5.4 0 0 1-.3-1 4.6 4.6 0 0 1 3.1-5.6 4.2 4.2 0 0 1 3.9 1.2.6.6 0 0 1-.8.8 3 3 0 0 0-2.8-1 3.4 3.4 0 0 0-2.3 4.3 4.1 4.1 0 0 0 .3.8.6.6 0 0 1-.5.8"/>
    <path d="M94.8 55.6a4.2 4.2 0 0 1-2.6-.9.6.6 0 0 1 .7-.9 2.9 2.9 0 0 0 4.4-.9 4 4 0 0 0 .4-2.7.6.6 0 1 1 1-.3 5 5 0 0 1-.4 3.6 4 4 0 0 1-2.7 2 3.9 3.9 0 0 1-.8.1"/>
    <path d="M41.5 42.4a.6.6 0 0 1-.1 0c-1.7-.5-16.8-4.5-18.3-5.3-2-1-8.7-9.7-8.8-9.8-1.6-2-2.3-1.8-4-1h-.4l-6.7 3-2 1A.6.6 0 0 1 .8 29l2-.8 6.6-3 .4-.1c1.8-.8 3.3-1.3 5.4 1.4 2.8 3.6 7.2 8.8 8.4 9.5 1 .6 11.4 3.4 18 5.2a.6.6 0 0 1 0 1"/>
    <path d="M19.2 75.1V81a3 3 0 0 0 1.2 2.4 3.1 3.1 0 0 0 2.7.6l5.6-1.4a3.1 3.1 0 0 0 2.1-1.5l7.3-14z" transform="translate(-4.7 -16.3)" style="fill:#ffd834"/>
    <path d="M10.7 61.8a10.8 10.8 0 0 1-2.4-.1c-1-.4-1.9-.8-2.3-3.3-.3-2 1.5-3.4 2.4-4L0 32.3a.6.6 0 0 1 1.1-.4l8.6 22.8a.6.6 0 0 1-.3.7s-2.5 1.2-2.3 3c.4 1.9 1 2 1.5 2.3a26.5 26.5 0 0 0 4.6 0 .6.6 0 0 1 0 1.2h-2.5"/>
    <path d="m65.4 54.8 23.3-8.9-6.6 15-20.7 5z"/>
    <path d="M86.9 62.1a3.6 3.6 0 0 1-2.3-.5.6.6 0 0 1 .7-1c0 .1 3.3 2 13.5-4.8a4.8 4.8 0 0 0 2-5.1.6.6 0 0 1 .4-.7.6.6 0 0 1 .7.4 6 6 0 0 1-2.4 6.4C92.9 61.2 89 62 86.9 62"/>
    <path d="M84.8 144.6A72.9 72.9 0 0 1 12 72a.6.6 0 1 1 1.2 0 71.7 71.7 0 0 0 89.3 69.4l2-.6a.6.6 0 0 1 .4 1.1l-2.2.6a73 73 0 0 1-17.9 2.2"/>
    <path d="M107.3 141a.6.6 0 0 1-.1-1 72.7 72.7 0 0 0 3.3-1.2.6.6 0 1 1 .4 1 73.8 73.8 0 0 1-3.4 1.2.6.6 0 0 1-.2 0"/>
    <path d="M113.3 138.8a.6.6 0 0 1-.2-1l1.9-1a.6.6 0 1 1 .4 1.1l-1.9.9a.6.6 0 0 1-.2 0"/>
    <path d="M61.5 4a.6.6 0 0 1-.1-1l.4-.2c.1 0 .3 0 .5-.2a.6.6 0 0 1 .3 1.1l-.4.2-.5.1a.6.6 0 0 1-.2 0"/>
    <path d="M45.1 12.1a.6.6 0 0 1-.3-1 72.9 72.9 0 0 1 10.6-5.8l1.9-.8a.6.6 0 1 1 .4 1l-1.9.8A71.7 71.7 0 0 0 45.4 12a.6.6 0 0 1-.3.1"/>
    <path d="M24 33.5a.6.6 0 0 1-.3 0 .6.6 0 0 1-.2-.8 73 73 0 0 1 15.4-17.3.6.6 0 0 1 .7.8 71.9 71.9 0 0 0-15.2 17 .6.6 0 0 1-.4.3"/>
    <path d="M152.5 96.4a.6.6 0 0 1-.2 0 .6.6 0 0 1-.4-.7 72.8 72.8 0 0 0 2-7.5 71.3 71.3 0 0 0-14.2-60.5.6.6 0 0 1 .8-.8 72.5 72.5 0 0 1 14.6 61.6A73.5 73.5 0 0 1 153 96a.6.6 0 0 1-.5.4"/>
    <path d="M108.9 5.6a.6.6 0 0 1-.2 0 72.3 72.3 0 0 0-27-4.4h-2.2a.6.6 0 0 1-.6-.5.6.6 0 0 1 .6-.6h2.2a73 73 0 0 1 18 1.6 73.8 73.8 0 0 1 9.4 2.8.6.6 0 0 1-.2 1"/>
    <path d="M169.4 173.6v8.1a1.2 1.2 0 0 0 .6 1l7 4.1a1.2 1.2 0 0 0 1.3 0l7-4a1.2 1.2 0 0 0 .6-1v-8.2a1.2 1.2 0 0 0-.6-1l-7-4.1a1.2 1.2 0 0 0-1.3 0l-7 4a1.2 1.2 0 0 0-.6 1.1" transform="translate(-41.2 -41)" style="fill:#ffd834"/>
    <path d="M21.1 140a1.6 1.6 0 0 1-.8-.2l-3.1-1.9a1.6 1.6 0 0 1-.9-1.4V133a1.6 1.6 0 0 1 .9-1.4l3.1-1.9a1.6 1.6 0 0 1 1.7 0l3.1 1.9a1.6 1.6 0 0 1 .8 1.4v3.6a1.6 1.6 0 0 1-.8 1.4l-3.1 1.9a1.6 1.6 0 0 1-.9.2m0-9.8a.9.9 0 0 0-.4 0l-3.2 2a.9.9 0 0 0-.4.7v3.6a.9.9 0 0 0 .4.8l3.2 1.8a.9.9 0 0 0 .9 0l3.1-1.8a.9.9 0 0 0 .5-.8V133a.9.9 0 0 0-.5-.8l-3.1-1.8a.9.9 0 0 0-.5-.1"/>
    <path d="M183.6 139.9v8a1.2 1.2 0 0 0 .6 1.1l7 4a1.2 1.2 0 0 0 1.2 0l7-4a1.2 1.2 0 0 0 .7-1v-8.1a1.2 1.2 0 0 0-.6-1.1l-7-4a1.2 1.2 0 0 0-1.3 0l-7 4a1.2 1.2 0 0 0-.6 1" transform="translate(-44.7 -32.7)" style="fill:#ffd834"/>
    <path d="M120.8 108v6a1.2 1.2 0 0 0 .6 1.2l5.4 3a1.2 1.2 0 0 0 1.2 0l5.3-3a1.2 1.2 0 0 0 .7-1.1v-6.2a1.2 1.2 0 0 0-.7-1l-5.3-3.1a1.2 1.2 0 0 0-1.2 0l-5.4 3a1.2 1.2 0 0 0-.6 1.1"/>
    <path d="M84.6 90.6v7.9a2.3 2.3 0 0 0 1 2l7 3.9a2.3 2.3 0 0 0 2.2 0l6.9-4a2.3 2.3 0 0 0 1-2v-7.8a2.3 2.3 0 0 0-1-2l-6.9-4a2.3 2.3 0 0 0-2.3 0l-6.8 4a2.3 2.3 0 0 0-1.1 2"/>
    <path d="M129.5 125.4a.6.6 0 0 1-.6-.6v-4.6a1.7 1.7 0 0 0-.8-1.4l-4-2.3a1.7 1.7 0 0 0-1.7 0 .6.6 0 1 1-.6-1 2.8 2.8 0 0 1 2.9 0l4 2.3a2.8 2.8 0 0 1 1.4 2.4v4.6a.6.6 0 0 1-.6.6" transform="translate(-29.6 -28)" style="fill:#fff"/>
  </g>
</svg>
