<svg data-name="Group 15958" xmlns="http://www.w3.org/2000/svg" width="143.5" height="139.6"><defs><clipPath id="a"><path data-name="Rectangle 5620" style="fill:none" d="M0 0h143.5v139.6H0z"/></clipPath></defs><g data-name="Group 15957" style="clip-path:url(#a)"><path data-name="Path 26642" d="M52.2 43.5v10a2.8 2.8 0 0 0 1.4 2.3l8.5 5a2.8 2.8 0 0 0 2.8 0l8.6-5a2.8 2.8 0 0 0 1.3-2.4v-9.9a2.8 2.8 0 0 0-1.3-2.4l-8.6-4.9a2.8 2.8 0 0 0-2.8 0l-8.5 5a2.8 2.8 0 0 0-1.4 2.3" transform="translate(-17 -11.6)" style="fill:#ffd834"/><path data-name="Path 26643" d="M63.4 61.3a3.1 3.1 0 0 1-1.6-.4l-8.5-5a3.1 3.1 0 0 1-1.6-2.6v-10a3.1 3.1 0 0 1 1.6-2.6l8.5-5a3.1 3.1 0 0 1 3.1 0l8.6 5a3.1 3.1 0 0 1 1.5 2.7v9.9a3.1 3.1 0 0 1-1.5 2.6l-8.6 5a3.1 3.1 0 0 1-1.5.4m0-25.3a2.4 2.4 0 0 0-1.3.3l-8.5 5a2.4 2.4 0 0 0-1.2 2v10a2.4 2.4 0 0 0 1.2 2l8.6 5a2.4 2.4 0 0 0 2.4 0l8.5-5a2.4 2.4 0 0 0 1.3-2v-10a2.4 2.4 0 0 0-1.3-2l-8.5-5a2.4 2.4 0 0 0-1.2-.3" transform="translate(-16.8 -11.5)" style="fill:#fff"/><path data-name="Path 26644" d="M73.8 85.6h-6.3a18.4 18.4 0 0 1-14.4-7 .5.5 0 1 1 .8-.6 17.4 17.4 0 0 0 13.6 6.6h6.3A17.5 17.5 0 0 0 91.3 67v-25a17.5 17.5 0 0 0-17.5-17.4h-6.3a17.3 17.3 0 0 0-6.8 1.4.5.5 0 0 1-.4-1 18.3 18.3 0 0 1 7.2-1.4h6.3a18.5 18.5 0 0 1 18.5 18.5v25a18.5 18.5 0 0 1-18.5 18.4"/><path data-name="Path 26645" d="M55.8 29.1a.5.5 0 0 1-.4-.9 18.6 18.6 0 0 1 2.3-1.7.5.5 0 0 1 .5.9 17.7 17.7 0 0 0-2 1.6.5.5 0 0 1-.4.1"/><path data-name="Path 26646" d="M49.6 67.6a.5.5 0 0 1-.5-.5v-25a18.5 18.5 0 0 1 4-11.5.5.5 0 0 1 .8.6 17.5 17.5 0 0 0-3.8 11v25a.5.5 0 0 1-.5.4"/><path data-name="Path 26647" d="M73.2 81.8h-5a15.3 15.3 0 0 1-9-3 .5.5 0 1 1 .6-.7 14.3 14.3 0 0 0 8.3 2.7h5.1a14.4 14.4 0 0 0 14.4-14.4V42.9a14.4 14.4 0 0 0-14.4-14.4h-5A14.4 14.4 0 0 0 53.6 43v23.5a.5.5 0 1 1-1 0V42.9a15.4 15.4 0 0 1 15.4-15.4h5.1A15.4 15.4 0 0 1 88.6 43v23.5a15.4 15.4 0 0 1-15.4 15.4"/><path data-name="Path 26648" d="M69.7 41.2A64.2 64.2 0 0 1 54 39.3a.5.5 0 1 1 .3-1 62.6 62.6 0 0 0 30.4 0 .5.5 0 1 1 .2 1 64 64 0 0 1-15.3 2"/><path data-name="Path 26649" d="M78.3 36.4H62.5a.5.5 0 0 1 0-1h15.8a.5.5 0 0 1 0 1"/><path data-name="Path 26650" d="M70.4 78.5h-.6a.5.5 0 1 1 0-1h.6a.5.5 0 1 1 0 1"/><path data-name="Path 26651" d="M18.7 112h-2.4a2.2 2.2 0 0 0-2 3.2l9.7 21.2a2.2 2.2 0 0 0 1 1l8.7 4" transform="translate(-4.6 -36.4)" style="fill:#ff8c2b"/><path data-name="Path 26652" d="M29.1 105.5a.5.5 0 0 1-.2 0l-8.6-4a2.7 2.7 0 0 1-1.4-1.3L9.3 79a2.7 2.7 0 0 1 2.5-3.9H14a.5.5 0 1 1 0 1h-2.4a1.7 1.7 0 0 0-1.5 2.5l9.7 21.2a1.7 1.7 0 0 0 .8.8l8.6 4a.5.5 0 0 1-.2.9"/><path data-name="Path 26653" d="M33 82.5 18.9 60.8a3 3 0 0 1-.5-1.6v-6.3a7.4 7.4 0 0 0-7.5-7.2H9.2c-4 0-5.9 3.4-6 7.3L3 64.5a3 3 0 0 0 .4 1.5L34 127.9a3.2 3.2 0 0 0 2.9 1.6l51.7.2a6.7 6.7 0 0 0 6.9-6.6v-5.7a6.7 6.7 0 0 0-6.8-6.6H52.2a3.2 3.2 0 0 1-2.7-1.5l-9-15.2z" transform="translate(-1 -14.8)" style="fill:#ffd834"/><path data-name="Path 26654" d="m87.8 115.4-51.8-.2a3.7 3.7 0 0 1-3.3-2L.4 48.7a3.7 3.7 0 0 1-.4-1.8l.3-12a8 8 0 0 1 8-7.7H10a8 8 0 0 1 8 8v6.5a2.7 2.7 0 0 0 .4 1.4l14 22.6a.5.5 0 1 1-.8.5l-14-22.6a3.7 3.7 0 0 1-.7-2v-6.4a7 7 0 0 0-7-7H8.4a7 7 0 0 0-7 6.8L1 47a2.7 2.7 0 0 0 .3 1.2l32.3 64.5a2.7 2.7 0 0 0 2.4 1.5l51.8.2a6.3 6.3 0 0 0 6.3-6.4v-7.3a6.3 6.3 0 0 0-6.3-6.3H51.2a3.7 3.7 0 0 1-3.1-1.8l-9-14.4a.5.5 0 1 1 .9-.5L49 92a2.7 2.7 0 0 0 2.2 1.2h36.6a7.3 7.3 0 0 1 7.4 7.4v7.3a7.3 7.3 0 0 1-7.4 7.4"/><path data-name="Path 26655" d="M67.1 77.7h-38l-7-9.1h45a3.2 3.2 0 0 1 3.2 3.2v2.7a3.2 3.2 0 0 1-3.2 3.2"/><path data-name="Path 26656" d="M22 69.8H11.4a.5.5 0 0 1 0-1H22a.5.5 0 0 1 0 1"/><path data-name="Path 26657" d="M35.7 112.7a.5.5 0 0 1-.4-.8l9-9.7a2 2 0 0 0 .2-2.4L30.3 80a.5.5 0 0 1 .8-.6l14.2 19.8a3 3 0 0 1-.2 3.7l-9 9.7a.5.5 0 0 1-.4.1"/><path data-name="Path 26658" d="M59.3 109.4H41.5a.5.5 0 1 1 0-1h17.8a.5.5 0 0 1 0 1"/><path data-name="Path 26659" d="M67.3 109.2a1.8 1.8 0 1 1-1.8-1.7 1.8 1.8 0 0 1 1.8 1.7"/><path data-name="Path 26660" d="M76.7 115.2a.5.5 0 0 1-.5-.5v-7.4a5.2 5.2 0 0 0-5.2-5.2H46.8a.5.5 0 0 1 0-1H71a6.2 6.2 0 0 1 6.2 6.2v7.4a.5.5 0 0 1-.5.5"/><path data-name="Path 26661" d="m67.8 170.2-4.3 12a3.3 3.3 0 0 0 3.1 4.4h21.5a2.7 2.7 0 0 1 2.8 2.7v2.4a2.7 2.7 0 0 1-2.8 2.7h-33a3.3 3.3 0 0 1-3-4.3l6.8-20z" transform="translate(-16.8 -55.3)" style="fill:#ff8c2b"/><path data-name="Path 26662" d="M71.3 139.6h-33a3.8 3.8 0 0 1-3.6-5l6.8-19.9a.5.5 0 0 1 .5-.3h9a.5.5 0 0 1 .4.7l-4.2 12a2.7 2.7 0 0 0 2.6 3.7h21.5a3.2 3.2 0 0 1 3.2 3.2v2.4a3.2 3.2 0 0 1-3.2 3.2m-29-24.2-6.6 19.5a2.7 2.7 0 0 0 2.6 3.7h33a2.2 2.2 0 0 0 2.2-2.2V134a2.2 2.2 0 0 0-2.2-2.2H49.8a3.8 3.8 0 0 1-3.6-5l4-11.4z"/><path data-name="Path 26663" d="M30.6 139.2H4.2a.5.5 0 1 1 0-1h26.4a.5.5 0 1 1 0 1"/><path data-name="Path 26664" d="M110.8 139.3H83.6a.5.5 0 1 1 0-1h27.2a.5.5 0 1 1 0 1"/><path data-name="Path 26665" d="M116.8 22.6v30.1a5.5 5.5 0 0 0 2.8 4.8l26 15a5.5 5.5 0 0 0 5.6 0l26-15a5.5 5.5 0 0 0 2.9-4.8V22.6a5.5 5.5 0 0 0-2.8-4.8l-26.1-15a5.5 5.5 0 0 0-5.5 0l-26.1 15a5.5 5.5 0 0 0-2.8 4.8" transform="translate(-38 -.7)" style="fill:#6ba8fa"/><path data-name="Path 26666" d="M147.8 1.4a5.5 5.5 0 0 1 2.7.7l26.1 15a5.5 5.5 0 0 1 2.8 4.8v30.2a5.5 5.5 0 0 1-2.8 4.7l-26 15.1a5.5 5.5 0 0 1-5.6 0l-26-15a5.5 5.5 0 0 1-2.8-4.8V21.9a5.5 5.5 0 0 1 2.7-4.7L145 2a5.5 5.5 0 0 1 2.8-.8m0-1.3a6.9 6.9 0 0 0-3.4 1l-26.1 15a6.9 6.9 0 0 0-3.5 6v30a6.9 6.9 0 0 0 3.5 6l26 15a6.9 6.9 0 0 0 7 0l26-15a6.9 6.9 0 0 0 3.5-6V22a6.9 6.9 0 0 0-3.5-6l-26-15a6.9 6.9 0 0 0-3.5-1" transform="translate(-37.3)" style="fill:#fff"/><path data-name="Path 26667" d="M111.6 63.2a26.3 26.3 0 0 1-2.4-52.6l-5.5-2.2a.5.5 0 1 1 .4-1l7.7 3.1a.5.5 0 0 1-.2 1 25.3 25.3 0 1 0 6.9 1 .5.5 0 1 1 .3-1 26.3 26.3 0 0 1-7.2 51.7"/><path data-name="Path 26668" d="M105 16.4a.5.5 0 0 1-.4-.9l6.7-5a.5.5 0 1 1 .6.9l-6.7 5a.5.5 0 0 1-.3 0"/><path data-name="Path 26669" d="M148 45.3h-10v-2.5l3.3-3.4q1.5-1.5 1.9-2.1a4.5 4.5 0 0 0 .6-1 2 2 0 0 0 .2-.8 1 1 0 0 0-.4-.8 1.4 1.4 0 0 0-1-.4 2.7 2.7 0 0 0-1.3.4 9.4 9.4 0 0 0-1.5 1.1l-2-2.4a11.2 11.2 0 0 1 1.8-1.4 6.4 6.4 0 0 1 1.6-.6 7.8 7.8 0 0 1 1.9-.2 5.8 5.8 0 0 1 2.4.5A3.8 3.8 0 0 1 147 33a3.5 3.5 0 0 1 .6 2 5 5 0 0 1-.8 2.9 9.4 9.4 0 0 1-1.2 1.4l-3 2.8h5.3z" transform="translate(-44.8 -10.1)" style="fill:#fff"/><path data-name="Path 26670" d="M165.2 42.7h-1.5v2.7H160v-2.7h-5.5v-2.8l5.7-8.4h3.5V40h1.5zm-5.2-2.8v-3.7a10 10 0 0 1-.8 1.4l-1.5 2.3z" transform="translate(-50.2 -10.2)" style="fill:#fff"/><path data-name="Path 26671" d="m177.1 39.8-18.7 24.6h-3.6l18.7-24.6z" transform="translate(-50.3 -13)" style="fill:#fff"/><path data-name="Path 26672" d="m178.1 74 4.8-10.8h-6v-3h10v2.1l-5 11.6z" transform="translate(-57.4 -19.5)" style="fill:#fff"/><path data-name="Path 26673" d="M100.5 30a.5.5 0 0 1-.4-.8 9 9 0 0 0 2.2-3.6 3.7 3.7 0 0 0-.7-3 3.6 3.6 0 0 0-3-1 .5.5 0 0 1 0-1 4.5 4.5 0 0 1 3.8 1.4 4.7 4.7 0 0 1 .9 3.8 9.7 9.7 0 0 1-2.5 4 .5.5 0 0 1-.3.2"/><path data-name="Path 26674" d="M113.6 29.3a.5.5 0 0 1-.5-.5v-7a.5.5 0 1 1 1 0v7a.5.5 0 0 1-.5.5"/><path data-name="Path 26675" d="m129.4 40.8-9.6-.1a.5.5 0 1 1 0-1h9.6a.5.5 0 0 1 0 1.1"/><path data-name="Path 26676" d="M108.1 52a.5.5 0 0 1-.4-.8l18.7-24.6a.5.5 0 0 1 .8.6l-18.7 24.6a.5.5 0 0 1-.4.2"/><path data-name="Path 26677" d="m49 121.2-8-3.2.7-3.1H51z"/><path data-name="Path 26678" d="M87.1 118h-37a.7.7 0 0 1-.7-.7v-2a.7.7 0 0 1 .6-.7h37.1a.7.7 0 0 1 .7.6v2.1a.7.7 0 0 1-.7.7"/><path data-name="Path 26679" d="M168 185.9v5.3a1.1 1.1 0 0 0 .6 1l4.7 2.7a1.1 1.1 0 0 0 1.1 0l4.6-2.7a1.1 1.1 0 0 0 .6-1V186a1.1 1.1 0 0 0-.6-1l-4.6-2.7a1.1 1.1 0 0 0-1.1 0l-4.7 2.7a1.1 1.1 0 0 0-.5 1" transform="translate(-54.6 -59.1)" style="fill:#ffd834"/><path data-name="Path 26680" d="M43.6 15.7v6.8a1.1 1.1 0 0 0 .5 1l6 3.3a1.1 1.1 0 0 0 1 0l6-3.4a1.1 1.1 0 0 0 .5-1v-6.7a1.1 1.1 0 0 0-.5-1l-6-3.4a1.1 1.1 0 0 0-1 0l-6 3.4a1.1 1.1 0 0 0-.5 1" transform="translate(-14.2 -3.6)" style="fill:#ffd834"/><path data-name="Path 26681" d="M185 134.7v8.5a1.1 1.1 0 0 0 .6 1l7.3 4.2a1.1 1.1 0 0 0 1.1 0l7.3-4.3a1.1 1.1 0 0 0 .6-1v-8.4a1.1 1.1 0 0 0-.6-1l-7.3-4.1a1.1 1.1 0 0 0-1.1 0l-7.3 4.2a1.1 1.1 0 0 0-.6 1" transform="translate(-60.1 -42)" style="fill:#ffd834"/><path data-name="Path 26682" d="M104 108.4v5.1a1.1 1.1 0 0 0 .6 1l4.5 2.5a1.1 1.1 0 0 0 1 0l4.5-2.5a1.1 1.1 0 0 0 .6-1v-5.1a1.1 1.1 0 0 0-.6-1l-4.4-2.5a1.1 1.1 0 0 0-1.1 0l-4.5 2.5a1.1 1.1 0 0 0-.5 1"/><path data-name="Path 26683" d="M10.2 10.3v5a1.1 1.1 0 0 0 .6 1l4.4 2.6a1.1 1.1 0 0 0 1.1 0l4.5-2.6a1.1 1.1 0 0 0 .5-1v-5a1.1 1.1 0 0 0-.5-1l-4.5-2.6a1.1 1.1 0 0 0-1 0l-4.5 2.6a1.1 1.1 0 0 0-.6 1"/></g></svg>