<svg data-name="Group 15954" xmlns="http://www.w3.org/2000/svg" width="153.4" height="146.1"><defs><clipPath id="a"><path data-name="Rectangle 5618" style="fill:none" d="M0 0h153.4v146.1H0z"/></clipPath></defs><g data-name="Group 15953" style="clip-path:url(#a)"><path data-name="Path 26574" d="m44.6 54.8.4 51.8a13 13 0 0 0 6.5 11.2l45 25.6a13 13 0 0 0 13-.1l44.7-26.2a13 13 0 0 0 6.4-11.3l-.3-51.8a13 13 0 0 0-6.6-11.2l-45-25.6a13 13 0 0 0-13 .1L51 43.5a13 13 0 0 0-6.4 11.3" transform="translate(-11.1 -3.9)" style="fill:#6ba8fa"/><path data-name="Path 26575" d="M115.6 60c7.5-1.1 13 3.2 14 9.6 1 6.3-3 12-10.5 13.2-7.4 1.2-12.8-3.1-13.8-9.4-1-6.4 3-12.2 10.3-13.4m1 6.5c-2.5.4-4.2 2.1-3.7 5.7.6 3.4 2.8 4.5 5.2 4.1 2.5-.4 4.4-2.1 3.8-5.5-.5-3.6-2.8-4.7-5.3-4.3zM151.8 84c7.5-1.1 13 3.2 14 9.6 1 6.3-3 12-10.5 13.2-7.4 1.2-12.8-3.1-13.8-9.4-1-6.4 3-12.2 10.3-13.4m1 6.5c-2.4.4-4.2 2.1-3.7 5.7.6 3.4 2.8 4.5 5.2 4.1 2.5-.4 4.4-2 3.9-5.5-.6-3.5-2.9-4.7-5.4-4.3zm-9-35.9 10-1.2-25.6 58-10 1.2z" transform="translate(-26.3 -13.3)" style="fill:#fff"/><path data-name="Path 26576" d="m79.6 107.6-2.1.7a2.3 2.3 0 0 0-1.5 2.9l4.2 13a2.3 2.3 0 0 0 2.9 1.4l2.1-.7a9.1 9.1 0 0 0-5.6-17.3z" transform="translate(-19 -26.8)" style="fill:#fff"/><path data-name="Path 26577" d="M66.3 98.7a.6.6 0 0 1-.2-1.1 8.5 8.5 0 0 0-.7-16.4.6.6 0 0 1 .3-1.1 9.7 9.7 0 0 1 .8 18.6.6.6 0 0 1-.2 0"/><path data-name="Path 26578" d="M54.9 59.8a2.3 2.3 0 0 0-2.2 1.5A43.6 43.6 0 0 1 46 72.5 53.5 53.5 0 0 1 20.5 90a2.3 2.3 0 0 0-1.4 2.9l7 21.6a2.3 2.3 0 0 0 2.8 1.5 53.5 53.5 0 0 1 30.7-.9 44.3 44.3 0 0 1 12.2 5.2 2.3 2.3 0 0 0 3.4-2.6L57 61.4a2.3 2.3 0 0 0-2.1-1.6z"/><path data-name="Path 26579" d="m43.1 172.2-11.3-20.3a2.3 2.3 0 0 0-3.1-.8l-10.8 3.5a2.3 2.3 0 0 0-.9 3L28.3 178a2.3 2.3 0 0 0 2.7 1l10.8-3.5a2.3 2.3 0 0 0 1.5-2.8 2.3 2.3 0 0 0-.2-.5z" transform="translate(-4.2 -37.7)" style="fill:#ffd834"/><path data-name="Path 26580" d="M9.8 123.3a13.6 13.6 0 1 0 8.4 26l12.5-4.2a58.7 58.7 0 0 1-8.5-25.8z" transform="translate(0 -29.8)" style="fill:#ffd834"/><path data-name="Path 26581" d="M71.5 79a2.5 2.5 0 0 1 3.2 1.7l18.4 57a2.5 2.5 0 0 1-1.6 3.2h-.1a2.5 2.5 0 0 1-3.1-1.6l-18.4-57a2.5 2.5 0 0 1 1.6-3.2" transform="translate(-17.4 -19.7)" style="fill:#ffd834"/><path data-name="Path 26582" d="M54.7 99.5a50.1 50.1 0 0 1-11.4 9.5c-1.7 1.1-.9 8 1.4 14.7 2.5 7.5 5.3 14.7 6.7 14.6a51.4 51.4 0 0 1 16 .9c.5 0-2.7-1.4-8.5-18-5.2-15.2-3.9-22-4.2-21.7" transform="translate(-10.6 -24.9)" style="fill:#ffd834"/><path data-name="Path 26583" d="M3.9 105.7a.6.6 0 0 1-.6-.5 10.6 10.6 0 0 1 2-6c2-2.8 6-4.2 6.3-4.3a.6.6 0 0 1 .3 1s-3.9 1.4-5.6 4a9.8 9.8 0 0 0-1.9 5.2.6.6 0 0 1-.5.6"/><path data-name="Path 26584" d="M14.3 120.5A14.3 14.3 0 0 1 .8 101.7a.6.6 0 0 1 1 .3 13.1 13.1 0 0 0 16.9 16.7.6.6 0 0 1 .4 1 14.2 14.2 0 0 1-4.8.8"/><path data-name="Path 26585" d="M73.2 121.9a3 3 0 0 1-1.4-.3 3 3 0 0 1-1.5-1.8.6.6 0 1 1 1-.4 2 2 0 0 0 2.5 1.3 2 2 0 0 0 1.3-2.5l-14.8-46a.6.6 0 0 1 1-.3l14.9 46a3 3 0 0 1-2 3.8 3.3 3.3 0 0 1-1 .2"/><path data-name="Path 26586" d="M59.8 69.4a.6.6 0 0 1-.5-.4l-1.8-5.3a.6.6 0 0 1 1.1-.4l1.7 5.4a.6.6 0 0 1-.3.7.6.6 0 0 1-.2 0"/><path data-name="Path 26587" d="M26 142a2.2 2.2 0 0 1-1.5-.4 12.3 12.3 0 0 1-1.8-2.6L13 121.2a.6.6 0 0 1 1-.5l9.7 17.8a11.5 11.5 0 0 0 1.5 2.2c.6.5 1.8.1 2.1 0l8-2.8a.6.6 0 1 1 .4 1l-8 2.8a4.7 4.7 0 0 1-1.7.4"/><path data-name="Path 26588" d="M152.8 87.5a.6.6 0 0 1-.6-.5v-3a.6.6 0 0 1 .6-.6.6.6 0 0 1 .5.6v3a.6.6 0 0 1-.5.5zm-128.6-6a.6.6 0 0 1-.6-.5v-2.2a.6.6 0 0 1 .6-.5.6.6 0 0 1 .5.5V81a.6.6 0 0 1-.5.5zM152.7 80a.6.6 0 0 1-.5-.5v-3a.6.6 0 0 1 .5-.6.6.6 0 0 1 .6.6v3a.6.6 0 0 1-.6.5zM24.1 75a.6.6 0 0 1-.5-.6v-3a.6.6 0 0 1 .5-.5.6.6 0 0 1 .6.5v3a.6.6 0 0 1-.6.6zm128.6-2.4a.6.6 0 0 1-.6-.5v-3a.6.6 0 0 1 .6-.6.6.6 0 0 1 .5.6v3a.6.6 0 0 1-.5.5zM24.1 67.4a.6.6 0 0 1-.6-.6v-3a.6.6 0 0 1 .6-.5.6.6 0 0 1 .5.5v3a.6.6 0 0 1-.5.6zM152.6 65a.6.6 0 0 1-.5-.5v-3a.6.6 0 0 1 .5-.6.6.6 0 0 1 .6.6v3a.6.6 0 0 1-.6.5zM24 60a.6.6 0 0 1-.5-.6v-3a.6.6 0 0 1 .5-.5.6.6 0 0 1 .6.5v3a.6.6 0 0 1-.6.6zm128.6-2.4a.6.6 0 0 1-.6-.5v-3a.6.6 0 0 1 .6-.6.6.6 0 0 1 .5.6v3a.6.6 0 0 1-.5.5zM24 52.4a.6.6 0 0 1-.6-.6v-3a.6.6 0 0 1 .6-.5.6.6 0 0 1 .5.5v3a.6.6 0 0 1-.5.6zM152.5 50a.6.6 0 0 1-.5-.5v-3a.6.6 0 0 1 .5-.6.6.6 0 0 1 .6.6v3a.6.6 0 0 1-.6.5zM24 45a.6.6 0 0 1-.5-.6v-3a.6.6 0 0 1 1.1 0v3a.6.6 0 0 1-.6.6zm128.6-2.4a.6.6 0 0 1-.6-.5v-.2a13 13 0 0 0-.3-2.7.6.6 0 1 1 1.1-.2 14 14 0 0 1 .4 2.9v.2a.6.6 0 0 1-.6.5zM25 37.5a.6.6 0 0 1-.5-.7 14.4 14.4 0 0 1 1.6-2.7.6.6 0 0 1 .9.7 13.2 13.2 0 0 0-1.5 2.4.6.6 0 0 1-.5.4m125.4-2.2a.6.6 0 0 1-.5-.3 13.4 13.4 0 0 0-1.7-2.3.6.6 0 0 1 .8-.7 14.6 14.6 0 0 1 1.9 2.4.6.6 0 0 1-.5.9M30 31.9a.6.6 0 0 1-.3-1l1.2-.8 1.4-.8a.6.6 0 0 1 .5 1l-1.4.7-1.1.8a.6.6 0 0 1-.3 0M145 30.4a.6.6 0 0 1-.2 0l-2.7-1.5a.6.6 0 1 1 .6-1l2.6 1.4a.6.6 0 0 1-.3 1m-108.7-2A.6.6 0 0 1 36 27l2.6-1.5a.6.6 0 0 1 .6 1L36.6 28a.6.6 0 0 1-.2.1m102.1-1.4a.6.6 0 0 1-.2 0l-2.7-1.5a.6.6 0 0 1 .6-1l2.6 1.4a.6.6 0 0 1-.3 1M43 24.5a.6.6 0 0 1-.3-1l2.6-1.5a.6.6 0 0 1 .6 1l-2.6 1.4a.6.6 0 0 1-.3.1m89-1.3a.6.6 0 0 1-.2 0l-2.6-1.5a.6.6 0 0 1 .5-1l2.6 1.4a.6.6 0 0 1-.2 1m-82.6-2.3a.6.6 0 0 1-.3-1l2.7-1.5a.6.6 0 1 1 .5 1l-2.6 1.4a.6.6 0 0 1-.3.1m76-1.2a.6.6 0 0 1-.3-.1l-2.6-1.4a.6.6 0 0 1 .5-1l2.7 1.4a.6.6 0 0 1-.3 1M56 17a.6.6 0 0 1-.3-1l2.6-1.5a.6.6 0 0 1 .5 1l-2.6 1.4a.6.6 0 0 1-.2.1m62.8-1.1a.6.6 0 0 1-.3-.1l-2.6-1.5a.6.6 0 0 1 .5-1l2.7 1.5a.6.6 0 0 1-.3 1m-56.3-2.5a.6.6 0 0 1-.3-1l2.6-1.5a.6.6 0 0 1 .6 1l-2.6 1.4a.6.6 0 0 1-.3.1m49.7-1a.6.6 0 0 1-.2-.1l-2.7-1.5a.6.6 0 0 1 .6-1l2.6 1.5a.6.6 0 0 1-.3 1M69 9.7a.6.6 0 0 1-.3-1L71.3 7a.6.6 0 0 1 .6 1l-2.6 1.4a.6.6 0 0 1-.3.1m36.7-1a.6.6 0 0 1-.3 0L102.8 7a.6.6 0 1 1 .5-1l2.6 1.5a.6.6 0 0 1-.2 1M75.5 6a.6.6 0 0 1-.2-1l2.6-1.5a.6.6 0 1 1 .5 1l-2.6 1.4a.6.6 0 0 1-.3.1M99.1 5a.6.6 0 0 1-.3 0l-2.6-1.5a.6.6 0 0 1 .5-1L99.3 4a.6.6 0 0 1-.2 1M82 2.3a.6.6 0 0 1-.2-1 15.3 15.3 0 0 1 3-1 .6.6 0 1 1 .2 1 14.2 14.2 0 0 0-2.8 1 .6.6 0 0 1-.2 0m10.3-.6a.6.6 0 0 1-.2 0 14.2 14.2 0 0 0-2.8-.6.6.6 0 0 1-.5-.6.6.6 0 0 1 .6-.5 15.3 15.3 0 0 1 3 .6.6.6 0 0 1-.1 1.1"/><path data-name="Path 26589" d="M77.2 141a.6.6 0 0 1-.3 0L43 121.6a.6.6 0 1 1 .6-1L77.4 140a.6.6 0 0 1-.2 1.1"/><path data-name="Path 26590" d="M89.4 95.8a.6.6 0 0 1-.5-.8l6.9-28.2a.6.6 0 0 1 1 .3c-6.6 28-6.8 28.3-7 28.4a.6.6 0 0 1-.4.3" transform="translate(-22.2 -16.6)" style="fill:#fff"/><path data-name="Path 26591" d="M96.3 105.6a.6.6 0 0 1-.5-.8l7.7-13a.6.6 0 1 1 1 .6l-7.8 13a.6.6 0 0 1-.4.2" transform="translate(-23.9 -22.9)" style="fill:#fff"/><path data-name="Path 26592" d="M99.5 111a.6.6 0 0 1-.3-1l17.2-7.7a.6.6 0 1 1 .4 1L99.8 111a.6.6 0 0 1-.2 0" transform="translate(-24.7 -25.5)" style="fill:#fff"/><path data-name="Path 26593" d="m112.3 122.7-12.5-2.5a.6.6 0 0 1-.5-.6.6.6 0 0 1 .7-.5l12.4 2.4a.6.6 0 0 1 0 1.2" transform="translate(-24.8 -29.8)" style="fill:#fff"/><path data-name="Path 26594" d="M85.1 78.9a.6.6 0 0 1-.6-.6l.4-19a.6.6 0 0 1 .5-.6.6.6 0 0 1 .6.6l-.3 19a.6.6 0 0 1-.6.6" transform="translate(-21.1 -14.7)" style="fill:#fff"/><path data-name="Path 26595" d="M99.5 61.7a.6.6 0 0 1-.2 0 .6.6 0 0 1-.4-.7l1-4.6a.6.6 0 1 1 1 .2l-.9 4.6a.6.6 0 0 1-.5.5" transform="translate(-24.7 -14)" style="fill:#fff"/><path data-name="Path 26596" d="M138.2 152.2a.6.6 0 0 1-.3 0l-2.9-1.8a.6.6 0 0 1 .6-1l2.9 1.8a.6.6 0 0 1-.3 1" transform="translate(-33.6 -37.3)" style="fill:#fff"/><path data-name="Path 26597" d="M130.3 147.5a.6.6 0 0 1-.3 0l-4-2.5a.6.6 0 1 1 .5-1l4.1 2.5a.6.6 0 0 1-.3 1" transform="translate(-31.4 -36)" style="fill:#fff"/><path data-name="Path 26598" d="M115.6 138.7a.6.6 0 0 1-.3 0l-18.4-11a.6.6 0 1 1 .6-1l18.4 11a.6.6 0 0 1-.3 1" transform="translate(-24.1 -31.6)" style="fill:#fff"/><path data-name="Path 26599" d="M112.7 156a.6.6 0 0 1-.4-.2l-11-13.8a.6.6 0 1 1 1-.7l10.8 13.8a.6.6 0 0 1-.4.9" transform="translate(-25.3 -35.2)" style="fill:#fff"/><path data-name="Path 26600" d="m28.8 115.7.9 2s.1 2.3-6.2 5.8a57.6 57.6 0 0 1-7.1 3.3l-4.2-7s3.1.6 8.7-1.3l7.9-2.8"/><path data-name="Path 26601" d="M102 98.5a.6.6 0 0 1-.3 0 .6.6 0 0 1-.3-.8l25.2-57-9 1a.6.6 0 0 1-.1-1l10-1.3a.6.6 0 0 1 .5.8l-25.6 58a.6.6 0 0 1-.5.3m27.2-4.5a.6.6 0 0 1-.1-1.1c6.9-1.1 11-6.3 10-12.6-1-6.4-6.5-10.2-13.4-9.1a.6.6 0 1 1-.1-1.1c7.4-1.2 13.5 3 14.6 10 1 6.9-3.5 12.7-11 13.9m-2-6.4a4.7 4.7 0 0 1-2.7-.9 5.5 5.5 0 0 1-2-3.8 5.8 5.8 0 0 1 .7-4.5 4.9 4.9 0 0 1 3.4-1.8.6.6 0 1 1 0 1 3.8 3.8 0 0 0-2.5 1.5 4.7 4.7 0 0 0-.6 3.6 4.5 4.5 0 0 0 1.7 3.1 3.9 3.9 0 0 0 2.9.6.6.6 0 0 1 .1 1 6.4 6.4 0 0 1-1 .1M93 70.2a.6.6 0 0 1-.1-1.1c6.8-1.1 11-6.3 10-12.6-1-6.4-6.5-10.2-13.4-9.1a.6.6 0 1 1-.1-1.1c7.3-1.2 13.5 3 14.6 10 1 6.9-3.5 12.7-11 13.9m-2-6.4c-2.5 0-4.3-1.7-4.8-4.7a5.8 5.8 0 0 1 .8-4.5 4.9 4.9 0 0 1 3.3-1.8.6.6 0 0 1 .2 1 3.8 3.8 0 0 0-2.6 1.5 4.7 4.7 0 0 0-.6 3.6c.6 3.7 3.1 3.9 4.6 3.7a.6.6 0 1 1 .1 1 6.6 6.6 0 0 1-1 .1"/><path data-name="Path 26602" d="M130.4 10.3v11.5a1.2 1.2 0 0 0 .6 1.1l10 5.8a1.2 1.2 0 0 0 1.2 0l10-5.8a1.2 1.2 0 0 0 .6-1V10.2a1.2 1.2 0 0 0-.6-1l-10-5.8a1.2 1.2 0 0 0-1.2 0l-10 5.7a1.2 1.2 0 0 0-.6 1.1" transform="translate(-32.6 -.8)" style="fill:#ffd834"/><path data-name="Path 26603" d="M141.4 29.2a1.8 1.8 0 0 1-.9-.2l-10-5.8a1.8 1.8 0 0 1-.9-1.6V10.1a1.8 1.8 0 0 1 1-1.5l10-5.8a1.8 1.8 0 0 1 1.7 0l10 5.8a1.8 1.8 0 0 1 1 1.5v11.5a1.8 1.8 0 0 1-1 1.6l-10 5.8a1.8 1.8 0 0 1-.9.2m0-25.5a.7.7 0 0 0-.3 0l-10 5.8a.7.7 0 0 0-.3.6v11.5a.7.7 0 0 0 .3.6l10 5.8a.7.7 0 0 0 .7 0l10-5.8a.7.7 0 0 0 .3-.5V10a.7.7 0 0 0-.3-.6l-10-5.7a.7.7 0 0 0-.4-.1" transform="translate(-32.4 -.6)" style="fill:#fff"/><path data-name="Path 26604" d="M172.4 11.2v6.5a1.2 1.2 0 0 0 .6 1l5.6 3.3a1.2 1.2 0 0 0 1.2 0l5.6-3.2a1.2 1.2 0 0 0 .7-1.1v-6.5a1.2 1.2 0 0 0-.7-1l-5.6-3.3a1.2 1.2 0 0 0-1.2 0l-5.6 3.3a1.2 1.2 0 0 0-.6 1" transform="translate(-43 -1.7)" style="fill:#ffd834"/><path data-name="Path 26605" d="M179 22.4a1.6 1.6 0 0 1-.7-.2l-5.6-3.2a1.6 1.6 0 0 1-.8-1.4V11a1.6 1.6 0 0 1 .8-1.4l5.6-3.2a1.6 1.6 0 0 1 1.6 0l5.6 3.2a1.6 1.6 0 0 1 .8 1.4v6.5a1.6 1.6 0 0 1-.8 1.4l-5.6 3.2a1.6 1.6 0 0 1-.8.2M179 7a.9.9 0 0 0-.4.1l-5.7 3.3a.9.9 0 0 0-.4.7v6.5a.9.9 0 0 0 .4.7l5.7 3.3a.9.9 0 0 0 .8 0l5.6-3.3a.9.9 0 0 0 .5-.7V11a.9.9 0 0 0-.5-.7L179.5 7a.9.9 0 0 0-.4-.1" transform="translate(-43 -1.6)" style="fill:#fff"/><path data-name="Path 26606" d="M135.7 112.1v5.9a1.2 1.2 0 0 0 .7 1l5 3a1.2 1.2 0 0 0 1.2 0l5-3a1.2 1.2 0 0 0 .7-1V112a1.2 1.2 0 0 0-.6-1l-5-3a1.2 1.2 0 0 0-1.3 0l-5 3a1.2 1.2 0 0 0-.7 1"/><path data-name="Path 26607" d="M142 122.5a1.6 1.6 0 0 1-.8-.2l-5-3a1.6 1.6 0 0 1-.8-1.3V112a1.6 1.6 0 0 1 .8-1.4l5-2.9a1.6 1.6 0 0 1 1.6 0l5 3a1.6 1.6 0 0 1 .9 1.3v5.9a1.6 1.6 0 0 1-.8 1.3l-5 3a1.6 1.6 0 0 1-.9.2m0-14.1a.9.9 0 0 0-.4 0l-5 3a.9.9 0 0 0-.5.7v5.9a.9.9 0 0 0 .5.7l5 3a.9.9 0 0 0 .8 0l5-3a.9.9 0 0 0 .5-.7V112a.9.9 0 0 0-.4-.7l-5-3a.9.9 0 0 0-.5 0"/><path data-name="Path 26608" d="M6.5 69.8v3.5a1.2 1.2 0 0 0 .6 1l3 1.8a1.2 1.2 0 0 0 1.2 0l3-1.8a1.2 1.2 0 0 0 .6-1v-3.5a1.2 1.2 0 0 0-.6-1l-3-1.8a1.2 1.2 0 0 0-1.2 0l-3 1.7a1.2 1.2 0 0 0-.6 1.1"/><path data-name="Path 26609" d="M10.7 76.6a1.6 1.6 0 0 1-.8-.2l-3-1.7a1.6 1.6 0 0 1-.8-1.4v-3.5a1.6 1.6 0 0 1 .8-1.4l3-1.7a1.6 1.6 0 0 1 1.6 0l3 1.7a1.6 1.6 0 0 1 .8 1.4v3.5a1.6 1.6 0 0 1-.8 1.4l-3 1.7a1.6 1.6 0 0 1-.8.2m0-9.4a.9.9 0 0 0-.4.1l-3 1.8a.9.9 0 0 0-.4.7v3.5a.9.9 0 0 0 .4.7l3 1.7a.9.9 0 0 0 .9 0l3-1.7a.9.9 0 0 0 .4-.7v-3.5a.9.9 0 0 0-.5-.7l-3-1.8a.9.9 0 0 0-.4 0"/><path data-name="Path 26610" d="M147.2 167v11.5a1.2 1.2 0 0 0 .6 1.1l10 5.8a1.2 1.2 0 0 0 1.2 0l10-5.8a1.2 1.2 0 0 0 .6-1V167a1.2 1.2 0 0 0-.6-1l-10-5.8a1.2 1.2 0 0 0-1.2 0l-10 5.7a1.2 1.2 0 0 0-.6 1.1" transform="translate(-36.8 -40)" style="fill:#ffd834"/><path data-name="Path 26611" d="M158.2 186a1.8 1.8 0 0 1-.9-.3l-10-5.8a1.8 1.8 0 0 1-.9-1.5v-11.6a1.8 1.8 0 0 1 1-1.5l10-5.8a1.8 1.8 0 0 1 1.7 0l10 5.8a1.8 1.8 0 0 1 .9 1.5v11.6a1.8 1.8 0 0 1-1 1.5l-9.9 5.8a1.8 1.8 0 0 1-.9.2m0-25.5a.7.7 0 0 0-.3 0l-10 5.8a.7.7 0 0 0-.4.6v11.6a.7.7 0 0 0 .4.5l10 5.8a.7.7 0 0 0 .6 0l10-5.8a.7.7 0 0 0 .4-.5v-11.6a.7.7 0 0 0-.4-.6l-10-5.7a.7.7 0 0 0-.3-.1" transform="translate(-36.6 -39.8)" style="fill:#fff"/><path data-name="Path 26612" d="M11.4 58.2v11.5a1.2 1.2 0 0 0 .6 1l10 5.8a1.2 1.2 0 0 0 1.2 0l10-5.7a1.2 1.2 0 0 0 .6-1.1V58.2a1.2 1.2 0 0 0-.6-1.1l-10-5.8a1.2 1.2 0 0 0-1.2 0l-10 5.8a1.2 1.2 0 0 0-.6 1" transform="translate(-2.8 -12.8)" style="fill:#ffd834"/><path data-name="Path 26613" d="M22.5 77a1.6 1.6 0 0 1-.8-.3l-10-5.7a1.6 1.6 0 0 1-.8-1.4V58a1.6 1.6 0 0 1 .8-1.4l10-5.7a1.6 1.6 0 0 1 1.6 0l10 5.7A1.6 1.6 0 0 1 34 58v11.6a1.6 1.6 0 0 1-.8 1.4l-10 5.7a1.6 1.6 0 0 1-.8.3m0-25.6a.9.9 0 0 0-.5.1l-10 5.8a.9.9 0 0 0-.4.7v11.6a.9.9 0 0 0 .4.7l10 5.8a.9.9 0 0 0 .9 0l10-5.8a.9.9 0 0 0 .4-.7V58a.9.9 0 0 0-.4-.7l-10-5.8a.9.9 0 0 0-.4 0" transform="translate(-2.7 -12.7)" style="fill:#fff"/></g></svg>