<svg data-name="Group 15956" xmlns="http://www.w3.org/2000/svg" width="162.4" height="135.5"><defs><clipPath id="a"><path data-name="Rectangle 5619" style="fill:none" d="M0 0h162.4v135.5H0z"/></clipPath></defs><g data-name="Group 15955" style="clip-path:url(#a)"><path data-name="Path 26614" d="M140.2 148.3H13.4a7.2 7.2 0 0 1-7.2-7.1v-.3l3.2-74.1a6.4 6.4 0 0 1 6.3-6.1h127.6a7.2 7.2 0 0 1 7.2 7.2v.3l-3.1 73.3a7.2 7.2 0 0 1-7.2 6.8" transform="translate(-1.4 -13.4)" style="fill:#ffd834"/><path data-name="Path 26615" d="M34.6 73.5H22.4a3.2 3.2 0 0 1-2.4-1 2.7 2.7 0 0 1-.8-2l.5-8.8a3.3 3.3 0 0 1 3.4-3h12.2a3.2 3.2 0 0 1 2.3 1 2.7 2.7 0 0 1 .8 2l-.5 8.8a3.3 3.3 0 0 1-3.3 3M23 59.5a2.5 2.5 0 0 0-2.6 2.2l-.5 8.8a2 2 0 0 0 .6 1.5 2.5 2.5 0 0 0 1.7.7h12.3a2.5 2.5 0 0 0 2.6-2.2l.4-8.8a2 2 0 0 0-.5-1.5 2.5 2.5 0 0 0-1.8-.7z"/><path data-name="Path 26616" d="M91.9 70.7a92 92 0 0 0 24.7 24.2c1.3.8 2.5.4 4 0 2.3-.8 14.2-4.5 27.4-17.2l1.4-25.3s-66.3 7-57.5 18.3"/><path data-name="Path 26617" d="M89 21c0-3.9 1.4-5.5 4.4-7.2a85.8 85.8 0 0 1 42.7-10 77 77 0 0 1 43.6 11 4.4 4.4 0 0 1 2.4 4.3 86.5 86.5 0 0 1-39.8 72l-4.5 3a3.6 3.6 0 0 1-4 0 92.8 92.8 0 0 1-26.4-22.7 85.5 85.5 0 0 1-16.8-38.6C89.9 28.9 89 23.5 89 21" transform="translate(-19.7 -.8)" style="fill:#6ba8fa"/><path data-name="Path 26618" d="M97.3 85.8a.4.4 0 0 1-.2-.1 93.3 93.3 0 0 1-15.3-15.3.4.4 0 0 1 .6-.5A92.5 92.5 0 0 0 97.6 85a.4.4 0 0 1-.3.7"/><path data-name="Path 26619" d="M121.7 87.5a.4.4 0 0 1-.2-.7A85.9 85.9 0 0 0 161.1 15a4 4 0 0 0-2.2-4c-13.5-7.9-38-14-65.7-7.5a.4.4 0 0 1-.2-.7c28-6.6 52.6-.4 66.3 7.6A4.7 4.7 0 0 1 162 15a86.6 86.6 0 0 1-40 72.4.4.4 0 0 1-.2 0"/><path data-name="Path 26620" d="M147.3 71.4 171.5 20h11.9l-24.5 51.6z" transform="translate(-32.6 -4.4)" style="fill:#fff"/><path data-name="Path 26621" d="M109.9 70.4a.6.6 0 0 1-.5-.3L82.5 32a.6.6 0 0 1 .5-.9h13.1a.6.6 0 0 1 .5.3l14.8 21.5a.6.6 0 1 1-1 .7L95.8 32.2H84.1l25.7 36.5L135 17.4a.6.6 0 0 1 .6-.4H147a.6.6 0 0 1 .5.9l-22.7 47a.6.6 0 0 1-1-.5L146 18.2H136l-25.5 51.9a.6.6 0 0 1-.5.3"/><path data-name="Path 26622" d="m110.4 42.5 9 .2L137.1 68l-3.2 7z" transform="translate(-24.4 -9.4)" style="fill:#fff"/><path data-name="Path 26623" d="M51.6 8.8v9.1a1.3 1.3 0 0 1-.7 1.1L43 23.6a1.3 1.3 0 0 1-1.3 0L33.8 19a1.3 1.3 0 0 1-.6-1V8.7a1.3 1.3 0 0 1 .6-1.1l8-4.6A1.3 1.3 0 0 1 43 3l8 4.6a1.3 1.3 0 0 1 .6 1" transform="translate(-7.3 -.6)" style="fill:#ffd834"/><path data-name="Path 26624" d="M42.3 24a1.7 1.7 0 0 1-.9-.2l-7.9-4.5a1.7 1.7 0 0 1-.8-1.5V8.7a1.7 1.7 0 0 1 .8-1.5l8-4.6a1.7 1.7 0 0 1 1.6 0l8 4.6a1.7 1.7 0 0 1 .8 1.5v9.1a1.7 1.7 0 0 1-.9 1.5l-7.9 4.5a1.7 1.7 0 0 1-.8.3m0-20.9a.9.9 0 0 0-.5.1L34 8a.9.9 0 0 0-.4.8v9.1a.9.9 0 0 0 .4.8l8 4.6a.9.9 0 0 0 .8 0l8-4.6a.9.9 0 0 0 .4-.8V8.7a.9.9 0 0 0-.5-.8l-7.9-4.6a.9.9 0 0 0-.4-.1" transform="translate(-7.2 -.5)" style="fill:#fff"/><path data-name="Path 26625" d="M160.9 124.3v5.2a1.3 1.3 0 0 1-.7 1l-4.5 2.6a1.3 1.3 0 0 1-1.2 0l-4.5-2.5a1.3 1.3 0 0 1-.7-1.1v-5.2a1.3 1.3 0 0 1 .7-1.1l4.5-2.6a1.3 1.3 0 0 1 1.2 0l4.5 2.6a1.3 1.3 0 0 1 .7 1"/><path data-name="Path 26626" d="M83.3 70.5v9.1a1.3 1.3 0 0 1-.6 1.1l-8 4.6a1.3 1.3 0 0 1-1.2 0l-8-4.6a1.3 1.3 0 0 1-.6-1v-9.2a1.3 1.3 0 0 1 .6-1.1l8-4.6a1.3 1.3 0 0 1 1.2 0l8 4.6a1.3 1.3 0 0 1 .6 1" transform="translate(-14.4 -14.3)" style="fill:#fff"/><path data-name="Path 26627" d="M74 85.8a1.7 1.7 0 0 1-.8-.3l-8-4.5a1.7 1.7 0 0 1-.8-1.5v-9.1a1.7 1.7 0 0 1 .8-1.5l8-4.6a1.7 1.7 0 0 1 1.6 0l8 4.6a1.7 1.7 0 0 1 .8 1.5v9.1a1.7 1.7 0 0 1-.8 1.5l-8 4.5a1.7 1.7 0 0 1-.8.3m0-21a.9.9 0 0 0-.4.2l-8 4.6a.9.9 0 0 0-.4.8v9.1a.9.9 0 0 0 .4.8l8 4.6a.9.9 0 0 0 .8 0l8-4.6a.9.9 0 0 0 .4-.8v-9.1a.9.9 0 0 0-.4-.8l-8-4.6a.9.9 0 0 0-.4-.1" transform="translate(-14.3 -14.2)" style="fill:#fff"/><path data-name="Path 26628" d="M21.1 41.8v10.5a1.3 1.3 0 0 1-.6 1l-9 5.3a1.3 1.3 0 0 1-1.3 0l-9-5.2a1.3 1.3 0 0 1-.7-1.1V41.8a1.3 1.3 0 0 1 .6-1l9-5.3a1.3 1.3 0 0 1 1.4 0l9 5.2a1.3 1.3 0 0 1 .6 1.1" transform="translate(-.1 -7.8)" style="fill:#ffd834"/><path data-name="Path 26629" d="M10.7 59a1.7 1.7 0 0 1-.8-.2l-9-5.2a1.7 1.7 0 0 1-.9-1.4V41.7a1.7 1.7 0 0 1 .8-1.4l9-5.2a1.7 1.7 0 0 1 1.7 0l9 5.2a1.7 1.7 0 0 1 1 1.4v10.5a1.7 1.7 0 0 1-1 1.4l-9 5.2a1.7 1.7 0 0 1-.8.3m0-23.5a.9.9 0 0 0-.4.1l-9 5.2a.9.9 0 0 0-.5.8v10.5a.9.9 0 0 0 .4.7l9 5.3a.9.9 0 0 0 1 0l9-5.3a.9.9 0 0 0 .4-.7V41.7a.9.9 0 0 0-.4-.8l-9-5.2a.9.9 0 0 0-.5 0" transform="translate(0 -7.7)" style="fill:#fff"/><path data-name="Path 26630" d="M52.4 28.1v7a1.3 1.3 0 0 1-.6 1l-6 3.6a1.3 1.3 0 0 1-1.3 0l-6-3.5a1.3 1.3 0 0 1-.7-1.1v-7a1.3 1.3 0 0 1 .6-1.1l6-3.5a1.3 1.3 0 0 1 1.4 0l6 3.5a1.3 1.3 0 0 1 .6 1.1"/><path data-name="Path 26631" d="M12 135.5a7.8 7.8 0 0 1-7.7-7.8v-.3a.6.6 0 0 1 .6-.6.6.6 0 0 1 .5.6v.3a6.6 6.6 0 0 0 6.6 6.6h126.8a6.6 6.6 0 0 0 6.6-6.3l2-47a.6.6 0 0 1 .6-.5.6.6 0 0 1 .6.6l-2 47a7.7 7.7 0 0 1-7.8 7.4H12z"/><path data-name="Path 26632" d="M36.2 109.9H19.5a1.7 1.7 0 0 1-1.2-.6 2 2 0 0 1-.5-1.4l.2-3.9a2 2 0 0 1 2-1.9h15.2a.4.4 0 1 1 0 .8H20a1.3 1.3 0 0 0-1.2 1.2l-.3 3.8a1.2 1.2 0 0 0 .3 1 .9.9 0 0 0 .7.2h16.7a.4.4 0 1 1 0 .8"/><path data-name="Path 26633" d="M40.3 109.9h-1.4a.4.4 0 0 1 0-.8h1.4a.4.4 0 1 1 0 .8"/><path data-name="Path 26634" d="M133.7 109.9H45a.4.4 0 1 1 0-.8h88.8a1.3 1.3 0 0 0 1.2-1.2l.2-3.9a1.2 1.2 0 0 0-.2-.8.9.9 0 0 0-.7-.3h-20a.4.4 0 1 1 0-.8h20a1.7 1.7 0 0 1 1.2.5 2 2 0 0 1 .5 1.5l-.3 3.8a2 2 0 0 1-1.9 2"/><path data-name="Path 26635" d="M108.4 102.9h-24a.4.4 0 1 1 0-.8h24a.4.4 0 0 1 0 .8"/><path data-name="Path 26636" d="M80.6 102.9h-2.1a.4.4 0 0 1 0-.8h2.1a.4.4 0 1 1 0 .8"/><path data-name="Path 26637" d="M72 102.9H42a.4.4 0 1 1 0-.8h30a.4.4 0 1 1 0 .8"/><path data-name="Path 26638" d="M171.2 155.7a7.6 7.6 0 1 1-7.6-7.6 7.6 7.6 0 0 1 7.6 7.6" transform="translate(-34.5 -32.8)" style="fill:#fff"/><path data-name="Path 26639" d="M117.5 130.9a8.3 8.3 0 1 1 7.2-12.3.4.4 0 1 1-.6.3 7.5 7.5 0 1 0 .7 1.7.4.4 0 1 1 .7-.2 8.3 8.3 0 0 1-8 10.5"/><path data-name="Path 26640" d="M122.3 127.9a.4.4 0 0 1-.3-.2 8.3 8.3 0 0 1-.5-9.5.4.4 0 1 1 .6.4 7.5 7.5 0 0 0 .5 8.7.4.4 0 0 1-.3.6"/><path data-name="Path 26641" d="M128.5 130.9a8.3 8.3 0 0 1-4-1 .4.4 0 0 1 .3-.7 7.5 7.5 0 1 0-.6-12.7.4.4 0 1 1-.4-.7 8.3 8.3 0 1 1 4.7 15.1"/></g></svg>