<svg width="80" height="80" viewBox="0 0 80 80" fill="none" xmlns="http://www.w3.org/2000/svg">
<path d="M25.38 30.76C31.1127 30.76 35.76 26.1127 35.76 20.38C35.76 14.6473 31.1127 10 25.38 10C19.6473 10 15 14.6473 15 20.38C15 26.1127 19.6473 30.76 25.38 30.76Z" fill="#F8D12E"/>
<path d="M50.77 71H30.23C27.42 71 25.13 68.71 25.13 65.91V24.09C25.13 21.28 27.42 19 30.23 19H50.77C53.58 19 55.87 21.29 55.87 24.09V65.91C55.87 68.72 53.58 71 50.77 71ZM30.23 21C28.52 21 27.13 22.39 27.13 24.09V65.91C27.13 67.62 28.52 69 30.23 69H50.77C52.45 69 53.82 67.66 53.86 65.99H30.74C30.19 65.99 29.74 65.54 29.74 64.99C29.74 64.44 30.19 63.99 30.74 63.99H53.87V24.09C53.87 22.38 52.48 21 50.77 21H30.23ZM67.26 57.69C67 57.69 66.75 57.59 66.55 57.4C66.16 57.01 66.16 56.38 66.55 55.99C68.77 53.77 70 50.82 70 47.67C70 44.52 68.78 41.57 66.55 39.35C66.16 38.96 66.16 38.33 66.55 37.94C66.94 37.55 67.57 37.55 67.96 37.94C70.56 40.54 71.99 44 71.99 47.67C71.99 51.34 70.56 54.8 67.96 57.4C67.76 57.6 67.51 57.69 67.25 57.69H67.26ZM13.74 57.69C13.48 57.69 13.23 57.59 13.03 57.4C10.43 54.8 9 51.35 9 47.67C9 43.99 10.43 40.54 13.03 37.94C13.42 37.55 14.05 37.55 14.44 37.94C14.83 38.33 14.83 38.96 14.44 39.35C12.22 41.57 10.99 44.52 10.99 47.67C10.99 50.82 12.21 53.77 14.44 55.99C14.83 56.38 14.83 57.01 14.44 57.4C14.24 57.6 13.99 57.69 13.73 57.69H13.74ZM45.48 56.09C41.64 56.09 37.58 53.31 34.85 50.41C31.66 47.02 28.75 41.93 30.07 37.7C30.49 36.36 31.18 35.47 32.39 34.71L33.28 34.2C34.23 33.67 35.41 33.98 35.98 34.89L38.63 39.19C39.2 40.13 38.93 41.33 38.01 41.94L37.01 42.59C36.86 42.68 36.73 42.8 36.64 42.94C36.49 43.15 36.03 43.8 38.76 46.69C41.52 49.6 42.2 49.17 42.42 49.03C42.56 48.94 42.69 48.82 42.78 48.69L43.47 47.73C44.12 46.84 45.34 46.64 46.25 47.26L50.39 50.14C50.45 50.18 50.5 50.22 50.54 50.27C51.29 50.91 51.47 52.02 50.94 52.88L50.41 53.71C49.52 54.94 48.62 55.56 47.25 55.9C46.67 56.04 46.08 56.11 45.48 56.11V56.09ZM34.28 35.94L33.41 36.42C32.64 36.91 32.25 37.41 31.97 38.3C30.91 41.71 33.63 46.21 36.27 49.02C38.94 51.84 43.27 54.81 46.76 53.94C47.77 53.69 48.25 53.25 48.74 52.57L49.23 51.8C49.17 51.76 49.12 51.72 49.08 51.67L45.1 48.9L44.39 49.86C44.15 50.2 43.83 50.5 43.47 50.72C41.46 51.99 39.33 50.21 37.32 48.09C35.29 45.94 33.62 43.71 35.01 41.77C35.26 41.43 35.58 41.13 35.93 40.9L36.92 40.26L34.28 35.95V35.94ZM17.57 53.84C17.31 53.84 17.06 53.74 16.86 53.55C15.28 51.98 14.42 49.88 14.42 47.66C14.42 45.44 15.29 43.34 16.86 41.77C17.25 41.38 17.88 41.38 18.27 41.77C18.66 42.16 18.66 42.79 18.27 43.18C17.07 44.38 16.41 45.97 16.41 47.66C16.41 49.35 17.07 50.94 18.27 52.14C18.66 52.53 18.66 53.16 18.27 53.55C18.07 53.75 17.82 53.84 17.56 53.84H17.57ZM63.41 53.84C63.15 53.84 62.9 53.74 62.7 53.55C62.31 53.16 62.31 52.53 62.7 52.14C63.9 50.94 64.56 49.35 64.56 47.66C64.56 45.97 63.9 44.38 62.7 43.18C62.31 42.79 62.31 42.16 62.7 41.77C63.09 41.38 63.72 41.38 64.11 41.77C65.68 43.34 66.55 45.44 66.55 47.66C66.55 49.88 65.68 51.98 64.11 53.55C63.91 53.75 63.66 53.84 63.4 53.84H63.41ZM43.84 26.01H37.15C36.6 26.01 36.15 25.56 36.15 25.01C36.15 24.46 36.6 24.01 37.15 24.01H43.84C44.39 24.01 44.84 24.46 44.84 25.01C44.84 25.56 44.39 26.01 43.84 26.01Z" fill="#0A317C"/>
</svg>
