<svg width="80" height="80" viewBox="0 0 80 80" fill="none" xmlns="http://www.w3.org/2000/svg">
<path d="M55.38 71.76C61.1127 71.76 65.76 67.1127 65.76 61.38C65.76 55.6473 61.1127 51 55.38 51C49.6473 51 45 55.6473 45 61.38C45 67.1127 49.6473 71.76 55.38 71.76Z" fill="#F8D12E"/>
<path fill-rule="evenodd" clip-rule="evenodd" d="M24.3971 8C24.9494 8 25.3971 8.44772 25.3971 9V16.2793C25.3971 16.8316 24.9494 17.2793 24.3971 17.2793C23.8449 17.2793 23.3971 16.8316 23.3971 16.2793V9C23.3971 8.44772 23.8449 8 24.3971 8ZM55.6029 8C56.1551 8 56.6029 8.44772 56.6029 9V16.2793C56.6029 16.8316 56.1551 17.2793 55.6029 17.2793C55.0506 17.2793 54.6029 16.8316 54.6029 16.2793V9C54.6029 8.44772 55.0506 8 55.6029 8ZM9 23.5731C9 23.0208 9.44772 22.5731 10 22.5731H17.1914C17.7437 22.5731 18.1914 23.0208 18.1914 23.5731C18.1914 24.1254 17.7437 24.5731 17.1914 24.5731H10C9.44772 24.5731 9 24.1254 9 23.5731ZM23.6119 22.9539C23.8015 22.7134 24.0909 22.5731 24.3971 22.5731H39.9926C39.9928 22.5731 39.993 22.5731 39.9932 22.5731H55.6029C55.9091 22.5731 56.1985 22.7134 56.3881 22.9539L68.2312 37.9747C68.5369 38.3625 68.5138 38.9154 68.1769 39.2763L40.7238 68.6824C40.5347 68.885 40.2699 69 39.9927 69C39.7156 69 39.4508 68.8849 39.2617 68.6822L11.823 39.2761C11.4862 38.9152 11.4632 38.3624 11.7688 37.9747L23.6119 22.9539ZM38.0164 24.5731H25.7451L29.3266 36.392L38.0164 24.5731ZM27.6009 37.5939L23.9959 25.6971L14.616 37.5939H27.6009ZM14.8549 39.5939L37.2838 63.6309L28.2562 39.5939H14.8549ZM30.3926 39.5939L39.9935 65.1574L49.6067 39.5939H30.3926ZM51.7435 39.5939L42.7046 63.63L65.1443 39.5939H51.7435ZM65.384 37.5939H52.3991L56.0041 25.6971L65.384 37.5939ZM54.2549 24.5731H41.9708L50.673 36.3935L54.2549 24.5731ZM49.0732 37.5939L39.9934 25.2605L30.9253 37.5939H49.0732ZM61.8086 23.5731C61.8086 23.0208 62.2563 22.5731 62.8086 22.5731H70C70.5523 22.5731 71 23.0208 71 23.5731C71 24.1254 70.5523 24.5731 70 24.5731H62.8086C62.2563 24.5731 61.8086 24.1254 61.8086 23.5731Z" fill="#0A317C"/>
</svg>
