<svg width="80" height="80" viewBox="0 0 80 80" fill="none" xmlns="http://www.w3.org/2000/svg">
<path d="M23.38 67.1206C29.1127 67.1206 33.76 62.4733 33.76 56.7406C33.76 51.0079 29.1127 46.3606 23.38 46.3606C17.6473 46.3606 13 51.0079 13 56.7406C13 62.4733 17.6473 67.1206 23.38 67.1206Z" fill="#F8D12E"/>
<path d="M66.0008 20.0205C59.3608 20.0205 45.0908 13.2605 43.0808 10.4205C42.9883 10.2905 42.8661 10.1845 42.7243 10.1113C42.5826 10.0382 42.4253 10 42.2658 10C42.1062 10 41.949 10.0382 41.8072 10.1113C41.6654 10.1845 41.5432 10.2905 41.4508 10.4205C39.3608 13.4205 24.4508 19.9705 18.5508 19.9705C18.2856 19.9705 18.0312 20.0759 17.8437 20.2634C17.6561 20.451 17.5508 20.7053 17.5508 20.9705V44.6705C17.5508 56.4905 40.7308 69.0205 42.0008 69.3205C42.1718 69.3606 42.3498 69.3606 42.5208 69.3205C44.0136 68.6474 45.4513 67.8583 46.8208 66.9605C46.9386 66.8946 47.0418 66.8056 47.1243 66.6988C47.2067 66.5919 47.2667 66.4695 47.3006 66.3388C47.3345 66.2082 47.3416 66.072 47.3214 65.9386C47.3013 65.8051 47.2543 65.6771 47.1834 65.5623C47.1125 65.4475 47.0191 65.3482 46.9087 65.2704C46.7984 65.1927 46.6735 65.138 46.5415 65.1098C46.4095 65.0816 46.2732 65.0805 46.1407 65.1064C46.0083 65.1323 45.8824 65.1847 45.7708 65.2605C44.0208 66.3305 42.7708 67.0105 42.2608 67.2605C38.0697 65.1096 34.0948 62.5613 30.3908 59.6505C25.4408 55.7905 19.5508 50.0205 19.5508 44.6705V21.9205C25.6908 21.3505 38.3408 16.0205 42.2608 12.4705C46.0808 16.0205 58.2808 21.4005 65.0008 21.9305V45.9305C65.0008 48.7305 62.3708 52.5105 57.4008 56.8605C57.215 57.039 57.1052 57.2824 57.0944 57.5398C57.0836 57.7973 57.1726 58.0489 57.3428 58.2424C57.513 58.4358 57.7513 58.5561 58.0081 58.5781C58.2648 58.6001 58.5201 58.5222 58.7208 58.3605C64.2108 53.5605 67.0008 49.3605 67.0008 45.9305V21.0205C67.0008 20.7553 66.8954 20.501 66.7079 20.3134C66.5204 20.1259 66.266 20.0205 66.0008 20.0205Z" fill="#0A317C"/>
<path d="M40.9991 42.0206V40.1906L40.8791 40.1206C40.6569 39.8981 40.5057 39.6148 40.4445 39.3064C40.3833 38.9981 40.4149 38.6785 40.5353 38.3881C40.6557 38.0976 40.8595 37.8494 41.1209 37.6748C41.3823 37.5002 41.6897 37.407 42.0041 37.407C42.3185 37.407 42.6258 37.5002 42.8872 37.6748C43.1486 37.8494 43.3524 38.0976 43.4728 38.3881C43.5932 38.6785 43.6248 38.9981 43.5637 39.3064C43.5025 39.6148 43.3512 39.8981 43.1291 40.1206L42.9991 40.2206V42.0206C42.9991 42.2858 42.8937 42.5402 42.7062 42.7277C42.5186 42.9152 42.2643 43.0206 41.9991 43.0206C41.7338 43.0206 41.4795 42.9152 41.292 42.7277C41.1044 42.5402 40.9991 42.2858 40.9991 42.0206Z" fill="#0A317C"/>
<path fill-rule="evenodd" clip-rule="evenodd" d="M39.0709 26.1215C39.9143 25.2781 41.0573 24.8032 42.25 24.8005C43.4427 24.8032 44.5857 25.2781 45.4291 26.1215C46.2724 26.9648 46.7474 28.1079 46.75 29.3005V31.8005H50.75C51.0152 31.8005 51.2696 31.9059 51.4571 32.0934C51.6446 32.281 51.75 32.5353 51.75 32.8005V45.8005C51.75 46.5962 51.4339 47.3592 50.8713 47.9219C50.3087 48.4845 49.5456 48.8005 48.75 48.8005H35.75C34.9544 48.8005 34.1913 48.4845 33.6287 47.9219C33.0661 47.3592 32.75 46.5962 32.75 45.8005V32.8005C32.75 32.5353 32.8554 32.281 33.0429 32.0934C33.2304 31.9059 33.4848 31.8005 33.75 31.8005H37.75V29.3005C37.7526 28.1079 38.2276 26.9648 39.0709 26.1215ZM40.4822 27.5328C40.0134 28.0016 39.75 28.6375 39.75 29.3005V31.8005H44.75V29.3005C44.75 28.6375 44.4866 28.0016 44.0178 27.5328C43.5489 27.0639 42.913 26.8005 42.25 26.8005C41.587 26.8005 40.9511 27.0639 40.4822 27.5328ZM49.4571 46.5076C49.6446 46.3201 49.75 46.0658 49.75 45.8005V33.8005H34.75V45.8005C34.75 46.0658 34.8554 46.3201 35.0429 46.5076C35.2304 46.6952 35.4848 46.8005 35.75 46.8005H48.75C49.0152 46.8005 49.2696 46.6952 49.4571 46.5076Z" fill="#0A317C"/>
<path d="M50.5097 62.1406C51.3497 61.5606 52.2097 60.9406 53.0697 60.3006C53.2819 60.1415 53.5486 60.0731 53.8111 60.1106C54.0737 60.1481 54.3106 60.2884 54.4697 60.5006C54.6288 60.7128 54.6972 60.9795 54.6597 61.242C54.6222 61.5046 54.4819 61.7415 54.2697 61.9006C53.3897 62.5606 52.5097 63.1906 51.6597 63.7806C51.4925 63.8973 51.2936 63.9601 51.0897 63.9606C50.8763 63.9622 50.6679 63.8955 50.4951 63.7702C50.3223 63.6449 50.1941 63.4676 50.1292 63.2643C50.0644 63.0609 50.0664 62.8421 50.1349 62.6399C50.2033 62.4377 50.3347 62.2628 50.5097 62.1406Z" fill="#0A317C"/>
</svg>
