<svg id="Component_3_1" data-name="Component 3 – 1" xmlns="http://www.w3.org/2000/svg" width="221.955" height="83.048" viewBox="0 0 221.955 83.048">
  <g id="Group_11860" data-name="Group 11860" transform="translate(-203.902 -155.155)" opacity="0.749">
    <g id="Group_11740" data-name="Group 11740" transform="translate(274.318 155.155)">
      <g id="Group_11704" data-name="Group 11704" transform="translate(30.56 44.756)">
        <rect id="Rectangle_4675" data-name="Rectangle 4675" width="6.43" height="14.635" rx="2.735" fill="#ce3838"/>
      </g>
      <g id="Group_11705" data-name="Group 11705" transform="translate(23.09 37.621)">
        <path id="Path_21063" data-name="Path 21063" d="M339.158,210.7s.045.38.06,1.058a10.677,10.677,0,0,0,.261,1.652l3.371-1.016-.306-1.4-.877-.6-.225-.811Z" transform="translate(-339.158 -209.573)" fill="#ffa788"/>
      </g>
      <g id="Group_11706" data-name="Group 11706" transform="translate(21.574 40.245)">
        <path id="Path_21064" data-name="Path 21064" d="M345.95,218.38a.346.346,0,0,1-.346-.346,3.974,3.974,0,1,0-7.948,0,.346.346,0,1,1-.691,0,4.665,4.665,0,1,1,9.331,0A.345.345,0,0,1,345.95,218.38Z" transform="translate(-336.965 -213.369)" fill="#00030e"/>
      </g>
      <g id="Group_11707" data-name="Group 11707" transform="translate(15.49 44.831)">
        <rect id="Rectangle_4676" data-name="Rectangle 4676" width="19.747" height="14.485" rx="2.696" fill="#ff4b48"/>
      </g>
      <g id="Group_11708" data-name="Group 11708" transform="translate(25.726 38.832)">
        <path id="Rectangle_4677" data-name="Rectangle 4677" d="M0,0H.773a0,0,0,0,1,0,0V2.086a0,0,0,0,1,0,0h0A.773.773,0,0,1,0,1.312V0A0,0,0,0,1,0,0Z" transform="matrix(0.624, -0.782, 0.782, 0.624, 0, 0.605)" fill="#ffa788"/>
      </g>
      <g id="Group_11709" data-name="Group 11709" transform="translate(21.574 46.831)">
        <path id="Path_21065" data-name="Path 21065" d="M337.311,233.381a.346.346,0,0,1-.346-.346v-9.795a.346.346,0,0,1,.691,0v9.795A.345.345,0,0,1,337.311,233.381Z" transform="translate(-336.965 -222.895)" fill="#00030e"/>
      </g>
      <g id="Group_11710" data-name="Group 11710" transform="translate(17.935 71.703)">
        <path id="Path_21066" data-name="Path 21066" d="M331.7,259.721l1.162,7.842,2.575-.534.259-8.156Z" transform="translate(-331.7 -258.872)" fill="#ffa788"/>
      </g>
      <g id="Group_11711" data-name="Group 11711" transform="translate(3.617 71.181)">
        <path id="Path_21067" data-name="Path 21067" d="M310.99,258.433l.122,7.926,2.623-.191,1.328-8.051Z" transform="translate(-310.99 -258.117)" fill="#ffa788"/>
      </g>
      <g id="Group_11712" data-name="Group 11712" transform="translate(12.915 38.569)">
        <path id="Path_21068" data-name="Path 21068" d="M329.777,210.944s3.374,17.282,3.742,18.57.469,19.6.469,19.6-4.775.62-4.792.548c-1.625-6.926-2.057-10.772-1.968-12.248.1-1.668.237-4.263.156-4.76-.123-.744-2.945-8.6-2.945-8.6l.36-12.895Z" transform="translate(-324.439 -210.944)" fill="#0f2751"/>
      </g>
      <g id="Group_11713" data-name="Group 11713" transform="translate(2.687 37.849)">
        <path id="Path_21069" data-name="Path 21069" d="M313.543,209.9a27.9,27.9,0,0,0-.4,6.194c.073.962.352,1.939.37,2.894.017.9-.068,1.851-.078,2.765-.019,1.832-.039,3.664-.08,5.5a14.282,14.282,0,0,1-.124,2.74,32.622,32.622,0,0,1-1.427,3.489c-1.1,2.458-2.11,14.859-2.157,15.38,1.206.011,3.3-.07,4.5-.057,0,0,3.905-15.325,4.494-16.732s3.082-13.206,3.653-14.709,2.615-6.191,2.615-6.191l-5.342-.606A51.858,51.858,0,0,0,313.543,209.9Z" transform="translate(-309.645 -209.903)" fill="#0f2751"/>
      </g>
      <g id="Group_11714" data-name="Group 11714" transform="translate(17.802 16.13)">
        <path id="Path_21070" data-name="Path 21070" d="M336.41,201.626l3.526-1.067s-4.405-10.029-4.489-10.5-1.506-11.568-1.506-11.568L331.508,195.1Z" transform="translate(-331.508 -178.487)" fill="#274fd3"/>
      </g>
      <g id="Group_11715" data-name="Group 11715" transform="translate(4.487 12.151)">
        <path id="Path_21071" data-name="Path 21071" d="M312.782,175.572c-.641.89.922.986.66,1.873-1.09,3.681.106,7.058-.164,10.887-.274,3.869.29,8.516-1.029,12.164,4.5,1.8,14.227,1.769,14.207,1.183-.56-16.86,2.863-17,1.542-24.969-.207-1.246-3.457-2.857-4.671-3.2C320.17,172.607,315.553,171.727,312.782,175.572Z" transform="translate(-312.248 -172.731)" fill="#274fd3"/>
      </g>
      <g id="Group_11716" data-name="Group 11716" transform="translate(7.988 2.615)">
        <path id="Path_21072" data-name="Path 21072" d="M324.117,164.662c.54-.095.766-1.223.709-1.777a1.054,1.054,0,0,0-1.157-.94l-.067.006-.023-.221a3.141,3.141,0,0,0-6.263.406,12.031,12.031,0,0,0,.109,2.017c.281,1.415,1.336,3.741,2.743,2.611l.146.906-.033,1.424,4.608,2.745-.27-3.76Z" transform="translate(-317.313 -158.937)" fill="#ffa788"/>
      </g>
      <g id="Group_11722" data-name="Group 11722" transform="translate(3.381 38.534)">
        <g id="Group_11717" data-name="Group 11717">
          <path id="Path_21073" data-name="Path 21073" d="M313.314,211.24l.06,1.7-2.726-.092.056-1.956Z" transform="translate(-310.649 -210.894)" fill="#ffa788"/>
        </g>
        <g id="Group_11718" data-name="Group 11718" transform="translate(2.282 3.998)">
          <path id="Path_21074" data-name="Path 21074" d="M314.641,216.681a.384.384,0,0,1,.436.324l.267,1.813c0,.009,0,.017,0,.027a.407.407,0,0,1,0,.076.391.391,0,0,1-.01.064c0,.01,0,.02,0,.03l-.63,1.721a.384.384,0,0,1-.72-.263l.6-1.634-.254-1.723A.383.383,0,0,1,314.641,216.681Z" transform="translate(-313.95 -216.677)" fill="#ffa788"/>
        </g>
        <g id="Group_11719" data-name="Group 11719" transform="translate(1.775 4.061)">
          <path id="Path_21075" data-name="Path 21075" d="M313.754,216.775a.382.382,0,0,1,.447.306l.338,1.8c0,.01,0,.018,0,.027a.4.4,0,0,1,0,.076.407.407,0,0,1-.007.065c0,.01,0,.019,0,.029l-.562,1.745a.383.383,0,1,1-.73-.235l.533-1.656-.321-1.711A.383.383,0,0,1,313.754,216.775Z" transform="translate(-313.217 -216.768)" fill="#ffa788"/>
        </g>
        <g id="Group_11720" data-name="Group 11720" transform="translate(1.243 3.402)">
          <path id="Path_21076" data-name="Path 21076" d="M312.983,215.822a.384.384,0,0,1,.448.306l.338,1.8c0,.009,0,.017,0,.027a.4.4,0,0,1,0,.076.409.409,0,0,1-.008.064.233.233,0,0,1,0,.03l-.561,1.744a.383.383,0,0,1-.73-.235L313,217.98l-.321-1.711A.383.383,0,0,1,312.983,215.822Z" transform="translate(-312.447 -215.815)" fill="#ffa788"/>
        </g>
        <g id="Group_11721" data-name="Group 11721" transform="translate(0 1.956)">
          <path id="Path_21077" data-name="Path 21077" d="M314.151,216.726l-.13-.73-.653-2.253-2.719-.019,1.659,2.891,1.38.162Z" transform="translate(-310.649 -213.724)" fill="#ffa788"/>
        </g>
      </g>
      <g id="Group_11723" data-name="Group 11723" transform="translate(0 14.476)">
        <path id="Path_21078" data-name="Path 21078" d="M311.293,176.237c-1.982,1.887-4.862,9.647-5.443,12.382-.613,2.89,2.039,14.624,2.039,14.624l4.1-.769-.592-12.281,4.422-9.818S312.4,175.179,311.293,176.237Z" transform="translate(-305.758 -176.094)" fill="#274fd3"/>
      </g>
      <g id="Group_11724" data-name="Group 11724" transform="translate(30.228 46.831)">
        <path id="Path_21079" data-name="Path 21079" d="M349.829,233.381a.345.345,0,0,1-.346-.346v-9.795a.346.346,0,1,1,.691,0v9.795A.346.346,0,0,1,349.829,233.381Z" transform="translate(-349.483 -222.895)" fill="#00030e"/>
      </g>
      <g id="Group_11725" data-name="Group 11725" transform="translate(22.039 49.389)">
        <path id="Path_21080" data-name="Path 21080" d="M345.693,227.286h-7.71a.346.346,0,0,1,0-.691h7.71a.346.346,0,0,1,0,.691Z" transform="translate(-337.637 -226.595)" fill="#00030e"/>
      </g>
      <g id="Group_11726" data-name="Group 11726" transform="translate(23.583 40.821)">
        <rect id="Rectangle_4678" data-name="Rectangle 4678" width="0.932" height="2.086" rx="0.466" transform="matrix(0.968, -0.249, 0.249, 0.968, 0, 0.232)" fill="#ffa788"/>
      </g>
      <g id="Group_11727" data-name="Group 11727" transform="translate(24.365 40.118)">
        <rect id="Rectangle_4679" data-name="Rectangle 4679" width="0.932" height="2.572" rx="0.466" transform="translate(0 0.232) rotate(-14.422)" fill="#ffa788"/>
      </g>
      <g id="Group_11728" data-name="Group 11728" transform="translate(25.254 39.889)">
        <rect id="Rectangle_4680" data-name="Rectangle 4680" width="0.932" height="2.572" rx="0.466" transform="matrix(0.968, -0.249, 0.249, 0.968, 0, 0.232)" fill="#ffa788"/>
      </g>
      <g id="Group_11729" data-name="Group 11729" transform="translate(26.291 40.125)">
        <rect id="Rectangle_4681" data-name="Rectangle 4681" width="0.932" height="2.086" rx="0.466" transform="matrix(0.968, -0.249, 0.249, 0.968, 0, 0.232)" fill="#ffa788"/>
      </g>
      <g id="Group_11730" data-name="Group 11730" transform="translate(2.46 78.916)">
        <path id="Path_21081" data-name="Path 21081" d="M310.587,269.306s-1.573,2.671-1.219,3.187,9.247.515,9.247.515.315-.992-2.164-1.56a5.028,5.028,0,0,1-3.233-1.826Z" transform="translate(-309.316 -269.306)" fill="#0f2751"/>
      </g>
      <g id="Group_11731" data-name="Group 11731" transform="translate(18.081 79.267)">
        <path id="Path_21082" data-name="Path 21082" d="M332.761,269.814s-1.168,2.819-.764,3.3,9.251-.426,9.251-.426.213-1.019-2.311-1.333a5.028,5.028,0,0,1-3.4-1.488Z" transform="translate(-331.912 -269.814)" fill="#0f2751"/>
      </g>
      <g id="Group_11732" data-name="Group 11732" transform="translate(6.747)">
        <path id="Path_21083" data-name="Path 21083" d="M317.008,159.793c.9.3,2.284-1.413,3.564-.088s1.557,2.119,1.864,1.976.8-1.03,1.3-.383-.265,1.67-.265,1.67l.18,1.1a2.863,2.863,0,0,0,2.012-1.932c.31-1.494-.546-1.52-.546-1.52a2.16,2.16,0,0,0,.6-1.86.853.853,0,0,0-1.224-.516s-.16-2.124-1.432-2.612c-1.551-.594-2.006.4-2.006.4a2.3,2.3,0,0,0-2.148-.856,2.744,2.744,0,0,0-2.048,1.654s-1.057-.458-1.328.485A3.442,3.442,0,0,0,317.008,159.793Z" transform="translate(-315.517 -155.155)" fill="#0f2751"/>
      </g>
      <g id="Group_11733" data-name="Group 11733" transform="translate(10.225 6.006)">
        <path id="Path_21084" data-name="Path 21084" d="M320.548,164.275a.433.433,0,1,1,.866,0" transform="translate(-320.548 -163.842)" fill="#00030e"/>
      </g>
      <g id="Group_11734" data-name="Group 11734" transform="translate(7.988 6.006)">
        <path id="Path_21085" data-name="Path 21085" d="M317.313,164.275a.433.433,0,1,1,.866,0" transform="translate(-317.313 -163.842)" fill="#00030e"/>
      </g>
      <g id="Group_11735" data-name="Group 11735" transform="translate(8.491 5.898)">
        <path id="Path_21086" data-name="Path 21086" d="M319.024,166.135a2.019,2.019,0,0,1-.792-.216.346.346,0,0,1-.162-.447s.2-.451.283-.718a5.41,5.41,0,0,0,.133-.76.353.353,0,0,1,.381-.306.346.346,0,0,1,.306.382,6.044,6.044,0,0,1-.162.893c-.041.132-.108.3-.168.454a.683.683,0,0,0,.2.028.346.346,0,0,1,.071.688Q319.071,166.135,319.024,166.135Z" transform="translate(-318.04 -163.685)" fill="#ff7f79"/>
      </g>
      <g id="Group_11736" data-name="Group 11736" transform="translate(9.121 8.525)">
        <path id="Path_21087" data-name="Path 21087" d="M319.416,168.372c-.046,0-.095,0-.145,0a.346.346,0,0,1,.05-.689.792.792,0,0,0,.54-.111.35.35,0,0,1,.483.035.34.34,0,0,1-.017.476A1.342,1.342,0,0,1,319.416,168.372Z" transform="translate(-318.951 -167.487)" fill="#ff4b48"/>
      </g>
      <g id="Group_11737" data-name="Group 11737" transform="translate(18.393 24.603)">
        <path id="Path_21088" data-name="Path 21088" d="M332.709,200H332.7a.346.346,0,0,1-.337-.353,35.958,35.958,0,0,1,.346-4.358,35.677,35.677,0,0,0,.33-4.209.364.364,0,0,1,.353-.338.346.346,0,0,1,.338.353,35.494,35.494,0,0,1-.343,4.322,36.167,36.167,0,0,0-.333,4.245A.346.346,0,0,1,332.709,200Z" transform="translate(-332.363 -190.743)" fill="#00030e"/>
      </g>
      <g id="Group_11738" data-name="Group 11738" transform="translate(5.298 19.76)">
        <path id="Path_21089" data-name="Path 21089" d="M314.39,204.7a.344.344,0,0,1-.343-.311c-.041-.407-.991-10-.471-12.309a39.316,39.316,0,0,1,3.291-8.165.346.346,0,0,1,.608.329,39.5,39.5,0,0,0-3.225,7.988c-.494,2.2.475,11.99.485,12.088a.346.346,0,0,1-.31.379Z" transform="translate(-313.421 -183.737)" fill="#00030e"/>
      </g>
      <g id="Group_11739" data-name="Group 11739" transform="translate(13.079 44.963)">
        <path id="Path_21090" data-name="Path 21090" d="M325.022,228.682a.339.339,0,0,1-.082-.01.345.345,0,0,1-.253-.418l1.914-7.8a.346.346,0,0,1,.671.165l-1.914,7.8A.346.346,0,0,1,325.022,228.682Z" transform="translate(-324.676 -220.193)" fill="#00030e"/>
      </g>
    </g>
    <g id="Group_11792" data-name="Group 11792" transform="translate(206.163 160.901)">
      <g id="Group_11773" data-name="Group 11773" transform="translate(22.33 0)">
        <g id="Group_11741" data-name="Group 11741" transform="translate(44.215 23.671)">
          <rect id="Rectangle_4682" data-name="Rectangle 4682" width="3.761" height="7.435" transform="translate(3.86 0) rotate(31.276)" fill="#cfdefb"/>
        </g>
        <g id="Group_11742" data-name="Group 11742" transform="translate(42.343 26.088)">
          <path id="Rectangle_4683" data-name="Rectangle 4683" d="M.606,0H6.349a.606.606,0,0,1,.606.606V4.174a0,0,0,0,1,0,0H0a0,0,0,0,1,0,0V.606A.606.606,0,0,1,.606,0Z" transform="matrix(-0.361, 0.933, -0.933, -0.361, 6.403, 1.507)" fill="#ff4b48"/>
        </g>
        <g id="Group_11749" data-name="Group 11749" transform="translate(39.25 27.951)">
          <g id="Group_11743" data-name="Group 11743">
            <path id="Path_21091" data-name="Path 21091" d="M297.57,203.9l1.595.6-1.134,2.48-1.784-.8Z" transform="translate(-296.247 -203.898)" fill="#ffa788"/>
          </g>
          <g id="Group_11744" data-name="Group 11744" transform="translate(4.805 0.835)">
            <path id="Path_21092" data-name="Path 21092" d="M303.209,205.394a.383.383,0,0,1,.466-.277l1.777.452a.2.2,0,0,1,.024.012.345.345,0,0,1,.068.033.371.371,0,0,1,.055.034c.008.006.018.008.026.015l1.346,1.244a.384.384,0,0,1-.521.563l-1.278-1.181-1.687-.429A.383.383,0,0,1,303.209,205.394Z" transform="translate(-303.197 -205.105)" fill="#ffa788"/>
          </g>
          <g id="Group_11745" data-name="Group 11745" transform="translate(4.599 1.298)">
            <path id="Path_21093" data-name="Path 21093" d="M302.927,206.016a.384.384,0,0,1,.5-.214l1.7.68a.255.255,0,0,1,.023.015.377.377,0,0,1,.064.042.359.359,0,0,1,.05.04c.007.008.017.011.023.019l1.173,1.41a.383.383,0,0,1-.59.49l-1.112-1.337-1.617-.646A.383.383,0,0,1,302.927,206.016Z" transform="translate(-302.899 -205.775)" fill="#ffa788"/>
          </g>
          <g id="Group_11746" data-name="Group 11746" transform="translate(3.905 1.649)">
            <path id="Path_21094" data-name="Path 21094" d="M301.955,206.461a.383.383,0,0,1,.529-.118l1.548.983c.008,0,.012.013.019.019a.391.391,0,0,1,.055.053.4.4,0,0,1,.042.049c.006.008.015.014.019.023l.892,1.6a.383.383,0,1,1-.67.373l-.846-1.52-1.47-.933A.384.384,0,0,1,301.955,206.461Z" transform="translate(-301.896 -206.283)" fill="#ffa788"/>
          </g>
          <g id="Group_11747" data-name="Group 11747" transform="translate(2.872 1.826)">
            <path id="Path_21095" data-name="Path 21095" d="M300.461,206.717a.383.383,0,0,1,.529-.118l1.547.982c.008.006.012.013.02.019a.8.8,0,0,1,.1.1c.006.008.015.013.019.023l.892,1.6a.384.384,0,0,1-.671.373l-.846-1.52-1.47-.934A.383.383,0,0,1,300.461,206.717Z" transform="translate(-300.401 -206.539)" fill="#ffa788"/>
          </g>
          <g id="Group_11748" data-name="Group 11748" transform="translate(1.784 0.578)">
            <path id="Path_21096" data-name="Path 21096" d="M302.946,205.16l-.724-.161-2.331-.265-1.065,2.5,2.291-.094,1.12-.561.577-.974Z" transform="translate(-298.827 -204.733)" fill="#ffa788"/>
          </g>
        </g>
        <g id="Group_11750" data-name="Group 11750" transform="translate(0.171 56.724)">
          <path id="Path_21097" data-name="Path 21097" d="M251.488,245.516a49.3,49.3,0,0,0-8.525,11.4,16.317,16.317,0,0,1-3.243,4.456l3.438,2.364,1.34.709-1.261-3.279,11.457-13.592Z" transform="translate(-239.719 -245.516)" fill="#ffa788"/>
        </g>
        <g id="Group_11751" data-name="Group 11751" transform="translate(31.713 55.443)">
          <path id="Path_21098" data-name="Path 21098" d="M285.345,245.021a49.279,49.279,0,0,0,4.11,13.627,16.327,16.327,0,0,1,1.66,5.255l3.943-1.363,1.366-.657-3.386-.932L288.9,243.663Z" transform="translate(-285.345 -243.663)" fill="#ffa788"/>
        </g>
        <g id="Group_11752" data-name="Group 11752" transform="translate(5.881 31.345)">
          <path id="Path_21099" data-name="Path 21099" d="M258.994,219.106a27.425,27.425,0,0,1-2.312,6.216c-.474.913-8,10.861-8.34,11.394-.293.464-.651.8.014,1.163l6.492,3.559a2.6,2.6,0,0,0,.945.367c.9.1,1.605-.713,2.14-1.44L262,234.828c2.751-3.747,6.411-11.3,6.568-11.024q.452.781.845,1.594a29.052,29.052,0,0,1,1.354,3.323c.386,1.137.711,2.293.993,3.46.27,1.121,1.217,10.284,2.044,10.175a7.576,7.576,0,0,0,1.383-.514l2.422-.823,2.344-.8a20.574,20.574,0,0,0,2.344-.8c-.384-7.721-1.738-14.859-5.419-21.656a25.037,25.037,0,0,1-2.911-8.965c.1.966-10.7.428-11.5.588C259.891,209.9,259.5,216.987,258.994,219.106Z" transform="translate(-247.979 -208.806)" fill="#274fd3"/>
        </g>
        <g id="Group_11753" data-name="Group 11753" transform="translate(22.528 32.646)">
          <path id="Path_21100" data-name="Path 21100" d="M272.88,214.224a1.86,1.86,0,0,1-.592-.084.346.346,0,1,1,.235-.65,2.027,2.027,0,0,0,1.835-.558,4.218,4.218,0,0,0,1.214-1.982.346.346,0,0,1,.671.166,4.9,4.9,0,0,1-1.445,2.35A3,3,0,0,1,272.88,214.224Z" transform="translate(-272.059 -210.688)" fill="#00030e"/>
        </g>
        <g id="Group_11754" data-name="Group 11754" transform="translate(0.167 68.009)">
          <path id="Path_21101" data-name="Path 21101" d="M244.5,269.483l-1.343-.711-3.438-2.365a16.345,16.345,0,0,0,3.244-4.456l.062-.111,2.523,1.618-2.308,2.748Z" transform="translate(-239.714 -261.84)" fill="#cfdefb"/>
        </g>
        <g id="Group_11755" data-name="Group 11755" transform="translate(8.879 31.86)">
          <path id="Path_21102" data-name="Path 21102" d="M252.661,238.692a.345.345,0,0,1-.271-.56c.091-.115,9.086-11.492,10.47-14.376s3.963-13.828,3.989-13.939a.346.346,0,0,1,.673.158c-.106.453-2.622,11.128-4.038,14.08s-10.18,14.035-10.552,14.505A.342.342,0,0,1,252.661,238.692Z" transform="translate(-252.315 -209.552)" fill="#00030e"/>
        </g>
        <g id="Group_11756" data-name="Group 11756" transform="translate(35.767 69.244)">
          <path id="Path_21103" data-name="Path 21103" d="M298.235,268.047l-1.37.659-3.943,1.363a16.331,16.331,0,0,0-1.661-5.256l-.053-.115,2.8-1.069.841,3.489Z" transform="translate(-291.209 -263.627)" fill="#cfdefb"/>
        </g>
        <g id="Group_11757" data-name="Group 11757" transform="translate(7.406 10.961)">
          <path id="Path_21104" data-name="Path 21104" d="M252.712,201.432a11.233,11.233,0,0,1,1.053-1.016c4.325-2.158,5.715-3.177,8.783-6.913-.227,2.44-1.744,7.035-.05,7.589,3.7.7,10,.113,12.637-.4,1.045-.2,1.811-2.764,2.1-2.908.215-.107,3.607,1.417,5.7,1.682a11.261,11.261,0,0,0,1.225-2.913,3.606,3.606,0,0,1-1.831-1.373c-1.493-2.253-2.086-4.96-2.886-7.542s-1.93-5.227-4.113-6.821c-2.8-2.043-6.776-1.84-9.876-.293s-5.475,4.222-7.579,6.975a76.288,76.288,0,0,0-4.987,7.388c-.445.751-.8,1.984-1.245,2.734-.229.382-1.462,1.809-1.462,1.809Z" transform="translate(-250.185 -179.32)" fill="#ffb424"/>
        </g>
        <g id="Group_11758" data-name="Group 11758" transform="translate(26.435 2.574)">
          <path id="Path_21105" data-name="Path 21105" d="M278.646,172.3a.971.971,0,0,1,.016-1.942l.062,0v-.042a3,3,0,0,1,2.651-3.115,2.887,2.887,0,0,1,3.116,2.8l.039,1.534c.035,1.336-.647,3.7-2.075,2.834l-.055,1.82a1.113,1.113,0,0,1-1.148,1.079l-.733-.022a2.022,2.022,0,0,1-1.96-2.083Z" transform="translate(-277.71 -167.189)" fill="#ffa788"/>
        </g>
        <g id="Group_11759" data-name="Group 11759" transform="translate(26.031 37.91)">
          <path id="Path_21106" data-name="Path 21106" d="M277.471,226.949a.35.35,0,0,1-.126-.024.346.346,0,0,1-.2-.448l3.122-7.955a.346.346,0,0,1,.644.252l-3.123,7.955A.346.346,0,0,1,277.471,226.949Z" transform="translate(-277.125 -218.303)" fill="#00030e"/>
        </g>
        <g id="Group_11760" data-name="Group 11760" transform="translate(0 70.878)">
          <path id="Path_21107" data-name="Path 21107" d="M240.882,265.99s-1.334.944-1.409,1.552,5.793,4.909,6.3,4.5-1.468-3.755-1.989-4.643-1.39.122-1.921-.388S240.882,265.99,240.882,265.99Z" transform="translate(-239.472 -265.99)" fill="#274fd3"/>
        </g>
        <g id="Group_11761" data-name="Group 11761" transform="translate(37.335 72.913)">
          <path id="Path_21108" data-name="Path 21108" d="M293.477,270.9s.105,1.631.583,2.013,7.218-2.358,7.135-3.006-3.388-.953-4.418-.975-.059,1.22-1.916,1.667C294.144,270.773,293.477,270.9,293.477,270.9Z" transform="translate(-293.477 -268.934)" fill="#274fd3"/>
        </g>
        <g id="Group_11762" data-name="Group 11762" transform="translate(19.424 20.734)">
          <path id="Path_21109" data-name="Path 21109" d="M267.914,198.213a.345.345,0,0,1-.264-.568,47.833,47.833,0,0,0,3.074-4.021.346.346,0,0,1,.59.36,47.143,47.143,0,0,1-3.136,4.107A.346.346,0,0,1,267.914,198.213Z" transform="translate(-267.568 -193.457)" fill="#00030e"/>
        </g>
        <g id="Group_11763" data-name="Group 11763" transform="translate(33.132 16.996)">
          <path id="Path_21110" data-name="Path 21110" d="M288.721,200.821a.359.359,0,0,1-.071-.007.346.346,0,0,1-.268-.409,25.546,25.546,0,0,0,.293-5.426,22.229,22.229,0,0,0-1.256-6.459.346.346,0,0,1,.645-.25,22.538,22.538,0,0,1,1.3,6.684,25.6,25.6,0,0,1-.308,5.591A.345.345,0,0,1,288.721,200.821Z" transform="translate(-287.397 -188.05)" fill="#00030e"/>
        </g>
        <g id="Group_11764" data-name="Group 11764" transform="translate(26.435 2.574)">
          <path id="Path_21111" data-name="Path 21111" d="M278.646,172.3a.971.971,0,0,1,.016-1.942l.062,0v-.042a3,3,0,0,1,2.651-3.115,2.887,2.887,0,0,1,3.116,2.8l.039,1.534c.035,1.336-.647,3.7-2.075,2.834l-.055,1.82a1.113,1.113,0,0,1-1.148,1.079l-.733-.022a2.022,2.022,0,0,1-1.96-2.083Z" transform="translate(-277.71 -167.189)" fill="#ffa788"/>
        </g>
        <g id="Group_11767" data-name="Group 11767" transform="translate(20.217)">
          <g id="Group_11765" data-name="Group 11765" transform="translate(7.121 8.955)">
            <path id="Path_21112" data-name="Path 21112" d="M279.016,176.42" transform="translate(-279.016 -176.42)" fill="#0f2751"/>
          </g>
          <g id="Group_11766" data-name="Group 11766">
            <path id="Path_21113" data-name="Path 21113" d="M279.857,163.581c-.91-.34-1.844.177-2.346.251s-1.206-.383-2.228.088c-.89.411-.59,1.739-1.018,2.138s-1.358.164-1.948.8.015,1.4-.546,1.859-1.662.344-2.267.935a3.938,3.938,0,0,0-.787,1.889,8.567,8.567,0,0,1,2.449.89c.827.561,1.8.059,3.158.147a2.332,2.332,0,0,1,1.488.531l.051-1.718c-.006-.069.012-.169.008-.24a.993.993,0,0,1-.935-.94.945.945,0,0,1,.931-.984h.062c.35-.893,1.878-.583,2.94-1.025a3.028,3.028,0,0,0,1.478-1.684l1.223,1.587s.527.1.678-1.143A3.4,3.4,0,0,0,279.857,163.581Z" transform="translate(-268.716 -163.466)" fill="#0f2751"/>
          </g>
        </g>
        <g id="Group_11768" data-name="Group 11768" transform="translate(27.448 5.698)">
          <line id="Line_1958" data-name="Line 1958" x1="0.001" y1="0.042" fill="#ffa788"/>
        </g>
        <g id="Group_11769" data-name="Group 11769" transform="translate(30.153 5.503)">
          <path id="Path_21114" data-name="Path 21114" d="M283.954,171.859a.433.433,0,1,0-.866,0" transform="translate(-283.088 -171.426)" fill="#00030e"/>
        </g>
        <g id="Group_11770" data-name="Group 11770" transform="translate(32.389 5.503)">
          <path id="Path_21115" data-name="Path 21115" d="M287.189,171.859a.433.433,0,1,0-.866,0" transform="translate(-286.323 -171.426)" fill="#00030e"/>
        </g>
        <g id="Group_11771" data-name="Group 11771" transform="translate(31.368 5.395)">
          <path id="Path_21116" data-name="Path 21116" d="M285.247,173.719a.821.821,0,0,1-.093,0,.346.346,0,1,1,.073-.687.628.628,0,0,0,.2-.028c-.061-.15-.127-.322-.168-.453a5.982,5.982,0,0,1-.162-.893.346.346,0,0,1,.307-.381.353.353,0,0,1,.38.306,5.417,5.417,0,0,0,.134.76c.084.267.281.715.282.718a.345.345,0,0,1-.162.447A2.023,2.023,0,0,1,285.247,173.719Z" transform="translate(-284.845 -171.27)" fill="#ff7f79"/>
        </g>
        <g id="Group_11772" data-name="Group 11772" transform="translate(30.638 8.016)">
          <path id="Path_21117" data-name="Path 21117" d="M284.809,175.954a1.342,1.342,0,0,1-.911-.3.345.345,0,0,1,.466-.51.826.826,0,0,0,.54.111.343.343,0,0,1,.37.319.347.347,0,0,1-.32.37C284.9,175.952,284.856,175.954,284.809,175.954Z" transform="translate(-283.789 -175.061)" fill="#ff4b48"/>
        </g>
      </g>
      <g id="Group_11784" data-name="Group 11784" transform="translate(0 33.695)">
        <g id="Group_11776" data-name="Group 11776" transform="translate(1.006 35.29)">
          <g id="Group_11774" data-name="Group 11774">
            <path id="Path_21118" data-name="Path 21118" d="M210.238,266.479a1.613,1.613,0,0,1-1.421-2.371,1.613,1.613,0,1,1,1.421,2.371Zm0-2.535a.921.921,0,1,0,.431.108A.923.923,0,0,0,210.243,263.944Z" transform="translate(-208.628 -263.253)" fill="#00030e"/>
          </g>
          <g id="Group_11775" data-name="Group 11775" transform="translate(8.634 4.592)">
            <path id="Path_21119" data-name="Path 21119" d="M222.73,273.124a1.618,1.618,0,1,1,.473-.071A1.6,1.6,0,0,1,222.73,273.124Zm0-2.536a.928.928,0,0,0-.27.041.922.922,0,1,0,1.083,1.315h0a.922.922,0,0,0-.812-1.355Z" transform="translate(-221.117 -269.895)" fill="#00030e"/>
          </g>
        </g>
        <g id="Group_11777" data-name="Group 11777" transform="translate(15.439)">
          <path id="Path_21120" data-name="Path 21120" d="M233.891,232.056a1.979,1.979,0,0,1-.931-.233h0l-2.4-1.278a1.988,1.988,0,0,1-.822-2.689l7.766-14.6a1.992,1.992,0,0,1,2.689-.821l2.4,1.278a1.989,1.989,0,0,1,.822,2.689L235.65,231A1.991,1.991,0,0,1,233.891,232.056Zm-.606-.843a1.3,1.3,0,0,0,1.754-.536l7.766-14.6a1.3,1.3,0,0,0-.536-1.754l-2.4-1.278a1.3,1.3,0,0,0-1.755.536l-7.766,14.6a1.3,1.3,0,0,0,.536,1.754Z" transform="translate(-229.504 -212.206)" fill="#00030e"/>
        </g>
        <g id="Group_11783" data-name="Group 11783" transform="translate(0 11.635)">
          <g id="Group_11778" data-name="Group 11778" transform="translate(2.361 1.256)">
            <rect id="Rectangle_4684" data-name="Rectangle 4684" width="14.777" height="24.948" rx="3.457" transform="translate(11.717 0) rotate(28.013)" fill="#ce3838"/>
          </g>
          <g id="Group_11779" data-name="Group 11779">
            <rect id="Rectangle_4685" data-name="Rectangle 4685" width="14.122" height="24.948" rx="3.38" transform="translate(11.717 0) rotate(28.013)" fill="#ff4b48"/>
          </g>
          <g id="Group_11780" data-name="Group 11780" transform="translate(6.818 3.524)">
            <rect id="Rectangle_4686" data-name="Rectangle 4686" width="2.176" height="11.443" rx="1.088" transform="translate(5.374 0) rotate(28.013)" fill="#ff7f79"/>
          </g>
          <g id="Group_11781" data-name="Group 11781" transform="translate(16.071 9.551)">
            <path id="Path_21121" data-name="Path 21121" d="M230.765,254.881a.339.339,0,0,1-.162-.041.345.345,0,0,1-.143-.467l6.032-11.338a.345.345,0,1,1,.61.325L231.07,254.7A.346.346,0,0,1,230.765,254.881Z" transform="translate(-230.419 -242.852)" fill="#00030e"/>
          </g>
          <g id="Group_11782" data-name="Group 11782" transform="translate(13.335 23.272)">
            <path id="Path_21122" data-name="Path 21122" d="M226.807,266.15a.338.338,0,0,1-.162-.04.346.346,0,0,1-.143-.468l1.468-2.76a.346.346,0,0,1,.61.325l-1.468,2.76A.346.346,0,0,1,226.807,266.15Z" transform="translate(-226.461 -262.699)" fill="#00030e"/>
          </g>
        </g>
      </g>
      <g id="Group_11791" data-name="Group 11791" transform="translate(24.792 31.094)">
        <g id="Group_11785" data-name="Group 11785" transform="translate(4.274)">
          <path id="Path_21123" data-name="Path 21123" d="M250.4,208.443l-1.185,1.224,2.086,1.757,1.268-1.49Z" transform="translate(-249.217 -208.443)" fill="#ffa788"/>
        </g>
        <g id="Group_11786" data-name="Group 11786" transform="translate(0 2.37)">
          <path id="Path_21124" data-name="Path 21124" d="M245.817,212.011a.384.384,0,0,0-.54-.051l-1.413,1.168c-.007.006-.01.015-.017.021a.359.359,0,0,0-.048.059.386.386,0,0,0-.035.055c0,.009-.012.015-.017.025l-.685,1.7a.384.384,0,0,0,.711.287l.651-1.614,1.342-1.11A.384.384,0,0,0,245.817,212.011Z" transform="translate(-243.034 -211.872)" fill="#ffa788"/>
        </g>
        <g id="Group_11787" data-name="Group 11787" transform="translate(0.778 2.701)">
          <path id="Path_21125" data-name="Path 21125" d="M246.513,212.453a.384.384,0,0,0-.542.02l-1.248,1.343c-.006.007-.008.016-.014.023a.364.364,0,0,0-.04.065.457.457,0,0,0-.028.059c0,.01-.01.017-.012.026l-.457,1.775a.383.383,0,0,0,.742.191l.433-1.685L246.533,213A.384.384,0,0,0,246.513,212.453Z" transform="translate(-244.159 -212.351)" fill="#ffa788"/>
        </g>
        <g id="Group_11788" data-name="Group 11788" transform="translate(2.162 2.722)">
          <path id="Path_21126" data-name="Path 21126" d="M247.852,212.439a.383.383,0,0,0-.529.12l-.979,1.55a.26.26,0,0,0-.009.025.355.355,0,0,0-.028.071.394.394,0,0,0-.017.062c0,.01-.008.019-.008.029l-.121,1.829a.384.384,0,1,0,.765.051l.115-1.736.929-1.472A.383.383,0,0,0,247.852,212.439Z" transform="translate(-246.161 -212.38)" fill="#ffa788"/>
        </g>
        <g id="Group_11789" data-name="Group 11789" transform="translate(3.171 2.44)">
          <path id="Path_21127" data-name="Path 21127" d="M249.312,212.031a.383.383,0,0,0-.529.12l-.978,1.55a.155.155,0,0,0-.01.025.355.355,0,0,0-.028.071.4.4,0,0,0-.017.063c0,.01-.007.018-.008.028l-.122,1.829a.383.383,0,1,0,.765.05l.115-1.735.929-1.473A.383.383,0,0,0,249.312,212.031Z" transform="translate(-247.621 -211.972)" fill="#ffa788"/>
        </g>
        <g id="Group_11790" data-name="Group 11790" transform="translate(1.749 1.175)">
          <path id="Path_21128" data-name="Path 21128" d="M245.564,211.834l.585-.455,1.993-1.236,2.033,1.806-2.111.895-1.252-.028-.938-.634Z" transform="translate(-245.564 -210.142)" fill="#ffa788"/>
        </g>
      </g>
    </g>
    <g id="Group_11793" data-name="Group 11793" transform="translate(203.902 237.512)">
      <path id="Path_21129" data-name="Path 21129" d="M315.1,274.974H204.248a.346.346,0,0,1,0-.691H315.1a.346.346,0,0,1,0,.691Z" transform="translate(-203.902 -274.283)" fill="#00030e"/>
    </g>
    <g id="Group_11859" data-name="Group 11859" transform="translate(326.779 163.253)">
      <g id="Group_11825" data-name="Group 11825" transform="translate(35.697 0)">
        <g id="Group_11803" data-name="Group 11803" transform="translate(0 33.234)">
          <g id="Group_11794" data-name="Group 11794" transform="translate(7.15)">
            <path id="Path_21130" data-name="Path 21130" d="M448.822,239.135h-2.4a2.81,2.81,0,0,1-2.806-2.807V217.749a2.81,2.81,0,0,1,2.806-2.807h2.4a2.81,2.81,0,0,1,2.806,2.807v18.579A2.81,2.81,0,0,1,448.822,239.135Zm-2.4-23.5a2.118,2.118,0,0,0-2.115,2.115v18.579a2.118,2.118,0,0,0,2.115,2.115h2.4a2.118,2.118,0,0,0,2.115-2.115V217.749a2.118,2.118,0,0,0-2.115-2.115Z" transform="translate(-443.619 -214.942)" fill="#00030e"/>
          </g>
          <g id="Group_11795" data-name="Group 11795" transform="translate(5.541 21.609)">
            <rect id="Rectangle_4687" data-name="Rectangle 4687" width="11.107" height="2.268" rx="1.134" fill="#1e7187"/>
          </g>
          <g id="Group_11796" data-name="Group 11796" transform="translate(12.836 22.743)">
            <rect id="Rectangle_4688" data-name="Rectangle 4688" width="9.541" height="15.076" rx="2.894" fill="#1e7187"/>
          </g>
          <g id="Group_11797" data-name="Group 11797" transform="translate(0 22.743)">
            <rect id="Rectangle_4689" data-name="Rectangle 4689" width="19.533" height="15.076" rx="2.736" fill="#4190aa"/>
          </g>
          <g id="Group_11798" data-name="Group 11798" transform="translate(4.375 24.838)">
            <path id="Path_21131" data-name="Path 21131" d="M439.951,261.756a.346.346,0,0,1-.346-.346V251.216a.346.346,0,1,1,.691,0V261.41A.346.346,0,0,1,439.951,261.756Z" transform="translate(-439.605 -250.87)" fill="#1e7187"/>
          </g>
          <g id="Group_11799" data-name="Group 11799" transform="translate(9.421 24.838)">
            <path id="Path_21132" data-name="Path 21132" d="M447.251,261.756a.345.345,0,0,1-.346-.346V251.216a.346.346,0,1,1,.691,0V261.41A.346.346,0,0,1,447.251,261.756Z" transform="translate(-446.905 -250.87)" fill="#1e7187"/>
          </g>
          <g id="Group_11800" data-name="Group 11800" transform="translate(14.467 24.838)">
            <path id="Path_21133" data-name="Path 21133" d="M454.55,261.756a.346.346,0,0,1-.346-.346V251.216a.346.346,0,1,1,.691,0V261.41A.345.345,0,0,1,454.55,261.756Z" transform="translate(-454.204 -250.87)" fill="#1e7187"/>
          </g>
          <g id="Group_11801" data-name="Group 11801" transform="translate(3.405 37.85)">
            <path id="Path_21134" data-name="Path 21134" d="M440.018,273.325a1.816,1.816,0,1,1,1.817-1.816A1.818,1.818,0,0,1,440.018,273.325Zm0-2.942a1.125,1.125,0,1,0,1.125,1.126A1.126,1.126,0,0,0,440.018,270.383Z" transform="translate(-438.203 -269.692)" fill="#00030e"/>
          </g>
          <g id="Group_11802" data-name="Group 11802" transform="translate(15.354 37.85)">
            <path id="Path_21135" data-name="Path 21135" d="M457.3,273.325a1.816,1.816,0,1,1,1.816-1.816A1.818,1.818,0,0,1,457.3,273.325Zm0-2.942a1.125,1.125,0,1,0,1.125,1.126A1.126,1.126,0,0,0,457.3,270.383Z" transform="translate(-455.486 -269.692)" fill="#00030e"/>
          </g>
        </g>
        <g id="Group_11824" data-name="Group 11824" transform="translate(9.393)">
          <g id="Group_11804" data-name="Group 11804" transform="translate(33.646 28.996)">
            <path id="Path_21136" data-name="Path 21136" d="M496.9,208.812c.881,1.788,1.549,2.124,2.711,3.749a9.214,9.214,0,0,0,1.15,1.08,5.318,5.318,0,0,1,.594.5,10.642,10.642,0,0,1,.967,1.286c.254.585.47,1.791.113,1.912-.245.074-.275-.712-.336-.957a2.954,2.954,0,0,0-.946-1.63,6.385,6.385,0,0,1,.593,1.219c.084.306.132,1.992-.19,2.01-.275.015-.236-.613-.232-.889a4.089,4.089,0,0,0-.69-2.223,2.57,2.57,0,0,0,.174.94,4.385,4.385,0,0,1,.114,1.67c-.142.708-.4-.058-.409-.206a9.069,9.069,0,0,0-.17-1.242c-.122-.371-.217-.628-.365-.989-.008.808.554,1.12-.011,2.451-.035.089-.154-.106-.173-.206-.087-.352.072-.522.011-.882a2.324,2.324,0,0,0-.9-1.6,3.65,3.65,0,0,1-.839-.66,2.643,2.643,0,0,1-.311-.508c-.106-.209-.212-.419-.318-.635a20.111,20.111,0,0,1-1.9-3.036" transform="translate(-495.533 -208.812)" fill="#ffa788"/>
          </g>
          <g id="Group_11805" data-name="Group 11805" transform="translate(0 30.944)">
            <path id="Path_21137" data-name="Path 21137" d="M449.157,215.582a2.958,2.958,0,0,1-.248,1.011,4.738,4.738,0,0,0-.229,1.807c.106.776.434-.04.458-.2a9.345,9.345,0,0,1,.261-1.338c.154-.395.277-.669.46-1.058-.043.881-.672,1.188-.14,2.669.031.1.171-.107.2-.214.112-.373-.05-.57.044-.962a2.545,2.545,0,0,1,1.085-1.681,3.771,3.771,0,0,0,.949-.669,2.875,2.875,0,0,0,.376-.53c.127-.221.253-.442.381-.671.006-.028,1-1.087,1-1.087l-1.515-1.031a2.815,2.815,0,0,1-1.741,1.4c-.006-.008-.814.106-1,.15l-.43.093a5.553,5.553,0,0,0-1.466.49c-.033.016-.078.052-.07.091s.056.056.092.064c.574.115,1.215-.174,1.735.1a.027.027,0,0,0,.02.011c-.1.071-.18.151-.274.214a5.125,5.125,0,0,0-.677.506,10.969,10.969,0,0,0-1.134,1.334c-.319.623-.626,1.922-.245,2.073.257.1.346-.752.422-1.021a3.235,3.235,0,0,1,1.137-1.714,6.774,6.774,0,0,0-.722,1.29c-.111.328-.269,2.158.082,2.2.3.037.3-.651.3-.949A4.449,4.449,0,0,1,449.157,215.582Z" transform="translate(-446.864 -211.63)" fill="#ffa788"/>
          </g>
          <g id="Group_11806" data-name="Group 11806" transform="translate(18.937 1.561)">
            <path id="Path_21138" data-name="Path 21138" d="M480.553,174.824a1.048,1.048,0,0,0,.106-2.093l-.067-.006.008-.089a3.2,3.2,0,0,0-2.525-3.457,3.115,3.115,0,0,0-3.67,2.8l-.14,1.65c-.122,1.438.982,3.927,2.574,3.081l-.008.277c-.037,1.21-.969,1.214-.969,1.214l-1,1.1.435,7.2,3.433-3.765,1.674-2.642Z" transform="translate(-474.256 -169.127)" fill="#ffa788"/>
          </g>
          <g id="Group_11807" data-name="Group 11807" transform="translate(28.333 53.858)">
            <path id="Path_21139" data-name="Path 21139" d="M487.848,245.469a19.772,19.772,0,0,0,1.8,7.659c2.157,4.015,4.646,7.079,5.171,10.169,0,0,4.349.421,3.553.027-1.634-.81-3.043-6.595-4.349-11.5a28.665,28.665,0,0,0-2.76-7.055Z" transform="translate(-487.848 -244.774)" fill="#ffa788"/>
          </g>
          <g id="Group_11808" data-name="Group 11808" transform="translate(34.753 71.843)">
            <path id="Path_21140" data-name="Path 21140" d="M497.442,271.087l-.3,1.762a.528.528,0,0,0,.51.624h7.253c.35,0,.476-.315.314-.695-.23-.536-1.732-1.112-2.758-1.262a5.73,5.73,0,0,1-1.805-.693,1.373,1.373,0,0,1-1.253.412,4.236,4.236,0,0,1-1.469-.412A.348.348,0,0,0,497.442,271.087Z" transform="translate(-497.134 -270.79)" fill="#d8b0f5"/>
          </g>
          <g id="Group_11809" data-name="Group 11809" transform="translate(15.989 54.038)">
            <path id="Path_21141" data-name="Path 21141" d="M470.61,245.035s-.618,5.74-.618,7.623c0,2.9.618,11.521.618,11.521h1.75a58.426,58.426,0,0,0,1.688-10.971c.079-4.7,0-7.575,0-7.575Z" transform="translate(-469.992 -245.035)" fill="#ffa788"/>
          </g>
          <g id="Group_11810" data-name="Group 11810" transform="translate(14.963 71.86)">
            <path id="Path_21142" data-name="Path 21142" d="M471.169,270.815l.48.006a1.556,1.556,0,0,1,1.538,1.573l-.005.5a.573.573,0,0,1-.579.565l-4.094-.046h0A2.631,2.631,0,0,1,471.169,270.815Z" transform="translate(-468.508 -270.815)" fill="#d8b0f5"/>
          </g>
          <g id="Group_11811" data-name="Group 11811" transform="translate(19.557 5.532)">
            <path id="Path_21143" data-name="Path 21143" d="M475.951,176.8a1.544,1.544,0,0,1-.606-.163.345.345,0,0,1-.162-.447s.137-.313.195-.5a3.67,3.67,0,0,0,.091-.516.355.355,0,0,1,.381-.306.346.346,0,0,1,.306.381,4.275,4.275,0,0,1-.119.651c-.019.06-.046.133-.073.207a.358.358,0,0,1,.368.31.344.344,0,0,1-.307.377A.641.641,0,0,1,475.951,176.8Z" transform="translate(-475.154 -174.872)" fill="#ff7f79"/>
          </g>
          <g id="Group_11812" data-name="Group 11812" transform="translate(4.887 10.628)">
            <path id="Path_21144" data-name="Path 21144" d="M483.1,198.019a85.9,85.9,0,0,1-3.5-8.389c-.682-2.2-1.647-4.462-3.511-5.822a13.963,13.963,0,0,0-1.912-1.314s-.4.931-2.317,1.021a3.047,3.047,0,0,1-2.266-1.271,16.869,16.869,0,0,0-4.465,2.256c-.9.762-3.028,6.326-5.415,10.557a33.853,33.853,0,0,1-4.317,5.775c-.195.326-1.465,1.7-1.465,1.7a2.709,2.709,0,0,0,2.412,1.915,37.028,37.028,0,0,0,6.127-7.049,54.405,54.405,0,0,0,3.378-6.087c.2,3.056,1.266,2.5,1.488,6.29,3.162.6,3.542,1.665,8.132-.454a41.843,41.843,0,0,1,1.3-4.922c.183-.091,4.367,9.56,7.027,12.607a6.006,6.006,0,0,0,2.115-2.1C485.282,202.5,483.686,199.26,483.1,198.019Z" transform="translate(-453.933 -182.243)" fill="#d8b0f5"/>
          </g>
          <g id="Group_11813" data-name="Group 11813" transform="translate(18.106 25.528)">
            <path id="Path_21145" data-name="Path 21145" d="M473.055,205.815l.185-1.567a14.767,14.767,0,0,0,4.292.281,12.16,12.16,0,0,0,3.84-.734l.432,2.028s-2.976.244-4.644.268A37.75,37.75,0,0,1,473.055,205.815Z" transform="translate(-473.055 -203.795)" fill="#274fd3"/>
          </g>
          <g id="Group_11814" data-name="Group 11814" transform="translate(14.292 27.548)">
            <path id="Path_21146" data-name="Path 21146" d="M468.687,235.437s-1.527-13.924-1.06-17.379c1.025-7.594,3.726-11.341,3.726-11.341l8.749.008s4.3,8.079,4.726,10.6c.629,3.721,2.709,12.154,5.786,16.022,0,0-7.218,2.829-12.654,2.931A57.908,57.908,0,0,1,468.687,235.437Z" transform="translate(-467.538 -206.717)" fill="#274fd3"/>
          </g>
          <g id="Group_11815" data-name="Group 11815" transform="translate(19.083 11.309)">
            <path id="Path_21147" data-name="Path 21147" d="M478.192,185.536q-.228,0-.474-.019a5.741,5.741,0,0,1-3.156-1.706.346.346,0,0,1,.5-.474,5.133,5.133,0,0,0,2.707,1.491,5.024,5.024,0,0,0,2.421-.386.346.346,0,0,1,.313.617A5.478,5.478,0,0,1,478.192,185.536Z" transform="translate(-474.468 -183.228)" fill="#b87fea"/>
          </g>
          <g id="Group_11816" data-name="Group 11816" transform="translate(18.01 27.202)">
            <path id="Path_21148" data-name="Path 21148" d="M476.42,207.564a9.3,9.3,0,0,1-3.295-.394.346.346,0,0,1,.272-.635,10.461,10.461,0,0,0,3.732.327,15.13,15.13,0,0,0,4.263-.624.346.346,0,0,1,.238.649,15.459,15.459,0,0,1-4.481.666Q476.764,207.564,476.42,207.564Z" transform="translate(-472.916 -206.216)" fill="#0f2751"/>
          </g>
          <g id="Group_11817" data-name="Group 11817" transform="translate(19.252)">
            <path id="Path_21149" data-name="Path 21149" d="M488.212,176.676c-.391-.866-1.316-.916-1.5-1.315-.176-.382,0-.872-.522-1.443a1.491,1.491,0,0,1-.284-.342,1.2,1.2,0,0,1-.088-.4,3.01,3.01,0,0,0-2.194-2.469.832.832,0,0,1-.283-.1.718.718,0,0,1-.21-.294c-.631-1.3-1.344-2.745-2.7-3.251a5.5,5.5,0,0,0-3.2.136,3.6,3.6,0,0,0-1.036.371c-.642.393-1.613.594-1.472,2.012s2.2-.924,3.38,2.8a1.028,1.028,0,0,1,.9-.856.7.7,0,0,1,.689.887c-.127.3-.47.429-.695.661-.182.188-.461.318-.478.785-.013.359.36.545.475.834.08.2-.549.993.306,1.71.544.457-.39,2.685.961,2.989s1.7.336,2.4,1.128a1.343,1.343,0,0,0,2,.245c.338-.338.754-1.181,1.2-1.5.475-.338,1.52,0,2.111-.592A1.727,1.727,0,0,0,488.212,176.676Z" transform="translate(-474.712 -166.869)" fill="#ffca66"/>
          </g>
          <g id="Group_11818" data-name="Group 11818" transform="translate(17.517 4.475)">
            <circle id="Ellipse_444" data-name="Ellipse 444" cx="1.243" cy="1.243" r="1.243" fill="#00030e"/>
          </g>
          <g id="Group_11819" data-name="Group 11819" transform="translate(20.328 4.475)">
            <circle id="Ellipse_445" data-name="Ellipse 445" cx="1.243" cy="1.243" r="1.243" fill="#00030e"/>
          </g>
          <g id="Group_11820" data-name="Group 11820" transform="translate(19.204 4.92)">
            <path id="Path_21150" data-name="Path 21150" d="M474.988,175.13a.346.346,0,0,1-.046-.688l3.264-.451a.345.345,0,1,1,.095.684l-3.264.451A.276.276,0,0,1,474.988,175.13Z" transform="translate(-474.643 -173.987)" fill="#00030e"/>
          </g>
          <g id="Group_11821" data-name="Group 11821" transform="translate(26.557 18.763)">
            <path id="Path_21151" data-name="Path 21151" d="M486.447,196.2a.345.345,0,0,1-.3-.179l-.823-1.5a.346.346,0,0,1,.606-.333l.823,1.5a.346.346,0,0,1-.3.512Z" transform="translate(-485.278 -194.009)" fill="#b87fea"/>
          </g>
          <g id="Group_11822" data-name="Group 11822" transform="translate(19.924 7.76)">
            <path id="Path_21152" data-name="Path 21152" d="M476.116,178.936c-.035,0-.073,0-.111,0a.346.346,0,1,1,.05-.689.473.473,0,0,0,.311-.057.338.338,0,0,1,.483.02.353.353,0,0,1-.021.494A1.038,1.038,0,0,1,476.116,178.936Z" transform="translate(-475.685 -178.094)" fill="#ff4b48"/>
          </g>
          <g id="Group_11823" data-name="Group 11823" transform="translate(16.419 15.49)">
            <path id="Path_21153" data-name="Path 21153" d="M471.014,193.614a.345.345,0,0,1-.341-.3,11.337,11.337,0,0,1,.319-3.783.345.345,0,0,1,.668.177,10.835,10.835,0,0,0-.3,3.512.345.345,0,0,1-.3.39A.357.357,0,0,1,471.014,193.614Z" transform="translate(-470.614 -189.276)" fill="#b87fea"/>
          </g>
        </g>
      </g>
      <g id="Group_11857" data-name="Group 11857" transform="translate(5.609 33.983)">
        <g id="Group_11826" data-name="Group 11826" transform="translate(17.677 8.093)">
          <path id="Path_21154" data-name="Path 21154" d="M416.115,228.484a.9.9,0,0,1-.115-.315.823.823,0,0,1,.06-.436s-.607.652-.629.66c-.006,0,0,.032.017.07a.452.452,0,1,0,.779.288A.443.443,0,0,0,416.115,228.484Z" transform="translate(-415.324 -227.733)" fill="#ffa788"/>
        </g>
        <g id="Group_11827" data-name="Group 11827" transform="translate(17.938 21.199)">
          <path id="Path_21155" data-name="Path 21155" d="M416.325,246.69a5.825,5.825,0,0,1,1.6,1.071,1.8,1.8,0,0,1,.348,1.885c-.279.514-2.57-1.478-2.57-1.478Z" transform="translate(-415.703 -246.69)" fill="#ffa788"/>
        </g>
        <g id="Group_11828" data-name="Group 11828" transform="translate(11.247 2.989)">
          <ellipse id="Ellipse_446" data-name="Ellipse 446" cx="3.441" cy="3.199" rx="3.441" ry="3.199" transform="translate(0 6.569) rotate(-72.626)" fill="#ffa788"/>
        </g>
        <g id="Group_11829" data-name="Group 11829" transform="translate(1.053 24.333)">
          <path id="Path_21156" data-name="Path 21156" d="M396.99,251.224l1.257,4s-.628-.342-2.57.514a38.371,38.371,0,0,0-4.4,3.255l.572,1.257s8.225-1.885,8.568-2.856,1.028-3.941,1.028-3.941Z" transform="translate(-391.278 -251.224)" fill="#ffa788"/>
        </g>
        <g id="Group_11830" data-name="Group 11830" transform="translate(8.221 25.133)">
          <path id="Path_21157" data-name="Path 21157" d="M402.333,252.381l1.142,5.311s-.909.878-1.252,3.506-.576,5.576-.576,5.576h1.428s3.084-7.711,3.255-9.025a40.8,40.8,0,0,0,0-4.684Z" transform="translate(-401.647 -252.381)" fill="#ffa788"/>
        </g>
        <g id="Group_11831" data-name="Group 11831" transform="translate(8.822 26.258)">
          <path id="Path_21158" data-name="Path 21158" d="M403.636,258.565a.345.345,0,0,1-.338-.278l-.774-3.865a.346.346,0,1,1,.677-.136l.774,3.866a.345.345,0,0,1-.27.406A.336.336,0,0,1,403.636,258.565Z" transform="translate(-402.517 -254.008)" fill="#ff7f79"/>
        </g>
        <g id="Group_11832" data-name="Group 11832" transform="translate(2.937 8.678)">
          <path id="Path_21159" data-name="Path 21159" d="M394,243.306a20.152,20.152,0,0,0,7.423,3.595,36.219,36.219,0,0,0,6.295,1.171s.561-11.975-.588-14.626-4.668-4.868-4.668-4.868Z" transform="translate(-394.003 -228.578)" fill="#ffb424"/>
        </g>
        <g id="Group_11847" data-name="Group 11847" transform="translate(18.421 22.477)">
          <g id="Group_11833" data-name="Group 11833" transform="translate(0 9.733)">
            <path id="Path_21160" data-name="Path 21160" d="M416.5,266.428c1.038,1.271,2.568-2.819,2.568-2.819l-1.123-.991S415.948,265.755,416.5,266.428Z" transform="translate(-416.401 -262.618)" fill="#b87fea"/>
          </g>
          <g id="Group_11834" data-name="Group 11834" transform="translate(3.528 11.36)">
            <path id="Path_21161" data-name="Path 21161" d="M422.1,269.854c1.728,1,1.165-4.235,1.165-4.235l-1.671-.647S421.186,269.326,422.1,269.854Z" transform="translate(-421.504 -264.972)" fill="#b87fea"/>
          </g>
          <g id="Group_11835" data-name="Group 11835" transform="translate(0.572)">
            <path id="Path_21162" data-name="Path 21162" d="M417.9,248.542c.922-.115,1.2,3.727,1.2,3.727l-.171,2.613s-1.071-.471-1.5-2.956S417.324,248.613,417.9,248.542Z" transform="translate(-417.229 -248.539)" fill="#b87fea"/>
          </g>
          <g id="Group_11836" data-name="Group 11836" transform="translate(5.417 6.769)">
            <path id="Path_21163" data-name="Path 21163" d="M426.2,264.444c-.9.252-1.745-3.505-1.745-3.505l-.223-2.609s1.13.306,1.926,2.7S426.758,264.288,426.2,264.444Z" transform="translate(-424.237 -258.33)" fill="#b87fea"/>
          </g>
          <g id="Group_11837" data-name="Group 11837" transform="translate(3.267 1.887)">
            <circle id="Ellipse_447" data-name="Ellipse 447" cx="0.614" cy="0.614" r="0.614" fill="#b87fea"/>
          </g>
          <g id="Group_11838" data-name="Group 11838" transform="translate(6.322 5.115)">
            <circle id="Ellipse_448" data-name="Ellipse 448" cx="0.614" cy="0.614" r="0.614" fill="#b87fea"/>
          </g>
          <g id="Group_11839" data-name="Group 11839" transform="translate(1.853 2.573)">
            <circle id="Ellipse_449" data-name="Ellipse 449" cx="2.542" cy="2.542" r="2.542" fill="#d8b0f5"/>
          </g>
          <g id="Group_11840" data-name="Group 11840" transform="translate(1.083 5.943)">
            <path id="Path_21164" data-name="Path 21164" d="M419.03,257.136s-2.555,4.308.257,6.38c3.255,2.4,4.006-1.063,3.834-2.776a5.1,5.1,0,0,0-1.028-2.691Z" transform="translate(-417.967 -257.136)" fill="#d8b0f5"/>
          </g>
          <g id="Group_11841" data-name="Group 11841" transform="translate(3.159 5.164)">
            <path id="Path_21165" data-name="Path 21165" d="M421.167,256.035l.906.705a.134.134,0,0,1-.022.224l-.653.029a.124.124,0,0,1-.173-.11l-.254-.735A.123.123,0,0,1,421.167,256.035Z" transform="translate(-420.971 -256.009)" fill="#b87fea"/>
          </g>
          <g id="Group_11842" data-name="Group 11842" transform="translate(2.963 4.007)">
            <path id="Path_21166" data-name="Path 21166" d="M421.155,255.122a.346.346,0,0,1-.214-.074l-.122-.1a.346.346,0,0,1,.428-.543l.122.1a.346.346,0,0,1-.214.617Z" transform="translate(-420.687 -254.335)" fill="#b87fea"/>
          </g>
          <g id="Group_11843" data-name="Group 11843" transform="translate(4.772 5.583)">
            <path id="Path_21167" data-name="Path 21167" d="M423.773,257.4a.343.343,0,0,1-.213-.073l-.123-.1a.346.346,0,0,1,.426-.545l.122.1a.345.345,0,0,1-.212.618Z" transform="translate(-423.304 -256.615)" fill="#b87fea"/>
          </g>
          <g id="Group_11844" data-name="Group 11844" transform="translate(2.946 5.497)">
            <path id="Path_21168" data-name="Path 21168" d="M421.009,257.547a.346.346,0,0,1-.275-.554l.277-.366a.346.346,0,1,1,.551.418l-.277.366A.346.346,0,0,1,421.009,257.547Z" transform="translate(-420.663 -256.491)" fill="#b87fea"/>
          </g>
          <g id="Group_11845" data-name="Group 11845" transform="translate(2.616 5.763)">
            <path id="Path_21169" data-name="Path 21169" d="M421,258.035a.347.347,0,0,1-.245-.1l-.469-.469a.346.346,0,0,1,.489-.489l.469.469a.345.345,0,0,1-.244.59Z" transform="translate(-420.186 -256.875)" fill="#b87fea"/>
          </g>
          <g id="Group_11846" data-name="Group 11846" transform="translate(3.325 7.038)">
            <path id="Path_21170" data-name="Path 21170" d="M422.259,259.951a3.7,3.7,0,0,1-.783-.086.346.346,0,0,1,.162-.673,2.62,2.62,0,0,0,1.044.022,2.47,2.47,0,0,0,.886-.415.345.345,0,0,1,.441.532,3.121,3.121,0,0,1-1.159.554A2.445,2.445,0,0,1,422.259,259.951Z" transform="translate(-421.212 -258.72)" fill="#b87fea"/>
          </g>
        </g>
        <g id="Group_11848" data-name="Group 11848" transform="translate(7.654 38.663)">
          <path id="Path_21171" data-name="Path 21171" d="M401.032,272.143l-.2,1.134a.343.343,0,0,0,.338.4h3.82c.232,0,.316-.2.208-.447a1.727,1.727,0,0,0-.844-.812,6.5,6.5,0,0,0-1.2-.446.919.919,0,0,1-.83.265,2.874,2.874,0,0,1-.973-.265A.231.231,0,0,0,401.032,272.143Z" transform="translate(-400.828 -271.952)" fill="#ff4b48"/>
        </g>
        <g id="Group_11849" data-name="Group 11849" transform="translate(7.6 2.36)">
          <path id="Path_21172" data-name="Path 21172" d="M411.5,221.965c-.131,1.323-2.053-.861-3.149,2.613a.96.96,0,0,0-.835-.8.652.652,0,0,0-.642.826c.118.277.438.4.647.617a1.861,1.861,0,0,1,.353.635l.369.937a1.168,1.168,0,0,1,.105.839,1.251,1.251,0,0,1-.386.445,4.858,4.858,0,0,0-.589.591c-.133.162-.23.423-.438.481-.486.135-1.188-.29-1.6-.489a8.343,8.343,0,0,0-1.877-.695,11.573,11.573,0,0,1-1.612-.331,1.563,1.563,0,0,1-1.08-1.138.868.868,0,0,1,.054-.492c.068-.123.2-.185.266-.317a1.142,1.142,0,0,0,.081-.371,2.806,2.806,0,0,1,2.044-2.3.76.76,0,0,0,.263-.1.675.675,0,0,0,.2-.273c.588-1.212,1.252-2.559,2.514-3.029a5.118,5.118,0,0,1,2.981.126,3.342,3.342,0,0,1,.966.345C410.724,220.456,411.629,220.644,411.5,221.965Z" transform="translate(-400.749 -219.44)" fill="#ff4b48"/>
        </g>
        <g id="Group_11850" data-name="Group 11850" transform="translate(10.699)">
          <path id="Path_21173" data-name="Path 21173" d="M408.792,217.81a1.78,1.78,0,1,1-1.775-1.784A1.78,1.78,0,0,1,408.792,217.81Z" transform="translate(-405.232 -216.026)" fill="#ff4b48"/>
        </g>
        <g id="Group_11851" data-name="Group 11851" transform="translate(12.981 13.472)">
          <path id="Path_21174" data-name="Path 21174" d="M408.532,238.995a10.647,10.647,0,0,0,1.951,4,8.727,8.727,0,0,0,3.4,2.426l1.262-2.147a13.426,13.426,0,0,1-2.923-3.123,16.425,16.425,0,0,1-.848-4.635" transform="translate(-408.532 -235.513)" fill="#ffb424"/>
        </g>
        <g id="Group_11852" data-name="Group 11852" transform="translate(12.134 15.592)">
          <path id="Path_21175" data-name="Path 21175" d="M411.963,245.911a.345.345,0,0,1-.162-.041,9.656,9.656,0,0,1-3.333-3.311,10.611,10.611,0,0,1-1.158-3.591.346.346,0,0,1,.3-.386.355.355,0,0,1,.386.3,10.1,10.1,0,0,0,1.063,3.32,9.106,9.106,0,0,0,3.069,3.058.346.346,0,0,1-.165.651Z" transform="translate(-407.307 -238.58)" fill="#00030e"/>
        </g>
        <g id="Group_11853" data-name="Group 11853" transform="translate(3.124 22.132)">
          <path id="Path_21176" data-name="Path 21176" d="M400.549,251.846a.362.362,0,0,1-.1-.015,20.526,20.526,0,0,1-6.044-3.176.346.346,0,0,1,.429-.542,20.193,20.193,0,0,0,5.815,3.056.346.346,0,0,1-.1.677Z" transform="translate(-394.274 -248.039)" fill="#00030e"/>
        </g>
        <g id="Group_11854" data-name="Group 11854" transform="translate(16.76 7.326)">
          <path id="Path_21177" data-name="Path 21177" d="M414.668,226.667a.507.507,0,0,0-.669.256l.925.413A.507.507,0,0,0,414.668,226.667Z" transform="translate(-413.999 -226.623)" fill="#00030e"/>
        </g>
        <g id="Group_11855" data-name="Group 11855" transform="translate(16.687 9.451)">
          <path id="Path_21178" data-name="Path 21178" d="M414.073,230.41a1.608,1.608,0,0,0,.378-.255l-.525-.458A.926.926,0,0,0,414.073,230.41Z" transform="translate(-413.893 -229.697)" fill="#fff"/>
        </g>
        <g id="Group_11856" data-name="Group 11856" transform="translate(0 31.463)">
          <path id="Path_21179" data-name="Path 21179" d="M391.053,261.552l-1.076.409a.343.343,0,0,0-.173.5l1.952,3.285c.119.2.336.167.491-.05a1.72,1.72,0,0,0,.268-1.14,6.54,6.54,0,0,0-.227-1.255s-.364-.025-.652-.578a2.877,2.877,0,0,1-.269-.972A.232.232,0,0,0,391.053,261.552Z" transform="translate(-389.755 -261.537)" fill="#ff4b48"/>
        </g>
      </g>
      <g id="Group_11858" data-name="Group 11858" transform="translate(0 74.258)">
        <path id="Path_21180" data-name="Path 21180" d="M480.374,274.974H381.988a.346.346,0,0,1,0-.691h98.387a.346.346,0,0,1,0,.691Z" transform="translate(-381.642 -274.283)" fill="#00030e"/>
      </g>
    </g>
  </g>
</svg>
