<svg xmlns="http://www.w3.org/2000/svg" width="289" height="108.512" viewBox="0 0 289 108.512">
  <g id="Group_12829" data-name="Group 12829" transform="translate(-1107.908 -20.052)">
    <g id="Group_10770" data-name="Group 10770" transform="translate(1122.607 20.052)">
      <g id="Group_10718" data-name="Group 10718" transform="translate(-14.7 107.787)">
        <path id="Path_19987" data-name="Path 19987" d="M1046.533,251.777h144.976a.363.363,0,1,0,0-.725H1046.533a.363.363,0,1,0,0,.725Z" transform="translate(-1046.17 -251.052)" fill="#00030e"/>
      </g>
      <g id="Group_10745" data-name="Group 10745" transform="translate(9.144 44.868)">
        <g id="Group_10719" data-name="Group 10719" transform="translate(5.001 42.254)">
          <rect id="Rectangle_4627" data-name="Rectangle 4627" width="39.713" height="13.046" rx="4.477" transform="translate(0 0)" fill="#6a93cb"/>
        </g>
        <g id="Group_10720" data-name="Group 10720" transform="translate(4.537 47.805)">
          <rect id="Rectangle_4628" data-name="Rectangle 4628" width="40.467" height="0.535" transform="translate(0 0)" fill="#282a41"/>
        </g>
        <g id="Group_10721" data-name="Group 10721" transform="translate(4.537 48.68)">
          <rect id="Rectangle_4629" data-name="Rectangle 4629" width="40.467" height="0.535" transform="translate(0 0)" fill="#282a41"/>
        </g>
        <g id="Group_10722" data-name="Group 10722" transform="translate(12.103 47.062)">
          <rect id="Rectangle_4630" data-name="Rectangle 4630" width="1.652" height="2.962" transform="translate(0 0)" fill="#282a41"/>
        </g>
        <g id="Group_10723" data-name="Group 10723" transform="translate(34.51 47.062)">
          <rect id="Rectangle_4631" data-name="Rectangle 4631" width="1.652" height="2.962" transform="translate(0 0)" fill="#282a41"/>
        </g>
        <g id="Group_10731" data-name="Group 10731" transform="translate(5.02 27.935)">
          <g id="Group_10724" data-name="Group 10724" transform="translate(0.363)">
            <path id="Rectangle_4632" data-name="Rectangle 4632" d="M4.357,0H28.07a4.357,4.357,0,0,1,4.357,4.357v5.655A4.357,4.357,0,0,1,28.07,14.37H4.358A4.358,4.358,0,0,1,0,10.012V4.357A4.357,4.357,0,0,1,4.357,0Z" transform="translate(0)" fill="#ff4b48"/>
          </g>
          <g id="Group_10727" data-name="Group 10727" transform="translate(0 6.093)">
            <g id="Group_10725" data-name="Group 10725">
              <path id="Path_19988" data-name="Path 19988" d="M1161.908,211.946h32.427a.363.363,0,0,0,0-.725h-32.427a.363.363,0,1,0,0,.725Z" transform="translate(-1161.545 -211.221)" fill="#00030e"/>
            </g>
            <g id="Group_10726" data-name="Group 10726" transform="translate(0 1.457)">
              <path id="Path_19989" data-name="Path 19989" d="M1161.908,213.955h32.427a.363.363,0,0,0,0-.725h-32.427a.363.363,0,1,0,0,.725Z" transform="translate(-1161.545 -213.23)" fill="#00030e"/>
            </g>
          </g>
          <g id="Group_10730" data-name="Group 10730" transform="translate(5.505 5.193)">
            <g id="Group_10728" data-name="Group 10728" transform="translate(21.416)">
              <path id="Path_19990" data-name="Path 19990" d="M1169.5,213.963a.362.362,0,0,0,.363-.363v-3.257a.363.363,0,0,0-.725,0V213.6A.362.362,0,0,0,1169.5,213.963Z" transform="translate(-1169.136 -209.98)" fill="#00030e"/>
            </g>
            <g id="Group_10729" data-name="Group 10729" transform="translate(0)">
              <path id="Path_19991" data-name="Path 19991" d="M1199.025,213.963a.362.362,0,0,0,.363-.363v-3.257a.363.363,0,0,0-.725,0V213.6A.363.363,0,0,0,1199.025,213.963Z" transform="translate(-1198.662 -209.98)" fill="#00030e"/>
            </g>
          </g>
        </g>
        <g id="Group_10732" data-name="Group 10732" transform="translate(13.805 28.999)">
          <rect id="Rectangle_4633" data-name="Rectangle 4633" width="22.105" height="1.911" rx="0.956" transform="translate(0)" fill="#ff7f79"/>
        </g>
        <g id="Group_10740" data-name="Group 10740" transform="translate(2.985 42.03)">
          <g id="Group_10733" data-name="Group 10733" transform="translate(0.362)">
            <path id="Rectangle_4634" data-name="Rectangle 4634" d="M4.938,0h31.78a4.939,4.939,0,0,1,4.939,4.939V9.431a4.939,4.939,0,0,1-4.939,4.939H4.939A4.939,4.939,0,0,1,0,9.431V4.938A4.938,4.938,0,0,1,4.938,0Z" transform="translate(0)" fill="#274fd3"/>
          </g>
          <g id="Group_10736" data-name="Group 10736" transform="translate(0 6.094)">
            <g id="Group_10734" data-name="Group 10734">
              <path id="Path_19992" data-name="Path 19992" d="M1151.99,231.379h41.657a.363.363,0,1,0,0-.725H1151.99a.363.363,0,1,0,0,.725Z" transform="translate(-1151.627 -230.654)" fill="#00030e"/>
            </g>
            <g id="Group_10735" data-name="Group 10735" transform="translate(0 1.457)">
              <path id="Path_19993" data-name="Path 19993" d="M1151.99,233.388h41.657a.363.363,0,1,0,0-.725H1151.99a.363.363,0,1,0,0,.725Z" transform="translate(-1151.627 -232.663)" fill="#00030e"/>
            </g>
          </g>
          <g id="Group_10739" data-name="Group 10739" transform="translate(7.072 5.193)">
            <g id="Group_10737" data-name="Group 10737" transform="translate(27.513)">
              <path id="Path_19994" data-name="Path 19994" d="M1161.74,233.4a.362.362,0,0,0,.363-.363v-3.258a.363.363,0,0,0-.725,0v3.258A.363.363,0,0,0,1161.74,233.4Z" transform="translate(-1161.377 -229.412)" fill="#00030e"/>
            </g>
            <g id="Group_10738" data-name="Group 10738" transform="translate(0)">
              <path id="Path_19995" data-name="Path 19995" d="M1199.671,233.4a.363.363,0,0,0,.363-.363v-3.258a.363.363,0,1,0-.725,0v3.258A.362.362,0,0,0,1199.671,233.4Z" transform="translate(-1199.308 -229.412)" fill="#00030e"/>
            </g>
          </g>
        </g>
        <g id="Group_10741" data-name="Group 10741" transform="translate(21.237 43.094)" opacity="0.3">
          <rect id="Rectangle_4635" data-name="Rectangle 4635" width="21.326" height="1.911" rx="0.956" transform="translate(0)" fill="#fff"/>
        </g>
        <g id="Group_10742" data-name="Group 10742" transform="translate(0)">
          <path id="Path_19996" data-name="Path 19996" d="M1138.419,221.384h45.331a2.923,2.923,0,0,0,2.92-2.92V167.233a2.2,2.2,0,0,1,2.2-2.2h4.033a.363.363,0,1,0,0-.725h-4.033a2.929,2.929,0,0,0-2.926,2.926v51.231a2.2,2.2,0,0,1-2.2,2.195h-45.331a.363.363,0,0,0,0,.725Z" transform="translate(-1138.056 -164.307)" fill="#00030e"/>
        </g>
        <g id="Group_10743" data-name="Group 10743" transform="translate(40.01 57.142)">
          <path id="Path_19997" data-name="Path 19997" d="M1153.591,249.257a3.085,3.085,0,1,0-3.085-3.085A3.088,3.088,0,0,0,1153.591,249.257Zm0-5.444a2.36,2.36,0,1,1-2.359,2.36A2.362,2.362,0,0,1,1153.591,243.812Z" transform="translate(-1150.506 -243.087)" fill="#00030e"/>
        </g>
        <g id="Group_10744" data-name="Group 10744" transform="translate(2.985 57.142)">
          <path id="Path_19998" data-name="Path 19998" d="M1204.637,249.257a3.085,3.085,0,1,0-3.084-3.085A3.088,3.088,0,0,0,1204.637,249.257Zm0-5.444a2.36,2.36,0,1,1-2.359,2.36A2.362,2.362,0,0,1,1204.637,243.812Z" transform="translate(-1201.553 -243.087)" fill="#00030e"/>
        </g>
      </g>
      <g id="Group_10769" data-name="Group 10769" transform="translate(59.851 0)">
        <g id="Group_10746" data-name="Group 10746" transform="translate(26.635 92.373)">
          <path id="Path_19999" data-name="Path 19999" d="M1105.435,230.983l-1.619,10.923-3.587-.743-.36-11.361Z" transform="translate(-1099.869 -229.802)" fill="#ffa788"/>
        </g>
        <g id="Group_10747" data-name="Group 10747" transform="translate(42.319 92.894)">
          <path id="Path_20000" data-name="Path 20000" d="M1083.669,230.835l.071,11.042-3.658-.186-2.095-11.172Z" transform="translate(-1077.987 -230.519)" fill="#ffa788"/>
        </g>
        <g id="Group_10748" data-name="Group 10748" transform="translate(25.561 51.456)">
          <path id="Path_20001" data-name="Path 20001" d="M1098.244,200.477c.123,3.613,1.9,15.552,1.908,18,0,.6,0,1.208.01,1.813a5.387,5.387,0,0,1-.011,1.735c-.319.785-5.645.81-5.931.228-.35-.713-4.579-18.537-4.841-20.663-.215-1.741-.021-12.478-.242-16.543a38.1,38.1,0,0,0-2.893,17.6c.158,3.634-2.868,19.394-3.064,20.405-.07.362-5.219-.722-5.534-.985-.56-.466-.326-16.555-.573-19.506-.212-2.509.432-15.789.715-19.931q.258-3.766.522-7.531c.014-.21,19.559-1.714,19.559-1.714a42.585,42.585,0,0,1,1.3,5.573C1099.466,182.267,1098.154,197.838,1098.244,200.477Z" transform="translate(-1077.031 -173.39)" fill="#ffb424"/>
        </g>
        <g id="Group_10750" data-name="Group 10750" transform="translate(37.548 56.164)">
          <g id="Group_10749" data-name="Group 10749" transform="translate(0)">
            <path id="Path_20002" data-name="Path 20002" d="M1087.848,187.289a.18.18,0,0,0,.174-.157,9.324,9.324,0,0,1,1.525-3.92c.128-.186.262-.37.4-.555a5.009,5.009,0,0,0,1.227-2.583.181.181,0,0,0-.164-.2.184.184,0,0,0-.186.172,4.749,4.749,0,0,1-1.154,2.382c-.139.188-.276.376-.406.564a9.693,9.693,0,0,0-1.587,4.079.182.182,0,0,0,.147.209A.107.107,0,0,0,1087.848,187.289Z" transform="translate(-1087.672 -179.88)" fill="#bc3d2e"/>
          </g>
        </g>
        <g id="Group_10756" data-name="Group 10756" transform="translate(24.91 4.439)">
          <g id="Group_10751" data-name="Group 10751" transform="translate(0)">
            <path id="Path_20003" data-name="Path 20003" d="M1093.575,111.77a6.142,6.142,0,0,1,2.632-2.608c4.926-2.425,5.344,3.363,5.344,3.363s1.294-2,2.162-.622c.363.578-.046,1.613-.378,2.993.147.527.459,1.655.788,2.869a6.511,6.511,0,0,0,1.308,2.581,13.757,13.757,0,0,1-3.459,2.413c-2.045.982-2.53.374-2.53.374l-.186-3.2C1095.284,121.47,1093.575,111.77,1093.575,111.77Z" transform="translate(-1093.575 -108.569)" fill="#ffa788"/>
          </g>
          <g id="Group_10752" data-name="Group 10752" transform="translate(4.013 4.167)">
            <path id="Path_20004" data-name="Path 20004" d="M1102.737,115.107a.62.62,0,1,1,1.19-.345" transform="translate(-1102.712 -114.314)" fill="#00030e"/>
          </g>
          <g id="Group_10753" data-name="Group 10753" transform="translate(0.552 5.262)">
            <path id="Path_20005" data-name="Path 20005" d="M1107.507,116.616a.62.62,0,0,1,1.191-.345" transform="translate(-1107.483 -115.824)" fill="#00030e"/>
          </g>
          <g id="Group_10754" data-name="Group 10754" transform="translate(2.19 4.989)">
            <path id="Path_20006" data-name="Path 20006" d="M1105.345,118.564a1.776,1.776,0,0,0,.651-.1.362.362,0,1,0-.274-.671,1.3,1.3,0,0,1-.484.048c.027-.252.06-.582.065-.824a8.483,8.483,0,0,0-.132-1.266.362.362,0,1,0-.714.125,7.623,7.623,0,0,1,.12,1.124c-.01.4-.1,1.107-.1,1.113l-.044.342.34.062A3.437,3.437,0,0,0,1105.345,118.564Z" transform="translate(-1104.431 -115.446)" fill="#ff7f79"/>
          </g>
          <g id="Group_10755" data-name="Group 10755" transform="translate(3.552 8.429)">
            <path id="Path_20007" data-name="Path 20007" d="M1102.986,121.5a.375.375,0,0,0,.075-.008,1.875,1.875,0,0,0,1.252-.757.363.363,0,0,0-.621-.376,1.244,1.244,0,0,1-.781.423.363.363,0,0,0,.075.717Z" transform="translate(-1102.623 -120.19)" fill="#ff4b48"/>
          </g>
        </g>
        <g id="Group_10757" data-name="Group 10757" transform="translate(0 37.556)">
          <path id="Path_20008" data-name="Path 20008" d="M1140.361,156.745a15.433,15.433,0,0,1-3.17-1.314,7.879,7.879,0,0,0-1.136-.569,16.649,16.649,0,0,0-2.563-.635c-1.05-.012-3.018.452-2.963,1.068.037.416,1.248-.047,1.66-.12a4.9,4.9,0,0,1,3.071.383,10.43,10.43,0,0,0-2.221-.106c-.519.066-3.1,1.09-2.918,1.583.157.432,1.076-.035,1.493-.227,1.586-.729,2.421-.423,3.8-.394a4.029,4.029,0,0,1-1.527.35,7.172,7.172,0,0,0-2.592.9c-.983.673.347.566.571.492a15.573,15.573,0,0,1,1.984-.553c.646-.057,1.091-.073,1.74-.083-1.214.537-2.051-.122-3.7,1.6-.112.117.261.162.421.135.589-.1.744-.45,1.326-.588a3.847,3.847,0,0,1,3,.331,6.153,6.153,0,0,0,1.536.844,4.642,4.642,0,0,0,.97.133l1.164.077q.031-1.207.061-2.412a3.125,3.125,0,0,0-.077-.971Z" transform="translate(-1130.112 -154.226)" fill="#ffa788"/>
        </g>
        <g id="Group_10758" data-name="Group 10758" transform="translate(36.627 103.735)">
          <path id="Path_20009" data-name="Path 20009" d="M1087.182,245.734s2,3.009,1.5,3.684-13.125.1-13.125.1-.275-1.932,3.224-2.677a15.609,15.609,0,0,0,4.475-1.379Z" transform="translate(-1075.553 -245.465)" fill="#0f2751"/>
        </g>
        <g id="Group_10759" data-name="Group 10759" transform="translate(19.327 103.735)">
          <path id="Path_20010" data-name="Path 20010" d="M1111.035,245.734s2,3.009,1.5,3.684-13.124.1-13.124.1-.276-1.932,3.223-2.677a15.615,15.615,0,0,0,4.476-1.379Z" transform="translate(-1099.406 -245.465)" fill="#0f2751"/>
        </g>
        <g id="Group_10760" data-name="Group 10760" transform="translate(22.349)">
          <path id="Path_20011" data-name="Path 20011" d="M1094.6,110.089s1.241-2.987,5.626-2.076c2.584.537,2.009,3.319,2.3,2.934.262-.342.977-1.676,1.858-.656.793.918-.139,2.645-.139,2.645l.433,1.447a4.132,4.132,0,0,0,2.777-2.782c.475-2.132-.75-2.188-.75-2.188a1.993,1.993,0,0,0,.493-2.093c-.394-1.359-1.843-.822-1.843-.822s.324-2.637-1.488-3.36c-2.209-.883-3,.6-3,.6a3.3,3.3,0,0,0-3.057-1.27,3.036,3.036,0,0,0-2.547,2.347s-3.149.3-3.228,2.945C1091.983,109.7,1094.6,110.089,1094.6,110.089Z" transform="translate(-1092.04 -102.449)" fill="#0f2751"/>
        </g>
        <g id="Group_10761" data-name="Group 10761" transform="translate(8.913 16.144)">
          <path id="Path_20012" data-name="Path 20012" d="M1112.515,149.779s2.46.113,3.016-.647c1.161-1.587,1.871-2.245-2.309-14.217-2.64-7.562-6.5-9.96-8.447-10.186-2.236-.259-11.776,1.684-12.582,2.451-2.425,2.3-4.7,14.248-5.547,17.483-.175.67-7.221,3-10.281,2.5a.86.86,0,0,0-.663.069.848.848,0,0,0-.237.659,44.352,44.352,0,0,0-.073,4.529c3.349,1.657,12.688.73,13.9.321a5.364,5.364,0,0,0,2.935-3.256c-.238,3.626.353,9.9.65,13.52,5.488-.109,20.515-.413,20.6-2.8A91.424,91.424,0,0,0,1112.515,149.779Z" transform="translate(-1075.363 -124.705)" fill="#0f2751"/>
        </g>
        <g id="Group_10762" data-name="Group 10762" transform="translate(42.639 26.089)" opacity="0.23">
          <path id="Path_20013" data-name="Path 20013" d="M1083.681,153.908h.037a.362.362,0,0,0,.324-.4c0-.033-.339-3.375-1.158-7.677a45.31,45.31,0,0,0-1.928-7.184.362.362,0,1,0-.675.263,44.822,44.822,0,0,1,1.89,7.057c.813,4.268,1.147,7.58,1.15,7.613A.362.362,0,0,0,1083.681,153.908Z" transform="translate(-1080.255 -138.416)" fill="#e9f1ff"/>
        </g>
        <g id="Group_10763" data-name="Group 10763" transform="translate(25.416 26.089)" opacity="0.23">
          <path id="Path_20014" data-name="Path 20014" d="M1103.335,153.615a.362.362,0,0,0,.334-.221,75.411,75.411,0,0,0,2.642-7.134,53.419,53.419,0,0,0,1.194-7.448.364.364,0,0,0-.329-.394.375.375,0,0,0-.394.328,53.486,53.486,0,0,1-1.169,7.319c-.741,2.652-2.592,7-2.61,7.045a.362.362,0,0,0,.191.476A.37.37,0,0,0,1103.335,153.615Z" transform="translate(-1102.973 -138.417)" fill="#e9f1ff"/>
        </g>
        <g id="Group_10764" data-name="Group 10764" transform="translate(37.305 55.974)">
          <path id="Path_20015" data-name="Path 20015" d="M1088.019,187.125a.363.363,0,0,0,.358-.31,5.851,5.851,0,0,1,1.174-2.624,6.9,6.9,0,0,0,1.86-4.21.362.362,0,0,0-.361-.363h0a.363.363,0,0,0-.363.36,6.306,6.306,0,0,1-1.677,3.733,6.482,6.482,0,0,0-1.348,3,.362.362,0,0,0,.3.412A.343.343,0,0,0,1088.019,187.125Z" transform="translate(-1087.656 -179.618)" fill="#ff4b48"/>
        </g>
        <g id="Group_10765" data-name="Group 10765" transform="translate(43.362 97.998)">
          <path id="Path_20016" data-name="Path 20016" d="M1078.061,238.516c.333,0,.729-.006,1.167-.023,1.288-.051,2.76-.213,2.775-.214a.363.363,0,0,0-.079-.721c-.015,0-1.462.16-2.724.21s-2.175,0-2.185,0a.355.355,0,0,0-.382.342.361.361,0,0,0,.342.382C1077,238.494,1077.412,238.516,1078.061,238.516Z" transform="translate(-1076.633 -237.556)" fill="#ff4b48"/>
        </g>
        <g id="Group_10766" data-name="Group 10766" transform="translate(27.724 98.233)">
          <path id="Path_20017" data-name="Path 20017" d="M1103.881,239.282h.02a.363.363,0,0,0,0-.725h0a13.49,13.49,0,0,1-3.862-.659.363.363,0,0,0-.219.691A14.435,14.435,0,0,0,1103.881,239.282Z" transform="translate(-1099.561 -237.88)" fill="#ff4b48"/>
        </g>
        <g id="Group_10767" data-name="Group 10767" transform="translate(33.207 39.85)" opacity="0.23">
          <path id="Path_20018" data-name="Path 20018" d="M1093.247,162.028q.565,0,1.162-.049a.363.363,0,1,0-.061-.722c-4.882.407-7.986-2.032-8.8-3.667a.363.363,0,0,0-.651.323C1085.763,159.648,1088.648,162.028,1093.247,162.028Z" transform="translate(-1084.863 -157.389)" fill="#e9f1ff"/>
        </g>
        <g id="Group_10768" data-name="Group 10768" transform="translate(31.931 43.143)" opacity="0.23">
          <path id="Path_20019" data-name="Path 20019" d="M1097.682,166.033a.363.363,0,0,0,.033-.724,6.223,6.223,0,0,1-4.789-3.194.363.363,0,0,0-.635.352,6.874,6.874,0,0,0,5.357,3.565Z" transform="translate(-1092.246 -161.928)" fill="#e9f1ff"/>
        </g>
      </g>
    </g>
    <g id="Group_10877" data-name="Group 10877" transform="translate(1237.602 30.352)">
      <g id="Group_10843" data-name="Group 10843" transform="translate(66.725)">
        <g id="Group_10821" data-name="Group 10821" transform="translate(0 43.677)">
          <g id="Group_10812" data-name="Group 10812" transform="translate(9.466)">
            <path id="Path_20054" data-name="Path 20054" d="M799.283,208.423h-3.144a3.594,3.594,0,0,1-3.59-3.59V180.466a3.594,3.594,0,0,1,3.59-3.59h3.144a3.594,3.594,0,0,1,3.59,3.59v24.367A3.594,3.594,0,0,1,799.283,208.423ZM796.139,177.6a2.868,2.868,0,0,0-2.865,2.865v24.367a2.868,2.868,0,0,0,2.865,2.864h3.144a2.868,2.868,0,0,0,2.864-2.864V180.466a2.868,2.868,0,0,0-2.864-2.865Z" transform="translate(-792.549 -176.876)" fill="#00030e"/>
          </g>
          <g id="Group_10813" data-name="Group 10813" transform="translate(7.266 28.249)">
            <rect id="Rectangle_4640" data-name="Rectangle 4640" width="14.567" height="2.974" rx="1.487" fill="#1e7187"/>
          </g>
          <g id="Group_10814" data-name="Group 10814" transform="translate(16.834 29.736)">
            <rect id="Rectangle_4641" data-name="Rectangle 4641" width="12.513" height="19.772" rx="3.617" fill="#1e7187"/>
          </g>
          <g id="Group_10815" data-name="Group 10815" transform="translate(0 29.736)">
            <rect id="Rectangle_4642" data-name="Rectangle 4642" width="25.618" height="19.772" rx="3.419" fill="#4190aa"/>
          </g>
          <g id="Group_10816" data-name="Group 10816" transform="translate(5.827 32.575)">
            <path id="Path_20055" data-name="Path 20055" d="M787.895,235.881a.363.363,0,0,1-.363-.363V222.149a.363.363,0,1,1,.725,0v13.369A.363.363,0,0,1,787.895,235.881Z" transform="translate(-787.532 -221.786)" fill="#1e7187"/>
          </g>
          <g id="Group_10817" data-name="Group 10817" transform="translate(12.446 32.575)">
            <path id="Path_20056" data-name="Path 20056" d="M797.02,235.881a.363.363,0,0,1-.363-.363V222.149a.363.363,0,1,1,.725,0v13.369A.363.363,0,0,1,797.02,235.881Z" transform="translate(-796.657 -221.786)" fill="#1e7187"/>
          </g>
          <g id="Group_10818" data-name="Group 10818" transform="translate(19.065 32.575)">
            <path id="Path_20057" data-name="Path 20057" d="M806.145,235.881a.363.363,0,0,1-.363-.363V222.149a.363.363,0,0,1,.725,0v13.369A.363.363,0,0,1,806.145,235.881Z" transform="translate(-805.782 -221.786)" fill="#1e7187"/>
          </g>
          <g id="Group_10819" data-name="Group 10819" transform="translate(4.556 49.64)">
            <path id="Path_20058" data-name="Path 20058" d="M788.07,249.9a2.292,2.292,0,1,1,2.293-2.292A2.294,2.294,0,0,1,788.07,249.9Zm0-3.858a1.566,1.566,0,1,0,1.567,1.566A1.568,1.568,0,0,0,788.07,246.038Z" transform="translate(-785.779 -245.313)" fill="#00030e"/>
          </g>
          <g id="Group_10820" data-name="Group 10820" transform="translate(20.227 49.64)">
            <path id="Path_20059" data-name="Path 20059" d="M809.675,249.9a2.292,2.292,0,1,1,2.292-2.292A2.294,2.294,0,0,1,809.675,249.9Zm0-3.858a1.566,1.566,0,1,0,1.567,1.566A1.568,1.568,0,0,0,809.675,246.038Z" transform="translate(-807.384 -245.313)" fill="#00030e"/>
          </g>
        </g>
        <g id="Group_10842" data-name="Group 10842" transform="translate(12.319)">
          <g id="Group_10822" data-name="Group 10822" transform="translate(44.126 38.028)">
            <path id="Path_20060" data-name="Path 20060" d="M859.11,169.088c1.155,2.346,2.032,2.786,3.555,4.917a12.133,12.133,0,0,0,1.509,1.417,6.921,6.921,0,0,1,.778.654,13.848,13.848,0,0,1,1.269,1.686c.334.767.617,2.349.149,2.507-.321.1-.361-.934-.441-1.256a3.877,3.877,0,0,0-1.241-2.138,8.4,8.4,0,0,1,.778,1.6c.111.4.173,2.613-.25,2.636-.36.02-.31-.8-.3-1.166a5.358,5.358,0,0,0-.905-2.915,3.359,3.359,0,0,0,.228,1.232,5.752,5.752,0,0,1,.149,2.191c-.186.928-.525-.077-.536-.271a11.859,11.859,0,0,0-.224-1.63c-.16-.485-.284-.823-.479-1.3-.012,1.06.727,1.469-.015,3.214-.046.117-.2-.139-.227-.27-.114-.461.094-.685.014-1.157a3.047,3.047,0,0,0-1.185-2.1,4.793,4.793,0,0,1-1.1-.865,3.453,3.453,0,0,1-.408-.666c-.139-.275-.278-.55-.417-.833a26.239,26.239,0,0,1-2.493-3.981" transform="translate(-857.317 -169.088)" fill="#ffa788"/>
          </g>
          <g id="Group_10823" data-name="Group 10823" transform="translate(0 40.583)">
            <path id="Path_20061" data-name="Path 20061" d="M799.488,177.794a3.872,3.872,0,0,1-.325,1.326,6.229,6.229,0,0,0-.3,2.37c.138,1.018.569-.052.6-.261a12.166,12.166,0,0,1,.343-1.754c.2-.519.362-.878.6-1.388-.056,1.155-.881,1.557-.184,3.5.041.136.225-.141.263-.281.147-.49-.065-.749.057-1.263a3.34,3.34,0,0,1,1.423-2.2,4.956,4.956,0,0,0,1.245-.877,3.757,3.757,0,0,0,.492-.695c.166-.29.332-.58.5-.879.008-.038,1.306-1.427,1.306-1.427l-1.986-1.353a3.7,3.7,0,0,1-2.285,1.831c-.007-.012-1.066.139-1.314.2-.184.041-.379.081-.564.122a7.292,7.292,0,0,0-1.923.643c-.043.021-.1.068-.092.119s.073.073.12.083c.754.152,1.594-.228,2.276.134a.04.04,0,0,0,.027.015c-.126.092-.236.2-.36.28a6.666,6.666,0,0,0-.888.664,14.341,14.341,0,0,0-1.488,1.75c-.419.817-.82,2.521-.321,2.719.337.127.453-.986.553-1.339a4.24,4.24,0,0,1,1.49-2.249,8.867,8.867,0,0,0-.947,1.691c-.146.431-.353,2.83.107,2.883.392.049.387-.854.4-1.243A5.847,5.847,0,0,1,799.488,177.794Z" transform="translate(-796.482 -172.611)" fill="#ffa788"/>
          </g>
          <g id="Group_10824" data-name="Group 10824" transform="translate(24.835 2.047)">
            <path id="Path_20062" data-name="Path 20062" d="M838.979,126.953a1.375,1.375,0,0,0,.138-2.745l-.087-.007.009-.117a4.2,4.2,0,0,0-3.311-4.535,4.084,4.084,0,0,0-4.812,3.671l-.184,2.164c-.16,1.885,1.287,5.15,3.376,4.04l-.01.363c-.049,1.587-1.269,1.592-1.269,1.592l-1.314,1.438.571,9.449,4.5-4.938,2.2-3.465Z" transform="translate(-830.721 -119.482)" fill="#ffa788"/>
          </g>
          <g id="Group_10825" data-name="Group 10825" transform="translate(37.159 70.634)">
            <path id="Path_20063" data-name="Path 20063" d="M847.712,214.953s.116,5.856,2.366,10.044c2.829,5.265,6.094,9.284,6.782,13.337,0,0,5.7.552,4.659.035-2.143-1.061-3.991-8.649-5.7-15.076a37.577,37.577,0,0,0-3.62-9.252Z" transform="translate(-847.712 -214.041)" fill="#ffa788"/>
          </g>
          <g id="Group_10826" data-name="Group 10826" transform="translate(45.578 94.221)">
            <path id="Path_20064" data-name="Path 20064" d="M859.722,246.95l-.393,2.31a.692.692,0,0,0,.669.818h9.513c.459,0,.625-.414.411-.911-.3-.7-2.272-1.458-3.617-1.655a7.513,7.513,0,0,1-2.367-.908,1.8,1.8,0,0,1-1.644.54,5.566,5.566,0,0,1-1.926-.541A.458.458,0,0,0,859.722,246.95Z" transform="translate(-859.319 -246.56)" fill="#d8b0f5"/>
          </g>
          <g id="Group_10827" data-name="Group 10827" transform="translate(20.969 70.87)">
            <path id="Path_20065" data-name="Path 20065" d="M826.2,214.367s-.81,7.528-.81,10c0,3.807.81,15.11.81,15.11h2.3a76.6,76.6,0,0,0,2.212-14.388c.105-6.16,0-9.934,0-9.934Z" transform="translate(-825.391 -214.367)" fill="#ffa788"/>
          </g>
          <g id="Group_10828" data-name="Group 10828" transform="translate(19.624 94.244)">
            <path id="Path_20066" data-name="Path 20066" d="M827.027,246.592l.629.007a2.04,2.04,0,0,1,2.016,2.063l-.008.661a.75.75,0,0,1-.758.741L823.537,250h0A3.45,3.45,0,0,1,827.027,246.592Z" transform="translate(-823.537 -246.592)" fill="#d8b0f5"/>
          </g>
          <g id="Group_10829" data-name="Group 10829" transform="translate(25.74 7.346)">
            <path id="Path_20067" data-name="Path 20067" d="M832.922,129.14a1.921,1.921,0,0,1-.753-.2.363.363,0,0,1-.17-.47s.182-.415.258-.66a4.84,4.84,0,0,0,.123-.695.363.363,0,0,1,.721.078,5.432,5.432,0,0,1-.152.835c-.034.11-.087.249-.138.377a.474.474,0,0,0,.124.014.362.362,0,0,1,.075.721C832.981,129.139,832.952,129.14,832.922,129.14Z" transform="translate(-831.969 -126.787)" fill="#ff7f79"/>
          </g>
          <g id="Group_10830" data-name="Group 10830" transform="translate(6.409 13.939)">
            <path id="Path_20068" data-name="Path 20068" d="M843.571,156.567a112.742,112.742,0,0,1-4.591-11c-.894-2.89-2.161-5.851-4.6-7.636a18.335,18.335,0,0,0-2.509-1.723s-.529,1.221-3.039,1.338a3.994,3.994,0,0,1-2.972-1.666c-3.2,1.313-4.733,2-5.856,2.958-1.176,1-3.971,8.3-7.1,13.844a44.328,44.328,0,0,1-5.661,7.575c-.255.428-1.921,2.225-1.921,2.225a3.555,3.555,0,0,0,3.164,2.513,48.6,48.6,0,0,0,8.036-9.246,71.142,71.142,0,0,0,4.43-7.984c.257,4.008,1.66,3.283,1.951,8.249,4.148.787,4.645,2.183,10.665-.595,0,0,1.385-6.293,1.707-6.454.24-.12,5.727,12.537,9.216,16.533a7.876,7.876,0,0,0,2.774-2.752C846.431,162.44,844.338,158.2,843.571,156.567Z" transform="translate(-805.317 -135.878)" fill="#d8b0f5"/>
          </g>
          <g id="Group_10831" data-name="Group 10831" transform="translate(23.746 33.479)">
            <path id="Path_20069" data-name="Path 20069" d="M829.22,165.466l.243-2.054a19.365,19.365,0,0,0,5.629.368,15.949,15.949,0,0,0,5.037-.963l.566,2.661s-3.9.32-6.09.351A49.564,49.564,0,0,1,829.22,165.466Z" transform="translate(-829.22 -162.817)" fill="#274fd3"/>
          </g>
          <g id="Group_10832" data-name="Group 10832" transform="translate(18.744 36.128)">
            <path id="Path_20070" data-name="Path 20070" d="M823.831,204.135s-2-18.26-1.391-22.792c1.345-9.96,4.886-14.874,4.886-14.874l11.475.012s5.64,10.6,6.2,13.9c.825,4.879,3.552,15.939,7.588,21.011,0,0-9.466,3.711-16.6,3.845A75.9,75.9,0,0,1,823.831,204.135Z" transform="translate(-822.324 -166.469)" fill="#274fd3"/>
          </g>
          <g id="Group_10833" data-name="Group 10833" transform="translate(25.118 14.922)">
            <path id="Path_20071" data-name="Path 20071" d="M835.906,140.079c-.2,0-.4-.008-.615-.025a7.426,7.426,0,0,1-4.08-2.209.362.362,0,0,1,.527-.5,6.826,6.826,0,0,0,3.61,1.984,6.617,6.617,0,0,0,3.223-.516.363.363,0,0,1,.329.647A7.091,7.091,0,0,1,835.906,140.079Z" transform="translate(-831.111 -137.233)" fill="#b87fea"/>
          </g>
          <g id="Group_10834" data-name="Group 10834" transform="translate(23.711 35.766)">
            <path id="Path_20072" data-name="Path 20072" d="M833.673,167.555a12.062,12.062,0,0,1-4.282-.51.362.362,0,0,1,.285-.667h0a13.679,13.679,0,0,0,4.934.437,19.789,19.789,0,0,0,5.619-.823.363.363,0,0,1,.251.68,20.165,20.165,0,0,1-5.848.868Q834.124,167.555,833.673,167.555Z" transform="translate(-829.172 -165.969)" fill="#0f2751"/>
          </g>
          <g id="Group_10835" data-name="Group 10835" transform="translate(25.248)">
            <path id="Path_20073" data-name="Path 20073" d="M849,129.521c-.512-1.136-1.725-1.2-1.966-1.725-.23-.5.006-1.144-.685-1.893a1.952,1.952,0,0,1-.373-.448,1.6,1.6,0,0,1-.115-.522,3.949,3.949,0,0,0-2.877-3.238,1.088,1.088,0,0,1-.371-.136.957.957,0,0,1-.276-.385c-.828-1.706-1.763-3.6-3.539-4.263a7.2,7.2,0,0,0-4.2.177,4.734,4.734,0,0,0-1.36.486c-.841.515-2.115.779-1.93,2.639s2.891-1.211,4.432,3.678a1.351,1.351,0,0,1,1.175-1.123.918.918,0,0,1,.9,1.163c-.167.39-.617.563-.911.867-.239.247-.6.418-.627,1.03-.017.472.472.716.623,1.094.1.259-.72,1.3.4,2.243.714.6-.511,3.521,1.261,3.921s2.228.44,3.142,1.479a1.762,1.762,0,0,0,2.618.321c.443-.443.988-1.549,1.578-1.969.623-.443,1.994,0,2.769-.775A2.265,2.265,0,0,0,849,129.521Z" transform="translate(-831.291 -116.66)" fill="#ffca66"/>
          </g>
          <g id="Group_10836" data-name="Group 10836" transform="translate(22.974 5.869)">
            <ellipse id="Ellipse_386" data-name="Ellipse 386" cx="1.63" cy="1.63" rx="1.63" ry="1.63" fill="#00030e"/>
          </g>
          <g id="Group_10837" data-name="Group 10837" transform="translate(26.66 5.869)">
            <ellipse id="Ellipse_387" data-name="Ellipse 387" cx="1.63" cy="1.63" rx="1.63" ry="1.63" fill="#00030e"/>
          </g>
          <g id="Group_10838" data-name="Group 10838" transform="translate(25.277 6.544)">
            <path id="Path_20074" data-name="Path 20074" d="M831.692,127a.363.363,0,0,1-.049-.722l4.281-.593a.362.362,0,0,1,.1.718l-4.282.593A.387.387,0,0,1,831.692,127Z" transform="translate(-831.33 -125.682)" fill="#00030e"/>
          </g>
          <g id="Group_10839" data-name="Group 10839" transform="translate(34.919 24.698)">
            <path id="Path_20075" data-name="Path 20075" d="M846.067,153.4a.362.362,0,0,1-.318-.189l-1.081-1.964a.363.363,0,0,1,.636-.35l1.081,1.965a.363.363,0,0,1-.318.537Z" transform="translate(-844.624 -150.71)" fill="#b87fea"/>
          </g>
          <g id="Group_10840" data-name="Group 10840" transform="translate(26.221 10.288)">
            <path id="Path_20076" data-name="Path 20076" d="M833.1,131.747c-.044,0-.089,0-.136-.005a.362.362,0,0,1-.336-.387.368.368,0,0,1,.388-.336.716.716,0,0,0,.47-.094.372.372,0,0,1,.507.041.357.357,0,0,1-.02.5A1.288,1.288,0,0,1,833.1,131.747Z" transform="translate(-832.632 -130.843)" fill="#ff4b48"/>
          </g>
          <g id="Group_10841" data-name="Group 10841" transform="translate(21.623 20.405)">
            <path id="Path_20077" data-name="Path 20077" d="M826.727,150.3a.363.363,0,0,1-.359-.314,14.794,14.794,0,0,1,.417-4.926.362.362,0,1,1,.7.186,14.32,14.32,0,0,0-.4,4.642.362.362,0,0,1-.31.408A.382.382,0,0,1,826.727,150.3Z" transform="translate(-826.292 -144.792)" fill="#b87fea"/>
          </g>
        </g>
      </g>
      <g id="Group_10875" data-name="Group 10875" transform="translate(27.265 44.569)">
        <g id="Group_10844" data-name="Group 10844" transform="translate(23.182 10.614)">
          <path id="Path_20078" data-name="Path 20078" d="M758.093,193.724a1.185,1.185,0,0,1-.15-.413,1.084,1.084,0,0,1,.079-.572s-.8.856-.825.866c-.008,0,0,.041.023.091a.586.586,0,0,0-.163.433.593.593,0,1,0,1.184-.056A.581.581,0,0,0,758.093,193.724Z" transform="translate(-757.056 -192.739)" fill="#ffa788"/>
        </g>
        <g id="Group_10845" data-name="Group 10845" transform="translate(23.526 27.802)">
          <path id="Path_20079" data-name="Path 20079" d="M758.345,216.436a7.648,7.648,0,0,1,2.1,1.4,2.36,2.36,0,0,1,.456,2.473c-.366.674-3.371-1.939-3.371-1.939Z" transform="translate(-757.53 -216.436)" fill="#ffa788"/>
        </g>
        <g id="Group_10846" data-name="Group 10846" transform="translate(14.751 3.92)">
          <ellipse id="Ellipse_388" data-name="Ellipse 388" cx="4.513" cy="4.195" rx="4.513" ry="4.195" transform="translate(0 8.615) rotate(-72.626)" fill="#ffa788"/>
        </g>
        <g id="Group_10847" data-name="Group 10847" transform="translate(1.381 31.913)">
          <path id="Path_20080" data-name="Path 20080" d="M734.49,222.1l1.648,5.244s-.824-.45-3.371.674c-1.388.612-5.768,4.27-5.768,4.27l.749,1.648s10.787-2.472,11.236-3.746,1.348-5.169,1.348-5.169Z" transform="translate(-726.999 -222.103)" fill="#ffa788"/>
        </g>
        <g id="Group_10848" data-name="Group 10848" transform="translate(10.782 32.961)">
          <path id="Path_20081" data-name="Path 20081" d="M740.859,223.549l1.5,6.967s-1.193,1.151-1.641,4.6-.756,7.314-.756,7.314h1.873s4.045-10.113,4.27-11.836a53.511,53.511,0,0,0,0-6.143Z" transform="translate(-739.96 -223.549)" fill="#ffa788"/>
        </g>
        <g id="Group_10849" data-name="Group 10849" transform="translate(11.661 34.528)">
          <path id="Path_20082" data-name="Path 20082" d="M742.549,231.5a.363.363,0,0,1-.355-.292l-1.015-5.069a.362.362,0,1,1,.711-.142l1.016,5.069a.362.362,0,0,1-.284.426A.35.35,0,0,1,742.549,231.5Z" transform="translate(-741.172 -225.709)" fill="#ff7f79"/>
        </g>
        <g id="Group_10850" data-name="Group 10850" transform="translate(3.851 11.381)">
          <path id="Path_20083" data-name="Path 20083" d="M730.4,213.112a26.424,26.424,0,0,0,9.735,4.715,47.585,47.585,0,0,0,8.255,1.536s.735-15.7-.771-19.183S741.5,193.8,741.5,193.8Z" transform="translate(-730.405 -193.796)" fill="#ffb424"/>
        </g>
        <g id="Group_10865" data-name="Group 10865" transform="translate(24.159 29.479)">
          <g id="Group_10851" data-name="Group 10851" transform="translate(0 12.765)">
            <path id="Path_20084" data-name="Path 20084" d="M758.528,241.342c1.361,1.668,3.367-3.7,3.367-3.7l-1.473-1.3S757.808,240.459,758.528,241.342Z" transform="translate(-758.403 -236.346)" fill="#b87fea"/>
          </g>
          <g id="Group_10852" data-name="Group 10852" transform="translate(4.627 14.9)">
            <path id="Path_20085" data-name="Path 20085" d="M765.565,245.692c2.267,1.307,1.528-5.554,1.528-5.554l-2.19-.849S764.364,245,765.565,245.692Z" transform="translate(-764.782 -239.289)" fill="#b87fea"/>
          </g>
          <g id="Group_10853" data-name="Group 10853" transform="translate(0.751)">
            <path id="Path_20086" data-name="Path 20086" d="M760.312,218.751c1.21-.151,1.573,4.888,1.573,4.888l-.225,3.427s-1.4-.618-1.966-3.877S759.563,218.844,760.312,218.751Z" transform="translate(-759.438 -218.747)" fill="#b87fea"/>
          </g>
          <g id="Group_10854" data-name="Group 10854" transform="translate(7.105 8.877)">
            <path id="Path_20087" data-name="Path 20087" d="M770.778,239c-1.174.331-2.288-4.6-2.288-4.6l-.292-3.422s1.481.4,2.526,3.538S771.5,238.8,770.778,239Z" transform="translate(-768.198 -230.986)" fill="#b87fea"/>
          </g>
          <g id="Group_10855" data-name="Group 10855" transform="translate(4.284 2.475)">
            <ellipse id="Ellipse_389" data-name="Ellipse 389" cx="0.805" cy="0.805" rx="0.805" ry="0.805" fill="#b87fea"/>
          </g>
          <g id="Group_10856" data-name="Group 10856" transform="translate(8.292 6.708)">
            <ellipse id="Ellipse_390" data-name="Ellipse 390" cx="0.805" cy="0.805" rx="0.805" ry="0.805" fill="#b87fea"/>
          </g>
          <g id="Group_10857" data-name="Group 10857" transform="translate(2.43 3.374)">
            <ellipse id="Ellipse_391" data-name="Ellipse 391" cx="3.333" cy="3.333" rx="3.333" ry="3.333" fill="#d8b0f5"/>
          </g>
          <g id="Group_10858" data-name="Group 10858" transform="translate(1.42 7.794)">
            <path id="Path_20088" data-name="Path 20088" d="M761.755,229.493s-3.352,5.65.337,8.367c4.269,3.146,5.253-1.393,5.028-3.64a6.691,6.691,0,0,0-1.348-3.529Z" transform="translate(-760.36 -229.493)" fill="#d8b0f5"/>
          </g>
          <g id="Group_10859" data-name="Group 10859" transform="translate(4.143 6.773)">
            <path id="Path_20089" data-name="Path 20089" d="M764.372,228.119l1.188.926a.175.175,0,0,1-.029.293l-.855.038a.163.163,0,0,1-.227-.144l-.333-.964A.161.161,0,0,1,764.372,228.119Z" transform="translate(-764.115 -228.085)" fill="#b87fea"/>
          </g>
          <g id="Group_10860" data-name="Group 10860" transform="translate(3.976 5.344)">
            <path id="Path_20090" data-name="Path 20090" d="M764.408,226.967a.361.361,0,0,1-.223-.078l-.161-.126a.363.363,0,0,1,.448-.572l.161.126a.363.363,0,0,1-.224.648Z" transform="translate(-763.885 -226.116)" fill="#b87fea"/>
          </g>
          <g id="Group_10861" data-name="Group 10861" transform="translate(6.349 7.413)">
            <path id="Path_20091" data-name="Path 20091" d="M767.68,229.819a.361.361,0,0,1-.224-.077l-.16-.126a.363.363,0,1,1,.447-.571l.16.126a.362.362,0,0,1-.223.648Z" transform="translate(-767.157 -228.967)" fill="#b87fea"/>
          </g>
          <g id="Group_10862" data-name="Group 10862" transform="translate(3.955 7.299)">
            <path id="Path_20092" data-name="Path 20092" d="M764.218,230.016a.363.363,0,0,1-.288-.582l.365-.479a.363.363,0,1,1,.577.44l-.365.479A.362.362,0,0,1,764.218,230.016Z" transform="translate(-763.855 -228.811)" fill="#b87fea"/>
          </g>
          <g id="Group_10863" data-name="Group 10863" transform="translate(3.522 7.648)">
            <path id="Path_20093" data-name="Path 20093" d="M764.236,230.632a.358.358,0,0,1-.256-.106l-.615-.614a.363.363,0,0,1,.513-.513l.615.614a.362.362,0,0,1-.257.619Z" transform="translate(-763.259 -229.292)" fill="#b87fea"/>
          </g>
          <g id="Group_10864" data-name="Group 10864" transform="translate(4.452 9.321)">
            <path id="Path_20094" data-name="Path 20094" d="M765.824,233.032a4.708,4.708,0,0,1-1.005-.112.362.362,0,0,1,.169-.705,3.543,3.543,0,0,0,1.412.029,3.353,3.353,0,0,0,1.2-.564.362.362,0,0,1,.463.558,4.013,4.013,0,0,1-1.484.709A3.125,3.125,0,0,1,765.824,233.032Z" transform="translate(-764.541 -231.598)" fill="#b87fea"/>
          </g>
        </g>
        <g id="Group_10866" data-name="Group 10866" transform="translate(10.039 50.706)">
          <path id="Path_20095" data-name="Path 20095" d="M739.2,248.264l-.26,1.488a.449.449,0,0,0,.442.527H744.4c.3,0,.414-.266.273-.587a2.268,2.268,0,0,0-1.107-1.066,8.6,8.6,0,0,0-1.568-.585,1.2,1.2,0,0,1-1.088.347,3.74,3.74,0,0,1-1.276-.347A.3.3,0,0,0,739.2,248.264Z" transform="translate(-738.936 -248.013)" fill="#ff4b48"/>
        </g>
        <g id="Group_10867" data-name="Group 10867" transform="translate(9.967 3.095)">
          <path id="Path_20096" data-name="Path 20096" d="M752.935,185.685c-.172,1.735-2.693-1.129-4.13,3.428a1.259,1.259,0,0,0-1.1-1.047.855.855,0,0,0-.841,1.084c.155.363.574.524.849.808a2.44,2.44,0,0,1,.462.833l.485,1.228a1.531,1.531,0,0,1,.138,1.1,1.644,1.644,0,0,1-.506.584,6.352,6.352,0,0,0-.773.776c-.174.211-.3.555-.573.63-.638.178-1.559-.379-2.1-.642a10.932,10.932,0,0,0-2.461-.911,15.2,15.2,0,0,1-2.115-.434,2.05,2.05,0,0,1-1.416-1.493,1.128,1.128,0,0,1,.071-.646c.089-.162.26-.243.347-.416a1.509,1.509,0,0,0,.107-.487,3.679,3.679,0,0,1,2.681-3.017,1.012,1.012,0,0,0,.346-.127.891.891,0,0,0,.257-.358c.771-1.589,1.642-3.355,3.3-3.972a6.711,6.711,0,0,1,3.909.165,4.4,4.4,0,0,1,1.267.453C751.92,183.705,753.107,183.951,752.935,185.685Z" transform="translate(-738.837 -182.373)" fill="#ff4b48"/>
        </g>
        <g id="Group_10868" data-name="Group 10868" transform="translate(14.033)">
          <path id="Path_20097" data-name="Path 20097" d="M749.11,180.446a2.334,2.334,0,1,1-2.328-2.34A2.335,2.335,0,0,1,749.11,180.446Z" transform="translate(-744.442 -178.106)" fill="#ff4b48"/>
        </g>
        <g id="Group_10869" data-name="Group 10869" transform="translate(17.025 17.668)">
          <path id="Path_20098" data-name="Path 20098" d="M748.567,207.031a13.955,13.955,0,0,0,2.558,5.243,11.442,11.442,0,0,0,4.466,3.181l1.655-2.816s-2.937-2.318-3.833-4.1-1.111-6.08-1.111-6.08" transform="translate(-748.567 -202.464)" fill="#ffb424"/>
        </g>
        <g id="Group_10870" data-name="Group 10870" transform="translate(16.004 20.539)">
          <path id="Path_20099" data-name="Path 20099" d="M753.176,215.856a.362.362,0,0,1-.17-.043,12.558,12.558,0,0,1-4.337-4.308,13.809,13.809,0,0,1-1.506-4.675.362.362,0,0,1,.315-.4.37.37,0,0,1,.4.314,13.332,13.332,0,0,0,1.407,4.39,12.054,12.054,0,0,0,4.058,4.045.363.363,0,0,1-.172.682Z" transform="translate(-747.16 -206.422)" fill="#00030e"/>
        </g>
        <g id="Group_10871" data-name="Group 10871" transform="translate(4.188 29.116)">
          <path id="Path_20100" data-name="Path 20100" d="M739.008,223.059a.382.382,0,0,1-.105-.015,26.839,26.839,0,0,1-7.9-4.15.363.363,0,1,1,.45-.569,26.625,26.625,0,0,0,7.656,4.023.363.363,0,0,1-.1.71Z" transform="translate(-730.869 -218.247)" fill="#00030e"/>
        </g>
        <g id="Group_10872" data-name="Group 10872" transform="translate(21.981 9.608)">
          <path id="Path_20101" data-name="Path 20101" d="M756.278,191.41a.665.665,0,0,0-.878.336l1.214.542A.665.665,0,0,0,756.278,191.41Z" transform="translate(-755.4 -191.352)" fill="#00030e"/>
        </g>
        <g id="Group_10873" data-name="Group 10873" transform="translate(21.885 12.395)">
          <path id="Path_20102" data-name="Path 20102" d="M755.5,196.129a2.115,2.115,0,0,0,.5-.334l-.689-.6A1.215,1.215,0,0,0,755.5,196.129Z" transform="translate(-755.268 -195.195)" fill="#fff"/>
        </g>
        <g id="Group_10874" data-name="Group 10874" transform="translate(0 41.263)">
          <path id="Path_20103" data-name="Path 20103" d="M726.8,235.014l-1.412.536a.449.449,0,0,0-.226.65l2.56,4.307c.155.262.44.22.643-.065a2.259,2.259,0,0,0,.351-1.495,8.582,8.582,0,0,0-.3-1.646s-.477-.033-.854-.758a3.75,3.75,0,0,1-.352-1.275A.3.3,0,0,0,726.8,235.014Z" transform="translate(-725.095 -234.994)" fill="#ff4b48"/>
        </g>
      </g>
      <g id="Group_10876" data-name="Group 10876" transform="translate(0 97.479)">
        <path id="Path_20104" data-name="Path 20104" d="M873.957,251.777H715.506a.368.368,0,1,1,0-.725H873.957a.368.368,0,1,1,0,.725Z" transform="translate(-715.079 -251.052)" fill="#00030e"/>
      </g>
    </g>
  </g>
</svg>
