<svg xmlns="http://www.w3.org/2000/svg" width="289" height="107.622" viewBox="0 0 289 107.622">
  <g id="Group_12828" data-name="Group 12828" transform="translate(-154.866 -19.016)">
    <g id="Group_10664" data-name="Group 10664" transform="translate(375.513 19.016)">
      <g id="Group_10628" data-name="Group 10628" transform="translate(39.635 58.048)">
        <rect id="Rectangle_4615" data-name="Rectangle 4615" width="8.34" height="18.981" rx="3.418" fill="#ce3838"/>
      </g>
      <g id="Group_10629" data-name="Group 10629" transform="translate(29.947 48.793)">
        <path id="Path_19920" data-name="Path 19920" d="M636.82,171.5s.059.493.078,1.372a13.814,13.814,0,0,0,.339,2.142l4.372-1.317-.4-1.821-1.138-.785-.292-1.052Z" transform="translate(-636.82 -170.039)" fill="#ffa788"/>
      </g>
      <g id="Group_10630" data-name="Group 10630" transform="translate(28.072 52.287)">
        <path id="Path_19921" data-name="Path 19921" d="M645.769,181.23a.359.359,0,0,1-.359-.359,5.244,5.244,0,1,0-10.488,0,.359.359,0,1,1-.717,0,5.961,5.961,0,1,1,11.922,0A.359.359,0,0,1,645.769,181.23Z" transform="translate(-634.205 -174.909)" fill="#00030e"/>
      </g>
      <g id="Group_10631" data-name="Group 10631" transform="translate(20.091 58.145)">
        <rect id="Rectangle_4616" data-name="Rectangle 4616" width="25.612" height="18.787" rx="3.37" fill="#ff4b48"/>
      </g>
      <g id="Group_10632" data-name="Group 10632" transform="translate(33.366 50.365)">
        <path id="Rectangle_4617" data-name="Rectangle 4617" d="M0,0H1A0,0,0,0,1,1,0V2.7a0,0,0,0,1,0,0H1a1,1,0,0,1-1-1V0A0,0,0,0,1,0,0Z" transform="translate(0 0.784) rotate(-51.424)" fill="#ffa788"/>
      </g>
      <g id="Group_10633" data-name="Group 10633" transform="translate(28.072 60.829)">
        <path id="Path_19922" data-name="Path 19922" d="M634.564,200.238a.359.359,0,0,1-.359-.359v-12.7a.359.359,0,1,1,.717,0v12.7A.359.359,0,0,1,634.564,200.238Z" transform="translate(-634.205 -186.817)" fill="#00030e"/>
      </g>
      <g id="Group_10634" data-name="Group 10634" transform="translate(23.261 92.998)">
        <path id="Path_19923" data-name="Path 19923" d="M627.5,232.764l1.508,10.17,3.339-.692.336-10.578Z" transform="translate(-627.498 -231.664)" fill="#ffa788"/>
      </g>
      <g id="Group_10635" data-name="Group 10635" transform="translate(4.692 92.32)">
        <path id="Path_19924" data-name="Path 19924" d="M601.611,231.129l.158,10.28,3.4-.247,1.723-10.443Z" transform="translate(-601.611 -230.72)" fill="#ffa788"/>
      </g>
      <g id="Group_10636" data-name="Group 10636" transform="translate(16.75 50.023)">
        <path id="Path_19925" data-name="Path 19925" d="M625.345,171.753s4.376,22.415,4.854,24.086.608,25.417.608,25.417-6.193.8-6.215.712c-2.107-8.984-2.667-13.97-2.552-15.886.13-2.164.308-5.53.2-6.175-.159-.965-3.82-11.15-3.82-11.15l.467-16.723Z" transform="translate(-618.422 -171.753)" fill="#0f2751"/>
      </g>
      <g id="Group_10637" data-name="Group 10637" transform="translate(3.485 49.089)">
        <path id="Path_19926" data-name="Path 19926" d="M604.986,170.452a36.126,36.126,0,0,0-.523,8.035c.1,1.247.457,2.514.48,3.753.022,1.174-.089,2.4-.1,3.587-.024,2.376-.05,4.752-.1,7.127a18.542,18.542,0,0,1-.161,3.554,42.416,42.416,0,0,1-1.85,4.525c-1.432,3.188-2.737,19.271-2.8,19.948,1.564.014,4.277-.09,5.842-.074,0,0,5.066-19.876,5.83-21.7s4-17.129,4.737-19.078,3.392-8.03,3.392-8.03l-6.928-.787A67.369,67.369,0,0,0,604.986,170.452Z" transform="translate(-599.929 -170.451)" fill="#0f2751"/>
      </g>
      <g id="Group_10638" data-name="Group 10638" transform="translate(23.088 20.921)">
        <path id="Path_19927" data-name="Path 19927" d="M633.616,161.193l4.574-1.384s-5.713-13.007-5.823-13.623-1.953-15-1.953-15l-3.156,21.549Z" transform="translate(-627.258 -131.182)" fill="#274fd3"/>
      </g>
      <g id="Group_10639" data-name="Group 10639" transform="translate(5.82 15.76)">
        <path id="Path_19928" data-name="Path 19928" d="M603.876,127.673c-.831,1.153,1.2,1.278.856,2.429-1.413,4.773.138,9.154-.213,14.12-.355,5.019.376,11.046-1.334,15.777,5.834,2.329,18.451,2.295,18.426,1.534-.727-21.867,3.714-22.044,2-32.384-.268-1.617-4.483-3.706-6.058-4.155C613.458,123.827,607.469,122.684,603.876,127.673Z" transform="translate(-603.184 -123.987)" fill="#274fd3"/>
      </g>
      <g id="Group_10640" data-name="Group 10640" transform="translate(10.361 3.391)">
        <path id="Path_19929" data-name="Path 19929" d="M618.339,114.17c.7-.123.993-1.587.919-2.305a1.367,1.367,0,0,0-1.5-1.219l-.086.009-.03-.286a4.074,4.074,0,0,0-8.122.526,15.59,15.59,0,0,0,.14,2.616c.365,1.836,1.734,4.852,3.558,3.387l.189,1.174-.042,1.847,5.976,3.561-.35-4.877Z" transform="translate(-609.515 -106.744)" fill="#ffa788"/>
      </g>
      <g id="Group_10646" data-name="Group 10646" transform="translate(4.385 49.978)">
        <g id="Group_10641" data-name="Group 10641">
          <path id="Path_19930" data-name="Path 19930" d="M604.641,172.139l.078,2.208-3.535-.119.073-2.537Z" transform="translate(-601.184 -171.691)" fill="#ffa788"/>
        </g>
        <g id="Group_10642" data-name="Group 10642" transform="translate(2.96 5.185)">
          <path id="Path_19931" data-name="Path 19931" d="M606.207,178.925a.5.5,0,0,1,.565.42l.346,2.351c0,.012,0,.023,0,.035a.463.463,0,0,1-.005.1.474.474,0,0,1-.013.083.382.382,0,0,1-.006.038l-.816,2.232a.5.5,0,0,1-.935-.341l.776-2.119-.329-2.234A.5.5,0,0,1,606.207,178.925Z" transform="translate(-605.311 -178.919)" fill="#ffa788"/>
        </g>
        <g id="Group_10643" data-name="Group 10643" transform="translate(2.303 5.267)">
          <path id="Path_19932" data-name="Path 19932" d="M605.091,179.042a.5.5,0,0,1,.58.4l.439,2.336c0,.012,0,.023,0,.035a.507.507,0,0,1,0,.1.469.469,0,0,1-.009.083.348.348,0,0,1,0,.039l-.729,2.262a.5.5,0,1,1-.947-.3l.692-2.147-.417-2.219A.5.5,0,0,1,605.091,179.042Z" transform="translate(-604.395 -179.033)" fill="#ffa788"/>
        </g>
        <g id="Group_10644" data-name="Group 10644" transform="translate(1.612 4.412)">
          <path id="Path_19933" data-name="Path 19933" d="M604.128,177.851a.5.5,0,0,1,.58.4l.439,2.336c0,.012,0,.023,0,.035a.507.507,0,0,1,0,.1.542.542,0,0,1-.009.083.363.363,0,0,1,0,.039L604.4,183.1a.5.5,0,1,1-.947-.3l.692-2.147-.417-2.219A.5.5,0,0,1,604.128,177.851Z" transform="translate(-603.432 -177.842)" fill="#ffa788"/>
        </g>
        <g id="Group_10645" data-name="Group 10645" transform="translate(0 2.537)">
          <path id="Path_19934" data-name="Path 19934" d="M605.726,179.122l-.168-.947-.846-2.922-3.527-.025,2.152,3.75,1.79.21Z" transform="translate(-601.184 -175.228)" fill="#ffa788"/>
        </g>
      </g>
      <g id="Group_10647" data-name="Group 10647" transform="translate(0 18.776)">
        <path id="Path_19935" data-name="Path 19935" d="M602.249,128.376c-2.571,2.447-6.307,12.512-7.059,16.058-.8,3.75,2.645,18.967,2.645,18.967l5.321-1-.768-15.928,5.735-12.734S603.69,127,602.249,128.376Z" transform="translate(-595.071 -128.192)" fill="#274fd3"/>
      </g>
      <g id="Group_10648" data-name="Group 10648" transform="translate(39.295 60.829)">
        <path id="Path_19936" data-name="Path 19936" d="M650.21,200.238a.359.359,0,0,1-.359-.359v-12.7a.359.359,0,0,1,.717,0v12.7A.358.358,0,0,1,650.21,200.238Z" transform="translate(-649.851 -186.817)" fill="#00030e"/>
      </g>
      <g id="Group_10649" data-name="Group 10649" transform="translate(28.674 64.145)">
        <path id="Path_19937" data-name="Path 19937" d="M645.4,192.158h-10a.359.359,0,1,1,0-.717h10a.359.359,0,1,1,0,.717Z" transform="translate(-635.045 -191.441)" fill="#00030e"/>
      </g>
      <g id="Group_10650" data-name="Group 10650" transform="translate(30.586 52.945)">
        <rect id="Rectangle_4618" data-name="Rectangle 4618" width="1.209" height="2.705" rx="0.605" transform="translate(0 0.301) rotate(-14.422)" fill="#ffa788"/>
      </g>
      <g id="Group_10651" data-name="Group 10651" transform="translate(31.6 52.033)">
        <rect id="Rectangle_4619" data-name="Rectangle 4619" width="1.209" height="3.336" rx="0.605" transform="translate(0 0.301) rotate(-14.422)" fill="#ffa788"/>
      </g>
      <g id="Group_10652" data-name="Group 10652" transform="translate(32.754 51.736)">
        <rect id="Rectangle_4620" data-name="Rectangle 4620" width="1.209" height="3.336" rx="0.605" transform="translate(0 0.301) rotate(-14.422)" fill="#ffa788"/>
      </g>
      <g id="Group_10653" data-name="Group 10653" transform="translate(34.099 52.041)">
        <rect id="Rectangle_4621" data-name="Rectangle 4621" width="1.209" height="2.705" rx="0.605" transform="translate(0 0.301) rotate(-14.422)" fill="#ffa788"/>
      </g>
      <g id="Group_10654" data-name="Group 10654" transform="translate(3.19 102.353)">
        <path id="Path_19938" data-name="Path 19938" d="M601.167,244.706s-2.041,3.465-1.582,4.133,11.993.669,11.993.669.408-1.287-2.807-2.024-4.193-2.368-4.193-2.368Z" transform="translate(-599.518 -244.706)" fill="#0f2751"/>
      </g>
      <g id="Group_10655" data-name="Group 10655" transform="translate(23.451 102.808)">
        <path id="Path_19939" data-name="Path 19939" d="M628.864,245.34s-1.516,3.657-.991,4.275,12-.552,12-.552.275-1.322-3-1.729-4.411-1.93-4.411-1.93Z" transform="translate(-627.763 -245.34)" fill="#0f2751"/>
      </g>
      <g id="Group_10656" data-name="Group 10656" transform="translate(8.75)">
        <path id="Path_19940" data-name="Path 19940" d="M609.2,108.032c1.173.387,2.963-1.833,4.622-.114s2.02,2.749,2.417,2.563,1.039-1.336,1.682-.5-.345,2.166-.345,2.166l.233,1.427a3.713,3.713,0,0,0,2.61-2.506c.4-1.937-.708-1.971-.708-1.971a2.8,2.8,0,0,0,.785-2.412,1.107,1.107,0,0,0-1.589-.669s-.207-2.756-1.856-3.388c-2.011-.77-2.6.517-2.6.517a2.986,2.986,0,0,0-2.785-1.11,3.561,3.561,0,0,0-2.658,2.145s-1.371-.595-1.722.629A4.465,4.465,0,0,0,609.2,108.032Z" transform="translate(-607.268 -102.016)" fill="#0f2751"/>
      </g>
      <g id="Group_10657" data-name="Group 10657" transform="translate(13.261 7.79)">
        <path id="Path_19941" data-name="Path 19941" d="M613.558,113.437a.561.561,0,0,1,1.123,0" transform="translate(-613.558 -112.876)" fill="#00030e"/>
      </g>
      <g id="Group_10658" data-name="Group 10658" transform="translate(10.361 7.79)">
        <path id="Path_19942" data-name="Path 19942" d="M609.515,113.437a.561.561,0,0,1,1.123,0" transform="translate(-609.515 -112.876)" fill="#00030e"/>
      </g>
      <g id="Group_10659" data-name="Group 10659" transform="translate(11.103 7.739)">
        <path id="Path_19943" data-name="Path 19943" d="M611.735,115.8a2.582,2.582,0,0,1-.988-.271.358.358,0,0,1-.168-.464c0-.006.261-.6.369-.941a6.844,6.844,0,0,0,.176-1,.365.365,0,0,1,.4-.318.359.359,0,0,1,.318.4,7.728,7.728,0,0,1-.207,1.141c-.062.2-.166.463-.252.672a1.119,1.119,0,0,0,.389.069.363.363,0,0,1,.395.318.359.359,0,0,1-.319.395A1.077,1.077,0,0,1,611.735,115.8Z" transform="translate(-610.549 -112.806)" fill="#ff7f79"/>
      </g>
      <g id="Group_10660" data-name="Group 10660" transform="translate(11.918 11.145)">
        <path id="Path_19944" data-name="Path 19944" d="M612.2,118.526c-.059,0-.12,0-.183-.007a.359.359,0,1,1,.052-.715,1.078,1.078,0,0,0,.765-.164.364.364,0,0,1,.5.032.355.355,0,0,1-.018.5A1.648,1.648,0,0,1,612.2,118.526Z" transform="translate(-611.686 -117.553)" fill="#ff4b48"/>
      </g>
      <g id="Group_10661" data-name="Group 10661" transform="translate(23.944 32)">
        <path id="Path_19945" data-name="Path 19945" d="M628.81,158.455H628.8a.359.359,0,0,1-.35-.367,46.643,46.643,0,0,1,.447-5.638,46.236,46.236,0,0,0,.431-5.472.393.393,0,0,1,.366-.351.36.36,0,0,1,.352.367,45.867,45.867,0,0,1-.443,5.591,46.921,46.921,0,0,0-.435,5.521A.358.358,0,0,1,628.81,158.455Z" transform="translate(-628.451 -146.627)" fill="#00030e"/>
      </g>
      <g id="Group_10662" data-name="Group 10662" transform="translate(6.96 25.717)">
        <path id="Path_19946" data-name="Path 19946" d="M605.941,164.883a.358.358,0,0,1-.356-.323c-.053-.528-1.283-12.959-.611-15.937a50.943,50.943,0,0,1,4.259-10.567.359.359,0,1,1,.631.341,51.369,51.369,0,0,0-4.191,10.382c-.646,2.866.613,15.58.626,15.708a.359.359,0,0,1-.321.393Z" transform="translate(-604.774 -137.869)" fill="#00030e"/>
      </g>
      <g id="Group_10663" data-name="Group 10663" transform="translate(17.053 58.405)">
        <path id="Path_19947" data-name="Path 19947" d="M619.2,194.27a.329.329,0,0,1-.086-.011.358.358,0,0,1-.263-.433l2.482-10.113a.359.359,0,1,1,.7.171L619.55,194A.359.359,0,0,1,619.2,194.27Z" transform="translate(-618.843 -183.438)" fill="#00030e"/>
      </g>
    </g>
    <g id="Group_10716" data-name="Group 10716" transform="translate(287.117 26.469)">
      <g id="Group_10697" data-name="Group 10697" transform="translate(28.961 0)">
        <g id="Group_10665" data-name="Group 10665" transform="translate(57.346 30.701)">
          <rect id="Rectangle_4622" data-name="Rectangle 4622" width="4.878" height="9.643" transform="translate(5.006 0) rotate(31.276)" fill="#cfdefb"/>
        </g>
        <g id="Group_10666" data-name="Group 10666" transform="translate(54.918 33.836)">
          <path id="Rectangle_4623" data-name="Rectangle 4623" d="M.758,0H8.263a.758.758,0,0,1,.758.758V5.413a0,0,0,0,1,0,0H0a0,0,0,0,1,0,0V.758A.758.758,0,0,1,.758,0Z" transform="matrix(-0.361, 0.933, -0.933, -0.361, 8.305, 1.954)" fill="#ff4b48"/>
        </g>
        <g id="Group_10673" data-name="Group 10673" transform="translate(50.907 36.252)">
          <g id="Group_10667" data-name="Group 10667">
            <path id="Path_19948" data-name="Path 19948" d="M584.9,162.945l2.068.778L585.5,166.94l-2.314-1.044Z" transform="translate(-583.182 -162.945)" fill="#ffa788"/>
          </g>
          <g id="Group_10668" data-name="Group 10668" transform="translate(6.231 1.083)">
            <path id="Path_19949" data-name="Path 19949" d="M591.884,164.829a.5.5,0,0,1,.6-.359l2.3.586c.012,0,.02.011.032.015a.442.442,0,0,1,.089.043.484.484,0,0,1,.072.044.252.252,0,0,1,.033.02l1.746,1.613a.5.5,0,1,1-.675.73l-1.657-1.531-2.189-.557A.5.5,0,0,1,591.884,164.829Z" transform="translate(-591.869 -164.455)" fill="#ffa788"/>
          </g>
          <g id="Group_10669" data-name="Group 10669" transform="translate(5.965 1.684)">
            <path id="Path_19950" data-name="Path 19950" d="M591.533,165.606a.5.5,0,0,1,.646-.278l2.208.882c.011,0,.018.014.029.019a.545.545,0,0,1,.082.054.525.525,0,0,1,.065.053c.009.009.021.014.03.024l1.52,1.828a.5.5,0,0,1-.765.636l-1.443-1.734-2.1-.838A.5.5,0,0,1,591.533,165.606Z" transform="translate(-591.497 -165.292)" fill="#ffa788"/>
          </g>
          <g id="Group_10670" data-name="Group 10670" transform="translate(5.065 2.138)">
            <path id="Path_19951" data-name="Path 19951" d="M590.32,166.157a.5.5,0,0,1,.686-.153l2.007,1.275c.01.006.016.017.025.024a.548.548,0,0,1,.072.069.52.52,0,0,1,.054.064c.007.011.019.017.025.029l1.156,2.077a.5.5,0,0,1-.869.484l-1.1-1.971-1.906-1.21A.5.5,0,0,1,590.32,166.157Z" transform="translate(-590.242 -165.926)" fill="#ffa788"/>
          </g>
          <g id="Group_10671" data-name="Group 10671" transform="translate(3.725 2.368)">
            <path id="Path_19952" data-name="Path 19952" d="M588.452,166.477a.5.5,0,0,1,.687-.153l2.006,1.275c.01.006.016.017.026.024a.483.483,0,0,1,.071.068.568.568,0,0,1,.055.064c.007.011.019.018.025.029l1.156,2.077a.5.5,0,0,1-.869.484l-1.1-1.971-1.906-1.211A.5.5,0,0,1,588.452,166.477Z" transform="translate(-588.374 -166.246)" fill="#ffa788"/>
          </g>
          <g id="Group_10672" data-name="Group 10672" transform="translate(2.314 0.749)">
            <path id="Path_19953" data-name="Path 19953" d="M591.75,164.543l-.939-.209-3.023-.344-1.381,3.245,2.972-.122,1.453-.727.748-1.264Z" transform="translate(-586.407 -163.99)" fill="#ffa788"/>
          </g>
        </g>
        <g id="Group_10674" data-name="Group 10674" transform="translate(0.222 73.569)">
          <path id="Path_19954" data-name="Path 19954" d="M527.786,214.969a63.919,63.919,0,0,0-11.057,14.782,21.175,21.175,0,0,1-4.206,5.779l4.46,3.065,1.737.92-1.635-4.252,14.859-17.629Z" transform="translate(-512.522 -214.969)" fill="#ffa788"/>
        </g>
        <g id="Group_10675" data-name="Group 10675" transform="translate(41.132 71.907)">
          <path id="Path_19955" data-name="Path 19955" d="M569.554,214.414a63.927,63.927,0,0,0,5.331,17.674,21.192,21.192,0,0,1,2.153,6.815l5.114-1.768,1.772-.851-4.392-1.209-5.363-22.423Z" transform="translate(-569.554 -212.652)" fill="#ffa788"/>
        </g>
        <g id="Group_10676" data-name="Group 10676" transform="translate(7.628 40.653)">
          <path id="Path_19956" data-name="Path 19956" d="M537.133,182.44a35.567,35.567,0,0,1-3,8.063c-.615,1.183-10.382,14.087-10.817,14.777-.38.6-.844,1.037.018,1.509l8.42,4.616a3.37,3.37,0,0,0,1.225.476c1.164.126,2.082-.924,2.775-1.868l5.272-7.182c3.568-4.86,8.314-14.65,8.519-14.3q.586,1.012,1.1,2.066a37.678,37.678,0,0,1,1.756,4.31c.5,1.474.922,2.975,1.288,4.488.351,1.455,1.579,13.338,2.65,13.2a9.809,9.809,0,0,0,1.794-.668l3.142-1.067,3.041-1.033a26.639,26.639,0,0,0,3.041-1.032c-.5-10.014-2.254-19.271-7.028-28.087a32.49,32.49,0,0,1-3.776-11.628c.135,1.252-13.875.555-14.918.762C538.3,170.5,537.8,179.691,537.133,182.44Z" transform="translate(-522.847 -169.081)" fill="#274fd3"/>
        </g>
        <g id="Group_10677" data-name="Group 10677" transform="translate(29.309 42.429)">
          <path id="Path_19957" data-name="Path 19957" d="M554.048,175.965a2.322,2.322,0,0,1-.738-.1.358.358,0,1,1,.244-.674,2.706,2.706,0,0,0,2.468-.738,5.606,5.606,0,0,0,1.6-2.62.359.359,0,0,1,.7.173,6.256,6.256,0,0,1-1.844,3A3.8,3.8,0,0,1,554.048,175.965Z" transform="translate(-553.073 -171.556)" fill="#00030e"/>
        </g>
        <g id="Group_10678" data-name="Group 10678" transform="translate(0.218 88.205)">
          <path id="Path_19958" data-name="Path 19958" d="M518.717,245.286l-1.742-.922-4.459-3.067a21.2,21.2,0,0,0,4.207-5.779l.08-.144,3.272,2.1-2.995,3.564Z" transform="translate(-512.516 -235.373)" fill="#cfdefb"/>
        </g>
        <g id="Group_10679" data-name="Group 10679" transform="translate(11.605 41.412)">
          <path id="Path_19959" data-name="Path 19959" d="M528.75,207.753a.358.358,0,0,1-.28-.581c.118-.148,11.791-14.913,13.59-18.661s5.147-17.954,5.18-18.1a.358.358,0,1,1,.7.164c-.138.587-3.4,14.424-5.231,18.243s-13.193,18.187-13.676,18.8A.356.356,0,0,1,528.75,207.753Z" transform="translate(-528.392 -170.138)" fill="#00030e"/>
        </g>
        <g id="Group_10680" data-name="Group 10680" transform="translate(46.39 89.808)">
          <path id="Path_19960" data-name="Path 19960" d="M586,243.339l-1.776.855-5.115,1.767a21.2,21.2,0,0,0-2.153-6.817l-.068-.15,3.631-1.387,1.09,4.526Z" transform="translate(-576.885 -237.607)" fill="#cfdefb"/>
        </g>
        <g id="Group_10681" data-name="Group 10681" transform="translate(9.606 14.215)">
          <path id="Path_19961" data-name="Path 19961" d="M528.882,160.9a14.663,14.663,0,0,1,1.366-1.318c5.61-2.8,7.412-4.121,11.392-8.965-.294,3.165-2.262,9.124-.065,9.842,4.805.912,12.971.146,16.39-.523,1.354-.265,2.349-3.584,2.722-3.771.278-.139,4.678,1.838,7.4,2.181.237.03,1.343-2.818,1.59-3.778a4.677,4.677,0,0,1-2.375-1.78c-1.935-2.922-2.706-6.434-3.743-9.782s-2.5-6.779-5.334-8.847c-3.628-2.65-8.788-2.387-12.808-.381s-7.1,5.476-9.83,9.047a98.977,98.977,0,0,0-6.469,9.581c-.578.975-1.034,2.573-1.615,3.546-.3.5-1.9,2.346-1.9,2.346Z" transform="translate(-525.605 -132.224)" fill="#ffb424"/>
        </g>
        <g id="Group_10682" data-name="Group 10682" transform="translate(34.286 3.338)">
          <path id="Path_19962" data-name="Path 19962" d="M561.225,123.688a1.26,1.26,0,0,1,.021-2.519l.08,0v-.055a3.886,3.886,0,0,1,3.438-4.041,3.744,3.744,0,0,1,4.041,3.634l.052,1.99c.045,1.734-.84,4.8-2.691,3.676l-.072,2.36a1.444,1.444,0,0,1-1.488,1.4l-.951-.029a2.623,2.623,0,0,1-2.541-2.7Z" transform="translate(-560.01 -117.06)" fill="#ffa788"/>
        </g>
        <g id="Group_10683" data-name="Group 10683" transform="translate(33.851 49.258)">
          <path id="Path_19963" data-name="Path 19963" d="M559.763,192.111a.349.349,0,0,1-.131-.025.359.359,0,0,1-.2-.465l4.05-10.317a.359.359,0,0,1,.669.262l-4.05,10.317A.359.359,0,0,1,559.763,192.111Z" transform="translate(-559.404 -181.077)" fill="#00030e"/>
        </g>
        <g id="Group_10684" data-name="Group 10684" transform="translate(0 91.927)">
          <path id="Path_19964" data-name="Path 19964" d="M514.041,240.561s-1.731,1.224-1.828,2.013,7.513,6.368,8.172,5.835-1.9-4.87-2.58-6.022-1.8.159-2.491-.5S514.041,240.561,514.041,240.561Z" transform="translate(-512.213 -240.561)" fill="#274fd3"/>
        </g>
        <g id="Group_10685" data-name="Group 10685" transform="translate(48.424 94.566)">
          <path id="Path_19965" data-name="Path 19965" d="M579.72,246.793s.136,2.116.755,2.612,9.362-3.059,9.254-3.9-4.395-1.236-5.73-1.265-.077,1.583-2.485,2.162C580.585,246.627,579.72,246.793,579.72,246.793Z" transform="translate(-579.72 -244.24)" fill="#274fd3"/>
        </g>
        <g id="Group_10686" data-name="Group 10686" transform="translate(25.282 26.981)">
          <path id="Path_19966" data-name="Path 19966" d="M547.817,156.008a.358.358,0,0,1-.274-.59,61.8,61.8,0,0,0,3.995-5.226.359.359,0,0,1,.613.374,60.861,60.861,0,0,1-4.059,5.315A.359.359,0,0,1,547.817,156.008Z" transform="translate(-547.458 -150.02)" fill="#00030e"/>
        </g>
        <g id="Group_10687" data-name="Group 10687" transform="translate(43.062 22.133)">
          <path id="Path_19967" data-name="Path 19967" d="M573.872,159.646a.374.374,0,0,1-.075-.008.359.359,0,0,1-.278-.424,33.22,33.22,0,0,0,.383-7.059,28.929,28.929,0,0,0-1.635-8.405.359.359,0,0,1,.669-.26,29.128,29.128,0,0,1,1.684,8.641,33.211,33.211,0,0,1-.4,7.23A.358.358,0,0,1,573.872,159.646Z" transform="translate(-572.245 -143.261)" fill="#00030e"/>
        </g>
        <g id="Group_10688" data-name="Group 10688" transform="translate(34.286 3.338)">
          <path id="Path_19968" data-name="Path 19968" d="M561.225,123.688a1.26,1.26,0,0,1,.021-2.519l.08,0v-.055a3.886,3.886,0,0,1,3.438-4.041,3.744,3.744,0,0,1,4.041,3.634l.052,1.99c.045,1.734-.84,4.8-2.691,3.676l-.072,2.36a1.444,1.444,0,0,1-1.488,1.4l-.951-.029a2.623,2.623,0,0,1-2.541-2.7Z" transform="translate(-560.01 -117.06)" fill="#ffa788"/>
        </g>
        <g id="Group_10691" data-name="Group 10691" transform="translate(26.222)">
          <g id="Group_10689" data-name="Group 10689" transform="translate(9.236 11.614)">
            <path id="Path_19969" data-name="Path 19969" d="M561.644,128.6" transform="translate(-561.644 -128.598)" fill="#0f2751"/>
          </g>
          <g id="Group_10690" data-name="Group 10690">
            <path id="Path_19970" data-name="Path 19970" d="M563.218,112.555c-1.181-.441-2.392.23-3.043.325s-1.564-.5-2.89.115c-1.156.533-.765,2.256-1.321,2.773s-1.761.212-2.526,1.036.019,1.818-.708,2.412-2.156.446-2.941,1.212a5.113,5.113,0,0,0-1.021,2.45,11.137,11.137,0,0,1,3.177,1.155c1.072.727,2.335.077,4.1.192a3.019,3.019,0,0,1,1.93.689l.066-2.229c-.008-.089.016-.219.01-.311a1.289,1.289,0,0,1-1.214-1.219,1.227,1.227,0,0,1,1.209-1.276l.08,0c.455-1.158,2.435-.755,3.813-1.329a3.928,3.928,0,0,0,1.917-2.185l1.586,2.059s.684.131.879-1.482C566.567,114.89,564.959,113.206,563.218,112.555Z" transform="translate(-548.768 -112.406)" fill="#0f2751"/>
          </g>
        </g>
        <g id="Group_10692" data-name="Group 10692" transform="translate(35.6 7.39)">
          <line id="Line_1954" data-name="Line 1954" x1="0.001" y1="0.055" fill="#ffa788"/>
        </g>
        <g id="Group_10693" data-name="Group 10693" transform="translate(39.108 7.136)">
          <path id="Path_19971" data-name="Path 19971" d="M567.856,122.917a.561.561,0,1,0-1.123,0" transform="translate(-566.733 -122.355)" fill="#00030e"/>
        </g>
        <g id="Group_10694" data-name="Group 10694" transform="translate(42.009 7.136)">
          <path id="Path_19972" data-name="Path 19972" d="M571.9,122.917a.561.561,0,1,0-1.123,0" transform="translate(-570.777 -122.355)" fill="#00030e"/>
        </g>
        <g id="Group_10695" data-name="Group 10695" transform="translate(40.773 7.086)">
          <path id="Path_19973" data-name="Path 19973" d="M569.484,125.283a1.058,1.058,0,0,1-.108-.006.358.358,0,1,1,.074-.713,1.074,1.074,0,0,0,.39-.069c-.086-.209-.189-.473-.252-.673a7.713,7.713,0,0,1-.206-1.141.359.359,0,0,1,.318-.4.363.363,0,0,1,.4.318,6.987,6.987,0,0,0,.177,1c.108.341.367.934.369.94a.359.359,0,0,1-.168.465A2.6,2.6,0,0,1,569.484,125.283Z" transform="translate(-569.054 -122.285)" fill="#ff7f79"/>
        </g>
        <g id="Group_10696" data-name="Group 10696" transform="translate(39.826 10.486)">
          <path id="Path_19974" data-name="Path 19974" d="M568.966,128a1.653,1.653,0,0,1-1.12-.359.359.359,0,0,1,.486-.528,1.117,1.117,0,0,0,.765.164.359.359,0,1,1,.052.715C569.086,128,569.025,128,568.966,128Z" transform="translate(-567.734 -127.025)" fill="#ff4b48"/>
        </g>
      </g>
      <g id="Group_10708" data-name="Group 10708" transform="translate(0 43.79)">
        <g id="Group_10700" data-name="Group 10700" transform="translate(1.393 45.77)">
          <g id="Group_10698" data-name="Group 10698">
            <path id="Path_19975" data-name="Path 19975" d="M475.781,241.267a2,2,0,1,1,1.772-1.061A2.006,2.006,0,0,1,475.781,241.267Zm.006-3.288a1.287,1.287,0,1,0,.6.151A1.279,1.279,0,0,0,475.787,237.979Z" transform="translate(-473.781 -237.261)" fill="#00030e"/>
          </g>
          <g id="Group_10699" data-name="Group 10699" transform="translate(11.201 5.958)">
            <path id="Path_19976" data-name="Path 19976" d="M491.395,249.574a1.984,1.984,0,0,1-.936-.235,2,2,0,1,1,.936.235Zm.006-3.289a1.318,1.318,0,0,0-.377.057,1.276,1.276,0,1,0,.377-.057Z" transform="translate(-489.396 -245.568)" fill="#00030e"/>
          </g>
        </g>
        <g id="Group_10701" data-name="Group 10701" transform="translate(20.113)">
          <path id="Path_19977" data-name="Path 19977" d="M505.48,199.022a2.475,2.475,0,0,1-1.166-.293l-3.114-1.657a2.488,2.488,0,0,1-1.029-3.366l10.071-18.932a2.488,2.488,0,0,1,3.366-1.028l3.115,1.656a2.493,2.493,0,0,1,1.029,3.366L507.681,197.7a2.473,2.473,0,0,1-1.471,1.212A2.508,2.508,0,0,1,505.48,199.022Zm6.962-24.851a1.775,1.775,0,0,0-.519.078,1.757,1.757,0,0,0-1.047.862L500.8,194.044a1.772,1.772,0,0,0,.731,2.4l3.115,1.657a1.771,1.771,0,0,0,2.4-.732l10.072-18.931a1.775,1.775,0,0,0-.732-2.4l-3.114-1.657A1.777,1.777,0,0,0,512.442,174.171Z" transform="translate(-499.878 -173.453)" fill="#00030e"/>
        </g>
        <g id="Group_10707" data-name="Group 10707" transform="translate(0 15.003)">
          <g id="Group_10702" data-name="Group 10702" transform="translate(3.063 1.629)">
            <rect id="Rectangle_4624" data-name="Rectangle 4624" width="19.165" height="32.357" rx="4.322" transform="translate(15.197 0) rotate(28.013)" fill="#ce3838"/>
          </g>
          <g id="Group_10703" data-name="Group 10703" transform="translate(0 0)">
            <rect id="Rectangle_4625" data-name="Rectangle 4625" width="18.316" height="32.357" rx="4.225" transform="translate(15.197 0) rotate(28.013)" fill="#ff4b48"/>
          </g>
          <g id="Group_10704" data-name="Group 10704" transform="translate(8.843 4.57)">
            <rect id="Rectangle_4626" data-name="Rectangle 4626" width="2.822" height="14.841" rx="1.411" transform="matrix(0.883, 0.47, -0.47, 0.883, 6.97, 0)" fill="#ff7f79"/>
          </g>
          <g id="Group_10705" data-name="Group 10705" transform="translate(20.933 12.477)">
            <path id="Path_19978" data-name="Path 19978" d="M501.38,227.185a.351.351,0,0,1-.168-.042.358.358,0,0,1-.148-.485l7.823-14.7a.359.359,0,0,1,.633.336L501.7,227A.359.359,0,0,1,501.38,227.185Z" transform="translate(-501.021 -211.763)" fill="#00030e"/>
          </g>
          <g id="Group_10706" data-name="Group 10706" transform="translate(17.385 30.273)">
            <path id="Path_19979" data-name="Path 19979" d="M496.433,240.869a.355.355,0,0,1-.169-.042.359.359,0,0,1-.148-.486l1.9-3.579a.359.359,0,1,1,.633.336l-1.9,3.579A.359.359,0,0,1,496.433,240.869Z" transform="translate(-496.074 -236.573)" fill="#00030e"/>
          </g>
        </g>
      </g>
      <g id="Group_10715" data-name="Group 10715" transform="translate(32.155 40.328)">
        <g id="Group_10709" data-name="Group 10709" transform="translate(5.544)">
          <path id="Path_19980" data-name="Path 19980" d="M525.931,168.627l-1.537,1.588,2.705,2.279,1.645-1.933Z" transform="translate(-524.394 -168.627)" fill="#ffa788"/>
        </g>
        <g id="Group_10710" data-name="Group 10710" transform="translate(0 3.074)">
          <path id="Path_19981" data-name="Path 19981" d="M520.274,173.094a.5.5,0,0,0-.7-.067l-1.832,1.515c-.009.008-.014.019-.022.027a.509.509,0,0,0-.062.077.567.567,0,0,0-.046.07c-.006.011-.016.019-.021.032l-.888,2.205a.5.5,0,1,0,.922.372l.844-2.092,1.74-1.439A.5.5,0,0,0,520.274,173.094Z" transform="translate(-516.666 -172.913)" fill="#ffa788"/>
        </g>
        <g id="Group_10711" data-name="Group 10711" transform="translate(1.009 3.504)">
          <path id="Path_19982" data-name="Path 19982" d="M521.125,173.645a.5.5,0,0,0-.7.026l-1.618,1.742c-.009.009-.011.02-.019.03a.555.555,0,0,0-.052.084.511.511,0,0,0-.037.075c0,.013-.013.022-.017.035l-.593,2.3a.5.5,0,1,0,.963.248l.562-2.185,1.537-1.654A.5.5,0,0,0,521.125,173.645Z" transform="translate(-518.072 -173.512)" fill="#ffa788"/>
        </g>
        <g id="Group_10712" data-name="Group 10712" transform="translate(2.804 3.53)">
          <path id="Path_19983" data-name="Path 19983" d="M522.768,173.625a.5.5,0,0,0-.687.156l-1.269,2.01c-.006.01-.006.022-.012.033a.457.457,0,0,0-.035.092.47.47,0,0,0-.022.081c0,.014-.009.024-.01.037l-.157,2.372a.5.5,0,1,0,.992.066l.15-2.251,1.205-1.909A.5.5,0,0,0,522.768,173.625Z" transform="translate(-520.574 -173.548)" fill="#ffa788"/>
        </g>
        <g id="Group_10713" data-name="Group 10713" transform="translate(4.113 3.164)">
          <path id="Path_19984" data-name="Path 19984" d="M524.593,173.116a.5.5,0,0,0-.686.155l-1.269,2.01c-.007.011-.007.022-.012.033a.451.451,0,0,0-.035.093.563.563,0,0,0-.022.081.323.323,0,0,0-.01.037L522.4,177.9a.5.5,0,1,0,.992.066l.15-2.251,1.205-1.91A.5.5,0,0,0,524.593,173.116Z" transform="translate(-522.399 -173.038)" fill="#ffa788"/>
        </g>
        <g id="Group_10714" data-name="Group 10714" transform="translate(2.268 1.523)">
          <path id="Path_19985" data-name="Path 19985" d="M519.828,172.945l.759-.59,2.585-1.6,2.636,2.343-2.739,1.16-1.624-.036-1.217-.823Z" transform="translate(-519.828 -170.751)" fill="#ffa788"/>
        </g>
      </g>
    </g>
    <g id="Group_10717" data-name="Group 10717" transform="translate(249.391 125.922)">
      <path id="Path_19986" data-name="Path 19986" d="M613.331,251.769h-193.7a.36.36,0,1,1,0-.717h193.7a.36.36,0,1,1,0,.717Z" transform="translate(-419.245 -251.052)" fill="#00030e"/>
    </g>
    <g id="Group_10771" data-name="Group 10771" transform="translate(192.317 48.216)">
      <rect id="Rectangle_4636" data-name="Rectangle 4636" width="8.33" height="15.779" rx="4.165" transform="translate(2.207 0) rotate(8.04)" fill="#1e7187"/>
    </g>
    <g id="Group_10772" data-name="Group 10772" transform="translate(218.001 49.624)">
      <path id="Path_20020" data-name="Path 20020" d="M980.377,145.109l10.746,8.587,9.836,5.761-2.577,1.913-9.773-4.4-11.722-7.119Z" transform="translate(-976.888 -145.109)" fill="#ffa788"/>
    </g>
    <g id="Group_10773" data-name="Group 10773" transform="translate(242.753 59.019)">
      <rect id="Rectangle_4637" data-name="Rectangle 4637" width="4.754" height="9.399" transform="translate(5.237 0) rotate(33.858)" fill="#cfdefb"/>
    </g>
    <g id="Group_10774" data-name="Group 10774" transform="translate(241.58 60.442)">
      <path id="Rectangle_4638" data-name="Rectangle 4638" d="M.736,0H8.057a.736.736,0,0,1,.736.736v4.54a0,0,0,0,1,0,0H0a0,0,0,0,1,0,0V.736A.736.736,0,0,1,.736,0Z" transform="translate(8.37 2.125) rotate(113.747)" fill="#274fd3"/>
    </g>
    <g id="Group_10781" data-name="Group 10781" transform="translate(238.475 63.234)">
      <g id="Group_10775" data-name="Group 10775" transform="translate(0 0)">
        <path id="Path_20021" data-name="Path 20021" d="M1007.655,164.007l1.549.759-1.381,2.691-2.5-1.258Z" transform="translate(-1005.318 -164.007)" fill="#ffa788"/>
      </g>
      <g id="Group_10776" data-name="Group 10776" transform="translate(5.944 1.132)">
        <path id="Path_20022" data-name="Path 20022" d="M1013.591,165.882a.425.425,0,0,1,.53-.284l1.946.59c.01,0,.016.01.027.014a.394.394,0,0,1,.074.04.379.379,0,0,1,.06.04c.009.007.019.01.027.018l1.429,1.446a.425.425,0,1,1-.6.6l-1.357-1.372-1.848-.56A.425.425,0,0,1,1013.591,165.882Z" transform="translate(-1013.572 -165.58)" fill="#ffa788"/>
      </g>
      <g id="Group_10777" data-name="Group 10777" transform="translate(5.693 1.636)">
        <path id="Path_20023" data-name="Path 20023" d="M1013.262,166.529a.424.424,0,0,1,.563-.212l1.852.838c.01,0,.015.013.024.017a.406.406,0,0,1,.068.05.494.494,0,0,1,.054.048c.007.009.018.013.024.022l1.229,1.62a.426.426,0,1,1-.678.514l-1.165-1.538-1.759-.8A.425.425,0,0,1,1013.262,166.529Z" transform="translate(-1013.224 -166.279)" fill="#ffa788"/>
      </g>
      <g id="Group_10778" data-name="Group 10778" transform="translate(4.906 1.99)">
        <path id="Path_20024" data-name="Path 20024" d="M1012.209,166.952a.425.425,0,0,1,.592-.1l1.666,1.166c.008.006.012.016.02.022a.385.385,0,0,1,.058.061.464.464,0,0,1,.045.057c.006.01.015.016.02.026l.908,1.819a.425.425,0,0,1-.761.38l-.862-1.726-1.582-1.108A.425.425,0,0,1,1012.209,166.952Z" transform="translate(-1012.132 -166.77)" fill="#ffa788"/>
      </g>
      <g id="Group_10779" data-name="Group 10779" transform="translate(3.753 2.134)">
        <path id="Path_20025" data-name="Path 20025" d="M1010.607,167.152a.425.425,0,0,1,.593-.105l1.665,1.167c.009.006.013.015.021.022a.484.484,0,0,1,.058.061.434.434,0,0,1,.044.057c.006.009.015.015.02.026l.908,1.819a.425.425,0,1,1-.761.38l-.862-1.726-1.582-1.108A.425.425,0,0,1,1010.607,167.152Z" transform="translate(-1010.53 -166.97)" fill="#ffa788"/>
      </g>
      <g id="Group_10780" data-name="Group 10780" transform="translate(2.504 0.731)">
        <path id="Path_20026" data-name="Path 20026" d="M1013.464,165.648l-.794-.215-2.569-.41-1.3,2.719,2.543.01,1.269-.565.688-1.051Z" transform="translate(-1008.796 -165.023)" fill="#ffa788"/>
      </g>
    </g>
    <g id="Group_10782" data-name="Group 10782" transform="translate(201.035 87.497)">
      <path id="Path_20027" data-name="Path 20027" d="M959.64,197.7l-.648,15.963a17.105,17.105,0,0,0-2.707,4.67c-1.317,3.161-2.956,15.36-2.956,15.36l6.22.016-3.106-1.427s7.308-13.621,8.188-16.565,4.01-15.942,4.01-15.942Z" transform="translate(-953.329 -197.7)" fill="#ffa788"/>
    </g>
    <g id="Group_10783" data-name="Group 10783" transform="translate(221.619 84.826)">
      <path id="Path_20028" data-name="Path 20028" d="M981.912,199.165a58.412,58.412,0,0,0,5.2,7.132c2.066,2.122,2.95,2.655,3.923,4.173s2.939,6.225,4.977,8.453,7.763,7.336,7.919,8.057a26.949,26.949,0,0,0,.915,2.621l4.474-2.822-3.459-1.118s-6.024-11.885-8.444-16.6-7.816-15.072-7.816-15.072Z" transform="translate(-981.912 -193.991)" fill="#ffa788"/>
    </g>
    <g id="Group_10784" data-name="Group 10784" transform="translate(206.735 68.679)">
      <path id="Path_20029" data-name="Path 20029" d="M962.081,183.534a48.4,48.4,0,0,1-.838,8.556,26.608,26.608,0,0,0,5.082,1.758c1.723.362,3.182.666,4.318.9,1.19-3.9,2.988-9.577,2.864-10.459a4.179,4.179,0,0,0-.625-1.5,52.888,52.888,0,0,0-7.466-9.852c-2.644-2.75-3.627-1-3.459,2.041C962.114,177.83,962.2,180.682,962.081,183.534Z" transform="translate(-961.243 -171.569)" fill="#1e7187"/>
    </g>
    <g id="Group_10785" data-name="Group 10785" transform="translate(205.126 64.053)">
      <path id="Path_20030" data-name="Path 20030" d="M980.171,190.327a27.261,27.261,0,0,0,4.468-3.092c-2.97-5.867-8.348-19.3-8.348-19.3s-17.278-7.543-17.282,2.186c0,6.958,4.225,7.87,5.526,9.757a93.473,93.473,0,0,0,10.634,12.971C976.514,192.238,978.218,191.409,980.171,190.327Z" transform="translate(-959.009 -165.145)" fill="#4190aa"/>
    </g>
    <g id="Group_10786" data-name="Group 10786" transform="translate(244.159 116.061)">
      <path id="Path_20031" data-name="Path 20031" d="M1013.211,240.831s.955,2.605,1.546,2.592,7.744-4.166,7.539-5.536-5.968.377-5.968.377.162.792-.882,1.785A4.8,4.8,0,0,1,1013.211,240.831Z" transform="translate(-1013.211 -237.363)" fill="#274fd3"/>
    </g>
    <g id="Group_10787" data-name="Group 10787" transform="translate(200.704 122.484)">
      <path id="Path_20032" data-name="Path 20032" d="M953.229,246.626s-.667,2.611-.186,2.925,8.492.917,9.08-.292-4.988-2.976-4.988-2.976-.305.724-1.687.946A4.664,4.664,0,0,1,953.229,246.626Z" transform="translate(-952.869 -246.282)" fill="#274fd3"/>
    </g>
    <g id="Group_10788" data-name="Group 10788" transform="translate(195.14 43.441)">
      <rect id="Rectangle_4639" data-name="Rectangle 4639" width="13.287" height="24.754" rx="6.644" transform="translate(3.462 0) rotate(8.04)" fill="#4190aa"/>
    </g>
    <g id="Group_10789" data-name="Group 10789" transform="translate(209.527 67.881)">
      <path id="Path_20033" data-name="Path 20033" d="M977.221,189.754a.361.361,0,0,1-.288-.143c-.412-.547-10.1-13.4-11.074-15.571-1-2.219-.709-3.226-.672-3.334a.36.36,0,0,1,.685.222,4.8,4.8,0,0,0,.644,2.816c.94,2.093,10.891,15.3,10.992,15.433a.36.36,0,0,1-.287.577Z" transform="translate(-965.121 -170.461)" fill="#00030e"/>
    </g>
    <g id="Group_10790" data-name="Group 10790" transform="translate(211.41 66.795)">
      <path id="Path_20034" data-name="Path 20034" d="M968.1,175.376a.36.36,0,0,1-.124-.7,2.71,2.71,0,0,0,1.426-2.158,5.6,5.6,0,0,0-.454-3.05.36.36,0,0,1,.647-.315,6.271,6.271,0,0,1,.514,3.5,3.389,3.389,0,0,1-1.885,2.7A.374.374,0,0,1,968.1,175.376Z" transform="translate(-967.736 -168.952)" fill="#00030e"/>
    </g>
    <g id="Group_10791" data-name="Group 10791" transform="translate(205.112 40.723)">
      <path id="Path_20035" data-name="Path 20035" d="M969.6,132.886c1.453.646,1.932,1.6,3.023,2.665,1.419,1.382,2.889,6.015,3.107,7.866.651,5.542-.692,5.836.553,15.449.042.32-3.161,1.987-6.634,2.179-4.952.274-10.719-1.039-10.662-1.449.756-5.477.678-2.667.724-8.5.026-3.218-2.188-8.02,1.708-14.244C963.35,133.777,968.21,132.266,969.6,132.886Z" transform="translate(-958.989 -132.749)" fill="#e9f1ff"/>
    </g>
    <g id="Group_10792" data-name="Group 10792" transform="translate(211.772 29.137)">
      <path id="Path_20036" data-name="Path 20036" d="M969.576,123.545a1.4,1.4,0,0,1,.042-2.795h.089l-.006-.3a3.513,3.513,0,0,1,3.727-3.792,4.154,4.154,0,0,1,4.232,4.074l.042,2.207c.037,1.924-.66,5.2-3.014,4.058a2.8,2.8,0,0,0-.329,1.486,14.771,14.771,0,0,0,.237,1.9s-.353.64-1.836.647-3.555-2.1-3.555-2.1a11.151,11.151,0,0,0,.516-2.441A19.909,19.909,0,0,0,969.576,123.545Z" transform="translate(-968.239 -116.66)" fill="#ffa788"/>
    </g>
    <g id="Group_10793" data-name="Group 10793" transform="translate(215.118 37.674)">
      <path id="Path_20037" data-name="Path 20037" d="M975.989,130.318a5.433,5.433,0,0,1-2.457.206c-1.428-.192-.046-2.008-.046-2.008a5.368,5.368,0,0,0,.705.874A4.354,4.354,0,0,0,975.989,130.318Z" transform="translate(-972.885 -128.515)" fill="#ff7f79"/>
    </g>
    <g id="Group_10794" data-name="Group 10794" transform="translate(204.763 42.152)">
      <path id="Path_20038" data-name="Path 20038" d="M958.867,156.047a.36.36,0,0,1-.208-.655c.064-.045,6.483-4.62,7.96-10.808.856-3.583.789-6.26-.193-7.743a3.078,3.078,0,0,0-2.15-1.352c-2.495-.418-4.364,2.977-4.383,3.011a.36.36,0,0,1-.633-.342c.085-.159,2.127-3.883,5.135-3.379a3.769,3.769,0,0,1,2.631,1.664c1.11,1.677,1.209,4.472.293,8.308-1.543,6.457-7.973,11.038-8.247,11.23A.355.355,0,0,1,958.867,156.047Z" transform="translate(-958.506 -134.733)" fill="#00030e"/>
    </g>
    <g id="Group_10800" data-name="Group 10800" transform="translate(193.349 70.687)">
      <g id="Group_10795" data-name="Group 10795" transform="translate(2.938 0)">
        <path id="Path_20039" data-name="Path 20039" d="M950.481,176.851l-1.013,1.652-2.733-.762,1.558-3.385Z" transform="translate(-946.735 -174.357)" fill="#ffa788"/>
      </g>
      <g id="Group_10796" data-name="Group 10796" transform="translate(0.62 6.285)">
        <path id="Path_20040" data-name="Path 20040" d="M947.327,183.142a.491.491,0,0,1,.2.665l-1.113,2.068c-.006.01-.016.017-.022.027a.47.47,0,0,1-.062.075.509.509,0,0,1-.059.058c-.011.008-.017.019-.027.027l-1.965,1.286a.491.491,0,0,1-.538-.822l1.864-1.221,1.058-1.964A.492.492,0,0,1,947.327,183.142Z" transform="translate(-943.517 -183.084)" fill="#ffa788"/>
      </g>
      <g id="Group_10797" data-name="Group 10797" transform="translate(0.043 5.855)">
        <path id="Path_20041" data-name="Path 20041" d="M946.373,182.537a.491.491,0,0,1,.225.657l-1.032,2.109c-.005.011-.015.017-.021.027a.464.464,0,0,1-.059.078.509.509,0,0,1-.057.06c-.01.008-.015.02-.026.027l-1.913,1.363a.491.491,0,1,1-.57-.8l1.815-1.293.979-2A.491.491,0,0,1,946.373,182.537Z" transform="translate(-942.715 -182.487)" fill="#ffa788"/>
      </g>
      <g id="Group_10798" data-name="Group 10798" transform="translate(0 4.771)">
        <path id="Path_20042" data-name="Path 20042" d="M946.314,181.031a.491.491,0,0,1,.225.657l-1.031,2.109c-.006.011-.015.017-.022.027a.434.434,0,0,1-.059.078.5.5,0,0,1-.057.061c-.01.009-.015.02-.026.028l-1.912,1.362a.491.491,0,1,1-.57-.8l1.815-1.293.979-2A.492.492,0,0,1,946.314,181.031Z" transform="translate(-942.656 -180.981)" fill="#ffa788"/>
      </g>
      <g id="Group_10799" data-name="Group 10799" transform="translate(2.433 3.385)">
        <path id="Path_20043" data-name="Path 20043" d="M947.842,183.4l.425-.849,1.054-2.814-2.782-.682-.5,2.821,1.294,1.223Z" transform="translate(-946.034 -179.058)" fill="#ffa788"/>
      </g>
    </g>
    <g id="Group_10801" data-name="Group 10801" transform="translate(197.784 48.018)">
      <path id="Path_20044" data-name="Path 20044" d="M962.448,145.684l-6.622,10.173s-.863,2.845-1.406,4.185c-.786,1.939-3.356,8-3.356,8l-2.249-2.29s1.432-5.686,2.11-7.649c.425-1.229,1.314-4.286,1.314-4.286l5.034-10.938Z" transform="translate(-948.814 -142.879)" fill="#ffa788"/>
    </g>
    <g id="Group_10802" data-name="Group 10802" transform="translate(204.949 43.055)">
      <path id="Path_20045" data-name="Path 20045" d="M965.482,136.346c-1.013-.557-2.462-.621-4.133.942-1.656,1.55-2.585,5.21-2.585,5.21a10.46,10.46,0,0,0,2.572,2.1,18.488,18.488,0,0,0,3.324,1.334,21.337,21.337,0,0,0,1.822-4.519C967.125,139.077,966.712,137.023,965.482,136.346Z" transform="translate(-958.764 -135.987)" fill="#e9f1ff"/>
    </g>
    <g id="Group_10803" data-name="Group 10803" transform="translate(204.748 27.375)">
      <path id="Path_20046" data-name="Path 20046" d="M974.66,118.013c-.2,1.99-3.09-1.295-4.739,3.933a1.442,1.442,0,0,0-1.256-1.2.981.981,0,0,0-.966,1.243c.179.417.659.6.974.928a2.812,2.812,0,0,1,.53.956l.555,1.409a1.756,1.756,0,0,1,.158,1.262,1.88,1.88,0,0,1-.58.67,7.3,7.3,0,0,0-.887.89c-.2.243-.345.637-.657.724-.732.2-1.788-.436-2.414-.737a12.569,12.569,0,0,0-2.824-1.046,17.356,17.356,0,0,1-2.426-.5,2.35,2.35,0,0,1-1.625-1.713,1.293,1.293,0,0,1,.081-.74c.1-.186.3-.279.4-.478a1.717,1.717,0,0,0,.123-.558,4.219,4.219,0,0,1,3.075-3.461,1.167,1.167,0,0,0,.4-.145,1.006,1.006,0,0,0,.295-.411c.885-1.824,1.885-3.849,3.784-4.558a7.709,7.709,0,0,1,4.486.189,5.051,5.051,0,0,1,1.454.52C973.495,115.742,974.856,116.024,974.66,118.013Z" transform="translate(-958.485 -114.213)" fill="#ffca66"/>
    </g>
    <g id="Group_10804" data-name="Group 10804" transform="translate(208.031 23.146)">
      <path id="Path_20047" data-name="Path 20047" d="M968.4,111.026a2.678,2.678,0,1,1-2.671-2.685A2.677,2.677,0,0,1,968.4,111.026Z" transform="translate(-963.043 -108.341)" fill="#ffca66"/>
    </g>
    <g id="Group_10805" data-name="Group 10805" transform="translate(154.866 125.919)">
      <path id="Path_20048" data-name="Path 20048" d="M1087.046,251.772h-159.9a.366.366,0,1,1,0-.72h159.9a.366.366,0,1,1,0,.72Z" transform="translate(-926.711 -251.052)" fill="#00030e"/>
    </g>
    <g id="Group_10806" data-name="Group 10806" transform="translate(218.605 34.021)">
      <path id="Path_20049" data-name="Path 20049" d="M978.842,124.085a.564.564,0,1,0-1.116-.158" transform="translate(-977.726 -123.442)" fill="#00030e"/>
    </g>
    <g id="Group_10807" data-name="Group 10807" transform="translate(220.585 33.666)">
      <path id="Path_20050" data-name="Path 20050" d="M980.894,125.978a.36.36,0,0,1-.022-.719,1.073,1.073,0,0,0,.374-.133c-.119-.192-.266-.436-.362-.623a7.881,7.881,0,0,1-.394-1.1.36.36,0,0,1,.693-.2,7.081,7.081,0,0,0,.341.964c.163.319.518.863.523.869a.359.359,0,0,1-.089.488,2.4,2.4,0,0,1-1.043.446Z" transform="translate(-980.476 -122.949)" fill="#ff7f79"/>
    </g>
    <g id="Group_10808" data-name="Group 10808" transform="translate(219.166 37.089)">
      <path id="Path_20051" data-name="Path 20051" d="M979.821,128.9a.317.317,0,0,1-.053,0,1.733,1.733,0,0,1-1.2-.626.36.36,0,0,1,.591-.412,1.1,1.1,0,0,0,.714.326.36.36,0,0,1-.051.717Z" transform="translate(-978.505 -127.702)" fill="#ff7f79"/>
    </g>
    <g id="Group_10809" data-name="Group 10809" transform="translate(195.692 53.252)">
      <path id="Path_20052" data-name="Path 20052" d="M946.271,158.986a.354.354,0,0,1-.048,0,.36.36,0,0,1-.31-.4l1.071-8.12a.36.36,0,0,1,.714.094l-1.071,8.12A.36.36,0,0,1,946.271,158.986Z" transform="translate(-945.91 -150.147)" fill="#00030e"/>
    </g>
    <g id="Group_10810" data-name="Group 10810" transform="translate(210.181 46.601)">
      <path id="Path_20053" data-name="Path 20053" d="M966.388,147.292a.353.353,0,0,1-.176-.046.359.359,0,0,1-.137-.49c.007-.014.779-1.388,1.307-2.576a23.971,23.971,0,0,0,1-3,.361.361,0,0,1,.7.181,24.686,24.686,0,0,1-1.038,3.11c-.542,1.221-1.306,2.58-1.338,2.636A.361.361,0,0,1,966.388,147.292Z" transform="translate(-966.028 -140.911)" fill="#cfdefb"/>
    </g>
  </g>
</svg>
