<svg xmlns="http://www.w3.org/2000/svg" version="1.1" xmlns:xlink="http://www.w3.org/1999/xlink" xmlns:svgjs="http://svgjs.dev/svgjs" width="2000" height="1500" viewBox="0 0 2000 1500"><rect width="2000" height="1500" fill="#333b6a"></rect><g transform="matrix(0.75,0,0,0.75,249.090909090909,578.5916918593816)"><svg viewBox="0 0 396 90" data-background-color="#333b6a" preserveAspectRatio="xMidYMid meet" height="454" width="2000" xmlns="http://www.w3.org/2000/svg" xmlns:xlink="http://www.w3.org/1999/xlink"><g id="tight-bounds" transform="matrix(1,0,0,1,0.2400000000000091,0.3061607420136738)"><svg viewBox="0 0 395.52 89.38767851597267" height="89.38767851597267" width="395.52"><g><svg viewBox="0 0 537.8343165644384 121.55077109607578" height="89.38767851597267" width="395.52"><g transform="matrix(1,0,0,1,142.31431656443843,16.798985006765903)"><svg viewBox="0 0 395.52 87.95280108254397" height="87.95280108254397" width="395.52"><g id="textblocktransform"><svg viewBox="0 0 395.52 87.95280108254397" height="87.95280108254397" width="395.52" id="textblock"><g><svg viewBox="0 0 395.52 87.95280108254397" height="87.95280108254397" width="395.52"><g transform="matrix(1,0,0,1,0,0)"><svg width="395.52" viewBox="2.25 -38.1 221.68 49.300000000000004" height="87.95280108254397" data-palette-color="#b7feae"><path d="M12.7 0.55L12.7 0.55Q9.03 0.55 6.28-0.68 3.53-1.9 2.25-3.25L2.25-3.25 4.8-8.5Q5.33-7.83 6.46-6.98 7.6-6.13 9.11-5.49 10.63-4.85 12.25-4.85L12.25-4.85Q14.13-4.85 15.51-5.9 16.9-6.95 16.9-9L16.9-9Q16.9-11.03 15.46-12.21 14.03-13.4 11.55-14.9L11.55-14.9Q9.53-16.13 7.58-17.51 5.63-18.9 4.34-20.91 3.05-22.93 3.05-26L3.05-26Q3.05-30.13 5.69-32.79 8.33-35.45 13.35-35.45L13.35-35.45Q15.9-35.45 17.69-34.85 19.48-34.25 20.59-33.48 21.7-32.7 22.25-32.2L22.25-32.2 19.45-27.1Q19.1-27.6 18.28-28.33 17.45-29.05 16.25-29.6 15.05-30.15 13.6-30.15L13.6-30.15Q11.58-30.15 10.56-28.99 9.55-27.83 9.55-26.25L9.55-26.25Q9.55-24.23 11.04-22.95 12.53-21.68 14.65-20.4L14.65-20.4Q17-19 19-17.59 21-16.18 22.23-14.21 23.45-12.25 23.45-9.2L23.45-9.2Q23.45-4.63 20.58-2.04 17.7 0.55 12.7 0.55ZM35.3 0L28.9 0 28.9-24.9 34.65-24.9 34.8-21.6Q35.77-23.1 37.51-24.3 39.25-25.5 42.15-25.5L42.15-25.5Q44.67-25.5 46.35-24.38 48.02-23.25 48.87-21.2L48.87-21.2Q49.82-22.78 51.61-24.14 53.4-25.5 56.6-25.5L56.6-25.5Q60.35-25.5 62.2-23.1 64.05-20.7 64.05-16.45L64.05-16.45 64.05 0 57.7 0 57.7-15.8Q57.7-17.88 56.9-19.16 56.1-20.45 54.3-20.45L54.3-20.45Q52.55-20.45 51.12-19.16 49.7-17.88 49.7-15.8L49.7-15.8 49.7 0 43.3 0 43.3-15.8Q43.3-17.88 42.39-19.21 41.47-20.55 39.7-20.55L39.7-20.55Q37.9-20.55 36.6-19.21 35.3-17.88 35.3-15.8L35.3-15.8 35.3 0ZM87.64 0L81.24 0 81.24-34.85 99.44-34.85 99.44-29.35 87.64-29.35 87.64-20.2 97.94-20.2 97.94-14.6 87.64-14.6 87.64 0ZM110.14 0L104.04 0 104.04-38 110.14-38 110.14 0ZM124.44-28.95L117.44-28.95 117.44-35.6 124.44-35.6 124.44-28.95ZM124.19 0L117.69 0 117.69-24.9 124.19-24.9 124.19 0ZM132.29 9L135.09 4.3Q135.99 4.85 137.27 5.3 138.56 5.75 140.29 5.75L140.29 5.75Q143.49 5.75 145.09 4.09 146.69 2.43 146.69-1.2L146.69-1.2 146.69-5.1Q146.34-3.83 145.59-2.58 144.84-1.33 143.52-0.51 142.21 0.3 140.19 0.3L140.19 0.3Q137.36 0.3 135.07-0.99 132.79-2.27 131.44-5.08 130.09-7.88 130.09-12.4L130.09-12.4Q130.09-17 131.42-19.89 132.76-22.78 135.02-24.14 137.29-25.5 140.04-25.5L140.04-25.5Q143.11-25.5 144.74-23.95 146.36-22.4 146.69-20.6L146.69-20.6 147.39-24.9 152.29-24.9 152.29-1.2Q152.29 4.53 149.4 7.86 146.51 11.2 140.89 11.2L140.89 11.2Q137.86 11.2 135.64 10.44 133.41 9.68 132.29 9L132.29 9ZM141.44-4.6L141.44-4.6Q143.61-4.6 144.85-6.66 146.09-8.72 146.09-12.5L146.09-12.5Q146.09-16.07 145.01-18.26 143.94-20.45 141.64-20.45L141.64-20.45Q140.36-20.45 139.2-19.69 138.04-18.93 137.29-17.18 136.54-15.43 136.54-12.45L136.54-12.45Q136.54-8.4 137.92-6.5 139.31-4.6 141.44-4.6ZM165.88 0L159.73 0 159.73-38.1 165.63-38.1 165.63-25.5 165.51-21.75Q166.51-23.2 168.31-24.35 170.11-25.5 173.08-25.5L173.08-25.5Q176.83-25.5 178.68-23.1 180.53-20.7 180.53-16.45L180.53-16.45 180.53 0 174.13 0 174.13-15.8Q174.13-17.88 173.15-19.16 172.16-20.45 170.38-20.45L170.38-20.45Q168.63-20.45 167.26-19.16 165.88-17.88 165.88-15.8L165.88-15.8 165.88 0ZM196.33 0.75L196.33 0.75Q192.11 0.75 190.62-1.45 189.13-3.65 189.13-8.1L189.13-8.1 189.13-19.65 185.88-19.65 185.88-24.9 189.38-24.9 189.73-30.15 195.18-32.5 195.18-24.9 201.33-24.9 201.33-19.65 195.18-19.65 195.18-8.25Q195.18-6.08 195.79-5.24 196.41-4.4 197.48-4.4L197.48-4.4Q198.58-4.4 199.81-4.98 201.03-5.55 201.73-6.15L201.73-6.15 202.93-1.1Q202.16-0.55 200.92-0.14 199.68 0.28 198.42 0.51 197.16 0.75 196.33 0.75ZM214.38 0.45L214.38 0.45Q211.65 0.45 209.91-0.06 208.18-0.58 207.22-1.24 206.25-1.9 205.88-2.35L205.88-2.35 207.73-7.1Q208.83-6.2 210.54-5.33 212.25-4.45 214.53-4.45L214.53-4.45Q216.3-4.45 217.01-5.18 217.73-5.9 217.73-6.75L217.73-6.75Q217.73-7.93 216.1-8.88 214.48-9.83 212.33-10.75L212.33-10.75Q211.05-11.3 209.63-12.15 208.2-13 207.19-14.4 206.18-15.8 206.18-18L206.18-18Q206.18-21.38 208.64-23.39 211.1-25.4 215.63-25.4L215.63-25.4Q218.53-25.4 220.54-24.54 222.55-23.68 223.23-23L223.23-23 221.53-18.5Q220.55-19.25 219.05-19.93 217.55-20.6 215.83-20.6L215.83-20.6Q213.93-20.6 213.18-20.1 212.43-19.6 212.43-18.5L212.43-18.5Q212.43-17.28 213.76-16.49 215.1-15.7 216.98-14.95L216.98-14.95Q220.1-13.73 222.01-11.94 223.93-10.15 223.93-7.4L223.93-7.4Q223.93-5.35 222.98-3.56 222.03-1.78 219.93-0.66 217.83 0.45 214.38 0.45Z" opacity="1" transform="matrix(1,0,0,1,0,0)" fill="#b7feae" class="wordmark-text-0" data-fill-palette-color="primary" id="text-0"></path></svg></g></svg></g></svg></g></svg></g><g><svg viewBox="0 0 121.55077109607578 121.55077109607578" height="121.55077109607578" width="121.55077109607578"><g><svg xmlns="http://www.w3.org/2000/svg" xmlns:xlink="http://www.w3.org/1999/xlink" version="1.1" x="0" y="0" viewBox="2.5 2.5 85 85" enable-background="new 0 0 90 90" xml:space="preserve" height="121.55077109607578" width="121.55077109607578" class="icon-icon-0" data-fill-palette-color="accent" id="icon-0"><path d="M45 2.5C21.527 2.5 2.5 21.527 2.5 45S21.527 87.5 45 87.5 87.5 68.472 87.5 45 68.472 2.5 45 2.5M64.654 67.567L61.666 70.554 46.583 50.172A135 135 0 0 1 36.916 58.302L38.307 69.198 37.062 70.443 31.093 62.334C28.625 63.751 27.025 64.39 26.369 63.734 25.714 63.079 26.272 61.399 27.69 58.93L19.554 52.934 20.8 51.689 31.692 53.076C33.902 50.192 36.579 46.805 39.774 43.36L19.441 28.33 22.429 25.342 49.357 33.686C62.603 20.985 68.342 18.167 70.09 19.915 71.838 21.664 69.014 27.397 56.313 40.642z" fill="#cafbff" data-fill-palette-color="accent"></path></svg></g></svg></g></svg></g><defs></defs></svg><rect width="395.52" height="89.38767851597267" fill="none" stroke="none" visibility="hidden"></rect></g></svg></g></svg>