<svg xmlns="http://www.w3.org/2000/svg" version="1.1" xmlns:xlink="http://www.w3.org/1999/xlink" xmlns:svgjs="http://svgjs.dev/svgjs" width="2000" height="1500" viewBox="0 0 2000 1500"><rect width="2000" height="1500" fill="#ffffff"></rect><g transform="matrix(0.75,0,0,0.75,249.090909090909,515.9548842161504)"><svg viewBox="0 0 396 123" data-background-color="#ffffff" preserveAspectRatio="xMidYMid meet" height="621" width="2000" xmlns="http://www.w3.org/2000/svg" xmlns:xlink="http://www.w3.org/1999/xlink"><g id="tight-bounds" transform="matrix(1,0,0,1,0.2400000000000091,0.3090160846237211)"><svg viewBox="0 0 395.52 122.38196783075254" height="122.38196783075254" width="395.52"><rect width="395.52" height="122.38196783075254" fill="url(#18b79330-1528-4254-b587-bccde617139c)" mask="url(#f2da67af-81d1-4118-ac81-b337e3d33aff)" data-fill-palette-color="tertiary"></rect><g><svg viewBox="0 0 627.6677430000211 194.2132219160337" height="122.38196783075254" width="395.52"><g transform="matrix(1,0,0,1,232.14774300002114,56.934673653941616)"><svg viewBox="0 0 395.52 80.34387460815046" height="80.34387460815046" width="395.52"><g id="textblocktransform"><svg viewBox="0 0 395.52 80.34387460815046" height="80.34387460815046" width="395.52" id="textblock"><g><svg viewBox="0 0 395.52 80.34387460815046" height="80.34387460815046" width="395.52"><g transform="matrix(1,0,0,1,0,0)"><svg width="395.52" viewBox="1.5 -37 239.23 48.6" height="80.34387460815046" data-palette-color="url(#e5b2ad2d-f748-47d3-9cad-7227534bcf56)"></svg></g></svg></g></svg></g></svg></g><g><svg viewBox="0 0 194.2132219160337 194.2132219160337" height="194.2132219160337" width="194.2132219160337"><g><svg></svg></g><g id="icon-0"><svg viewBox="0 0 194.2132219160337 194.2132219160337" height="194.2132219160337" width="194.2132219160337"><g><path d="M0 97.107c0-53.63 43.476-97.107 97.107-97.107 53.63 0 97.107 43.476 97.106 97.107 0 53.63-43.476 97.107-97.106 97.106-53.63 0-97.107-43.476-97.107-97.106zM97.107 186.968c49.629 0 89.861-40.232 89.861-89.861 0-49.629-40.232-89.861-89.861-89.862-49.629 0-89.861 40.232-89.862 89.862 0 49.629 40.232 89.861 89.862 89.861z" data-fill-palette-color="tertiary" fill="url(#18b79330-1528-4254-b587-bccde617139c)" stroke="transparent"></path></g><g transform="matrix(1,0,0,1,42.32385017251868,42.207159067106105)"><svg viewBox="0 0 109.56552157099632 109.79890378182148" height="109.79890378182148" width="109.56552157099632"><g><svg xmlns="http://www.w3.org/2000/svg" xmlns:xlink="http://www.w3.org/1999/xlink" version="1.1" x="0" y="0" viewBox="0.5531820811854721 0.5 46.94681791881453 47.046817918814526" enable-background="new 0 0 48 48" xml:space="preserve" height="109.79890378182148" width="109.56552157099632" class="icon-dxe-0" data-fill-palette-color="accent" id="dxe-0"></svg></g></svg></g></svg></g></svg></g></svg></g><defs></defs><mask id="8b233d4f-1d2b-4cca-af74-ac1460896bcc"><g id="SvgjsG4364"><svg viewBox="0 0 395.52 122.38196783075254" height="122.38196783075254" width="395.52"><g><svg viewBox="0 0 627.6677430000211 194.2132219160337" height="122.38196783075254" width="395.52"><g transform="matrix(1,0,0,1,232.14774300002114,56.934673653941616)"><svg viewBox="0 0 395.52 80.34387460815046" height="80.34387460815046" width="395.52"><g id="SvgjsG4363"><svg viewBox="0 0 395.52 80.34387460815046" height="80.34387460815046" width="395.52" id="SvgjsSvg4362"><g><svg viewBox="0 0 395.52 80.34387460815046" height="80.34387460815046" width="395.52"><g transform="matrix(1,0,0,1,0,0)"><svg width="395.52" viewBox="1.5 -37 239.23 48.6" height="80.34387460815046" data-palette-color="url(#e5b2ad2d-f748-47d3-9cad-7227534bcf56)"><path d="M13.2 0.6L13.2 0.6Q9.55 0.6 6.55-0.38 3.55-1.35 1.5-2.95L1.5-2.95 3.9-6.95Q5.7-5.45 7.95-4.5 10.2-3.55 13.2-3.55L13.2-3.55Q16.8-3.55 18.9-5.05 21-6.55 21-9.1L21-9.1Q21-10.55 20.4-11.68 19.8-12.8 18.07-13.88 16.35-14.95 13-16.2L13-16.2Q9.4-17.6 7.25-19.03 5.1-20.45 4.17-22.28 3.25-24.1 3.25-26.6L3.25-26.6Q3.25-29.1 4.63-31.13 6-33.15 8.68-34.38 11.35-35.6 15.15-35.6L15.15-35.6Q18.25-35.6 20.73-34.98 23.2-34.35 25.55-33.2L25.55-33.2 23.8-29.15Q22.1-30.15 19.83-30.83 17.55-31.5 15.05-31.5L15.05-31.5Q11.75-31.5 9.85-30.2 7.95-28.9 7.95-26.85L7.95-26.85Q7.95-25.55 8.5-24.55 9.05-23.55 10.68-22.6 12.3-21.65 15.55-20.45L15.55-20.45Q19.45-19 21.73-17.4 24-15.8 24.95-13.93 25.9-12.05 25.9-9.65L25.9-9.65Q25.9-6.4 24.28-4.1 22.65-1.8 19.78-0.6 16.9 0.6 13.2 0.6ZM37.4 0L32.9 0 32.9-35 39.55-35 49.25-12.85 58.8-35 65.6-35 65.6 0 60.85 0 60.85-28.95 51.5-7.9 46.8-7.9 37.4-28.95 37.4 0ZM94.34 0L89.59 0 89.59-35 110.34-35 110.34-30.9 94.34-30.9 94.34-20.2 107.69-20.2 107.69-16.3 94.34-16.3 94.34 0ZM122.24 0.6L122.24 0.6Q119.94 0.6 118.09-0.28 116.24-1.15 115.17-3.1 114.09-5.05 114.09-8.15L114.09-8.15 114.09-37 118.59-37 118.59-8.6Q118.59-5.9 119.72-4.6 120.84-3.3 122.84-3.3L122.84-3.3Q123.79-3.3 124.72-3.53 125.64-3.75 126.29-4.05L126.29-4.05 127.39-0.4Q126.49 0 125.17 0.3 123.84 0.6 122.24 0.6ZM136.14 0L131.64 0 131.64-26 136.14-26 136.14 0ZM133.89-30.45L133.89-30.45Q132.59-30.45 131.66-31.4 130.74-32.35 130.74-33.6L130.74-33.6Q130.74-35.05 131.59-35.9 132.44-36.75 133.89-36.75L133.89-36.75Q135.19-36.75 136.11-35.83 137.04-34.9 137.04-33.6L137.04-33.6Q137.04-32.2 136.19-31.33 135.34-30.45 133.89-30.45ZM153.69 11.6L153.69 11.6Q151.38 11.6 149.21 11.05 147.03 10.5 145.33 9.4L145.33 9.4 146.98 5.5Q148.19 6.45 149.78 7.08 151.38 7.7 153.69 7.7L153.69 7.7Q157.23 7.7 159.26 5.83 161.28 3.95 161.28-0.15L161.28-0.15 161.28-3.35Q160.28-2.15 158.41-1.07 156.53 0 153.94 0L153.94 0Q150.98 0 148.33-1.53 145.69-3.05 144.03-6 142.38-8.95 142.38-13.1L142.38-13.1Q142.38-17 144.01-20.05 145.63-23.1 148.38-24.85 151.13-26.6 154.44-26.6L154.44-26.6Q156.63-26.6 158.44-25.85 160.23-25.1 161.53-24L161.53-24 161.53-26 165.63-26 165.63-0.6Q165.63 3.7 164.13 6.4 162.63 9.1 159.96 10.35 157.28 11.6 153.69 11.6ZM154.94-4L154.94-4Q156.94-4 158.53-4.9 160.13-5.8 161.13-7L161.13-7 161.13-20.6Q160.03-21.4 158.48-22.05 156.94-22.7 154.88-22.7L154.88-22.7Q152.83-22.7 151.03-21.6 149.23-20.5 148.11-18.43 146.98-16.35 146.98-13.35L146.98-13.35Q146.98-10.5 148.11-8.4 149.23-6.3 151.03-5.15 152.83-4 154.94-4ZM177.88 0L173.38 0 173.38-37 177.88-37 177.88-21.85Q179.28-23.9 181.43-25.25 183.58-26.6 186.48-26.6L186.48-26.6Q190.88-26.6 193.06-23.95 195.23-21.3 195.23-16.95L195.23-16.95 195.23 0 190.73 0 190.73-16.45Q190.73-19.25 189.43-20.95 188.13-22.65 185.78-22.65L185.78-22.65Q183.48-22.65 181.41-21.03 179.33-19.4 177.88-17.2L177.88-17.2 177.88 0ZM212.08 0.6L212.08 0.6Q208.33 0.6 206.16-1.88 203.98-4.35 203.98-8.95L203.98-8.95 203.98-21.15 199.48-21.15 199.48-25.05 204.08-25.05 205.03-33.25 208.48-33.25 208.48-25.05 215.68-25.05 215.68-21.15 208.48-21.15 208.48-8.6Q208.48-5.7 209.7-4.55 210.93-3.4 212.63-3.4L212.63-3.4Q213.88-3.4 215-3.8 216.13-4.2 217.08-4.75L217.08-4.75 218.33-1.15Q217.33-0.55 215.63 0.03 213.93 0.6 212.08 0.6ZM230.33 0.6L230.33 0.6Q227.38 0.6 225-0.15 222.63-0.9 221.08-2.1L221.08-2.1 222.98-5.85Q224.28-4.75 226.25-4.03 228.23-3.3 230.48-3.3L230.48-3.3Q233.28-3.3 234.7-4.23 236.13-5.15 236.13-6.6L236.13-6.6Q236.13-7.65 235.6-8.45 235.08-9.25 233.68-10.03 232.28-10.8 229.63-11.7L229.63-11.7Q225.98-12.95 224.15-14.68 222.33-16.4 222.33-19.45L222.33-19.45Q222.33-22.45 224.95-24.53 227.58-26.6 232.23-26.6L232.23-26.6Q234.73-26.6 236.68-26.08 238.63-25.55 240.18-24.75L240.18-24.75 238.93-21.05Q237.58-21.85 235.85-22.35 234.13-22.85 232.03-22.85L232.03-22.85Q229.43-22.85 228.08-21.8 226.73-20.75 226.73-19.5L226.73-19.5Q226.73-18.3 227.78-17.45 228.83-16.6 231.88-15.6L231.88-15.6Q236.83-13.95 238.78-11.95 240.73-9.95 240.73-6.95L240.73-6.95Q240.73-3.45 237.9-1.43 235.08 0.6 230.33 0.6Z" opacity="1" transform="matrix(1,0,0,1,0,0)" fill="white" class="wordmark-text-0" id="SvgjsPath4361"></path></svg></g></svg></g></svg></g></svg></g><g><svg viewBox="0 0 194.2132219160337 194.2132219160337" height="194.2132219160337" width="194.2132219160337"><g><svg></svg></g><g id="SvgjsG4360"><svg viewBox="0 0 194.2132219160337 194.2132219160337" height="194.2132219160337" width="194.2132219160337"><g><path d="M0 97.107c0-53.63 43.476-97.107 97.107-97.107 53.63 0 97.107 43.476 97.106 97.107 0 53.63-43.476 97.107-97.106 97.106-53.63 0-97.107-43.476-97.107-97.106zM97.107 186.968c49.629 0 89.861-40.232 89.861-89.861 0-49.629-40.232-89.861-89.861-89.862-49.629 0-89.861 40.232-89.862 89.862 0 49.629 40.232 89.861 89.862 89.861z" fill="black" stroke="transparent"></path></g><g transform="matrix(1,0,0,1,42.32385017251868,42.207159067106105)"><svg viewBox="0 0 109.56552157099632 109.79890378182148" height="109.79890378182148" width="109.56552157099632"><g><svg xmlns="http://www.w3.org/2000/svg" xmlns:xlink="http://www.w3.org/1999/xlink" version="1.1" x="0" y="0" viewBox="0.5531820811854721 0.5 46.94681791881453 47.046817918814526" enable-background="new 0 0 48 48" xml:space="preserve" height="109.79890378182148" width="109.56552157099632" class="icon-dxe-0" data-fill-palette-color="accent" id="SvgjsSvg4359"><path fill="black" d="M37.4 42.3L40.7 39C40.9 38.8 41 38.5 40.9 38.3L36.7 17.6C36.6 17.3 36.7 17.1 36.9 16.9L46.3 7.5C47.9 5.9 47.9 3.3 46.3 1.7S42.1 0.1 40.5 1.7L30.8 11.4C30.6 11.6 30.4 11.7 30.1 11.6L9.1 7.7C8.8 7.7 8.6 7.7 8.4 7.9L5 11.4C4.6 11.8 4.7 12.5 5.2 12.7L21.1 19.7C21.6 19.9 21.7 20.6 21.3 21L11 31.3C10.8 31.5 10.5 31.6 10.3 31.5L3.5 30.1C3.2 30 3 30.1 2.8 30.3L0.8 32.3C0.4 32.7 0.5 33.3 1 33.6L7.8 36.9C7.8 37 7.9 37 8 37.1L10.9 40C11 40.1 11 40.1 11 40.2L14.5 47.1C14.7 47.6 15.4 47.7 15.8 47.3L17.5 45.6C17.7 45.4 17.8 45.1 17.7 44.9L16.3 38C16.2 37.7 16.3 37.5 16.5 37.3L27.4 26.4C27.8 26 28.4 26.1 28.7 26.6L36.2 42.1C36.4 42.6 37 42.7 37.4 42.3"></path></svg></g></svg></g></svg></g></svg></g></svg></g><defs><mask></mask></defs></svg><rect width="395.52" height="122.38196783075254" fill="black" stroke="none" visibility="hidden"></rect></g></mask><linearGradient x1="0" x2="1" y1="0.578" y2="0.595" id="e5b2ad2d-f748-47d3-9cad-7227534bcf56"><stop stop-color="#dede50" offset="0"></stop><stop stop-color="#559c49" offset="1"></stop></linearGradient><rect width="395.52" height="122.38196783075254" fill="url(#e5b2ad2d-f748-47d3-9cad-7227534bcf56)" mask="url(#8b233d4f-1d2b-4cca-af74-ac1460896bcc)" data-fill-palette-color="primary"></rect><mask id="6ea81879-1cb5-4f6d-ac87-98cdd4187dfa"><g id="SvgjsG4387"><svg viewBox="0 0 395.52 122.38196783075254" height="122.38196783075254" width="395.52"><g><svg viewBox="0 0 627.6677430000211 194.2132219160337" height="122.38196783075254" width="395.52"><g transform="matrix(1,0,0,1,232.14774300002114,56.934673653941616)"><svg viewBox="0 0 395.52 80.34387460815046" height="80.34387460815046" width="395.52"><g id="SvgjsG4386"><svg viewBox="0 0 395.52 80.34387460815046" height="80.34387460815046" width="395.52" id="SvgjsSvg4385"><g><svg viewBox="0 0 395.52 80.34387460815046" height="80.34387460815046" width="395.52"><g transform="matrix(1,0,0,1,0,0)"><svg width="395.52" viewBox="1.5 -37 239.23 48.6" height="80.34387460815046" data-palette-color="url(#e5b2ad2d-f748-47d3-9cad-7227534bcf56)"></svg></g></svg></g></svg></g></svg></g><g><svg viewBox="0 0 194.2132219160337 194.2132219160337" height="194.2132219160337" width="194.2132219160337"><g><svg></svg></g><g id="SvgjsG4384"><svg viewBox="0 0 194.2132219160337 194.2132219160337" height="194.2132219160337" width="194.2132219160337"><g><path d="M0 97.107c0-53.63 43.476-97.107 97.107-97.107 53.63 0 97.107 43.476 97.106 97.107 0 53.63-43.476 97.107-97.106 97.106-53.63 0-97.107-43.476-97.107-97.106zM97.107 186.968c49.629 0 89.861-40.232 89.861-89.861 0-49.629-40.232-89.861-89.861-89.862-49.629 0-89.861 40.232-89.862 89.862 0 49.629 40.232 89.861 89.862 89.861z" fill="black" stroke="transparent"></path></g><g transform="matrix(1,0,0,1,42.32385017251868,42.207159067106105)"><svg viewBox="0 0 109.56552157099632 109.79890378182148" height="109.79890378182148" width="109.56552157099632"><g><svg xmlns="http://www.w3.org/2000/svg" xmlns:xlink="http://www.w3.org/1999/xlink" version="1.1" x="0" y="0" viewBox="0.5531820811854721 0.5 46.94681791881453 47.046817918814526" enable-background="new 0 0 48 48" xml:space="preserve" height="109.79890378182148" width="109.56552157099632" class="icon-dxe-0" data-fill-palette-color="accent" id="SvgjsSvg4383"><path fill="white" d="M37.4 42.3L40.7 39C40.9 38.8 41 38.5 40.9 38.3L36.7 17.6C36.6 17.3 36.7 17.1 36.9 16.9L46.3 7.5C47.9 5.9 47.9 3.3 46.3 1.7S42.1 0.1 40.5 1.7L30.8 11.4C30.6 11.6 30.4 11.7 30.1 11.6L9.1 7.7C8.8 7.7 8.6 7.7 8.4 7.9L5 11.4C4.6 11.8 4.7 12.5 5.2 12.7L21.1 19.7C21.6 19.9 21.7 20.6 21.3 21L11 31.3C10.8 31.5 10.5 31.6 10.3 31.5L3.5 30.1C3.2 30 3 30.1 2.8 30.3L0.8 32.3C0.4 32.7 0.5 33.3 1 33.6L7.8 36.9C7.8 37 7.9 37 8 37.1L10.9 40C11 40.1 11 40.1 11 40.2L14.5 47.1C14.7 47.6 15.4 47.7 15.8 47.3L17.5 45.6C17.7 45.4 17.8 45.1 17.7 44.9L16.3 38C16.2 37.7 16.3 37.5 16.5 37.3L27.4 26.4C27.8 26 28.4 26.1 28.7 26.6L36.2 42.1C36.4 42.6 37 42.7 37.4 42.3"></path></svg></g></svg></g></svg></g></svg></g></svg></g><defs><mask></mask></defs><mask><g id="SvgjsG4382"><svg viewBox="0 0 395.52 122.38196783075254" height="122.38196783075254" width="395.52"><g><svg viewBox="0 0 627.6677430000211 194.2132219160337" height="122.38196783075254" width="395.52"><g transform="matrix(1,0,0,1,232.14774300002114,56.934673653941616)"><svg viewBox="0 0 395.52 80.34387460815046" height="80.34387460815046" width="395.52"><g id="SvgjsG4381"><svg viewBox="0 0 395.52 80.34387460815046" height="80.34387460815046" width="395.52" id="SvgjsSvg4380"><g><svg viewBox="0 0 395.52 80.34387460815046" height="80.34387460815046" width="395.52"><g transform="matrix(1,0,0,1,0,0)"><svg width="395.52" viewBox="1.5 -37 239.23 48.6" height="80.34387460815046" data-palette-color="url(#e5b2ad2d-f748-47d3-9cad-7227534bcf56)"><path d="M13.2 0.6L13.2 0.6Q9.55 0.6 6.55-0.38 3.55-1.35 1.5-2.95L1.5-2.95 3.9-6.95Q5.7-5.45 7.95-4.5 10.2-3.55 13.2-3.55L13.2-3.55Q16.8-3.55 18.9-5.05 21-6.55 21-9.1L21-9.1Q21-10.55 20.4-11.68 19.8-12.8 18.07-13.88 16.35-14.95 13-16.2L13-16.2Q9.4-17.6 7.25-19.03 5.1-20.45 4.17-22.28 3.25-24.1 3.25-26.6L3.25-26.6Q3.25-29.1 4.63-31.13 6-33.15 8.68-34.38 11.35-35.6 15.15-35.6L15.15-35.6Q18.25-35.6 20.73-34.98 23.2-34.35 25.55-33.2L25.55-33.2 23.8-29.15Q22.1-30.15 19.83-30.83 17.55-31.5 15.05-31.5L15.05-31.5Q11.75-31.5 9.85-30.2 7.95-28.9 7.95-26.85L7.95-26.85Q7.95-25.55 8.5-24.55 9.05-23.55 10.68-22.6 12.3-21.65 15.55-20.45L15.55-20.45Q19.45-19 21.73-17.4 24-15.8 24.95-13.93 25.9-12.05 25.9-9.65L25.9-9.65Q25.9-6.4 24.28-4.1 22.65-1.8 19.78-0.6 16.9 0.6 13.2 0.6ZM37.4 0L32.9 0 32.9-35 39.55-35 49.25-12.85 58.8-35 65.6-35 65.6 0 60.85 0 60.85-28.95 51.5-7.9 46.8-7.9 37.4-28.95 37.4 0ZM94.34 0L89.59 0 89.59-35 110.34-35 110.34-30.9 94.34-30.9 94.34-20.2 107.69-20.2 107.69-16.3 94.34-16.3 94.34 0ZM122.24 0.6L122.24 0.6Q119.94 0.6 118.09-0.28 116.24-1.15 115.17-3.1 114.09-5.05 114.09-8.15L114.09-8.15 114.09-37 118.59-37 118.59-8.6Q118.59-5.9 119.72-4.6 120.84-3.3 122.84-3.3L122.84-3.3Q123.79-3.3 124.72-3.53 125.64-3.75 126.29-4.05L126.29-4.05 127.39-0.4Q126.49 0 125.17 0.3 123.84 0.6 122.24 0.6ZM136.14 0L131.64 0 131.64-26 136.14-26 136.14 0ZM133.89-30.45L133.89-30.45Q132.59-30.45 131.66-31.4 130.74-32.35 130.74-33.6L130.74-33.6Q130.74-35.05 131.59-35.9 132.44-36.75 133.89-36.75L133.89-36.75Q135.19-36.75 136.11-35.83 137.04-34.9 137.04-33.6L137.04-33.6Q137.04-32.2 136.19-31.33 135.34-30.45 133.89-30.45ZM153.69 11.6L153.69 11.6Q151.38 11.6 149.21 11.05 147.03 10.5 145.33 9.4L145.33 9.4 146.98 5.5Q148.19 6.45 149.78 7.08 151.38 7.7 153.69 7.7L153.69 7.7Q157.23 7.7 159.26 5.83 161.28 3.95 161.28-0.15L161.28-0.15 161.28-3.35Q160.28-2.15 158.41-1.07 156.53 0 153.94 0L153.94 0Q150.98 0 148.33-1.53 145.69-3.05 144.03-6 142.38-8.95 142.38-13.1L142.38-13.1Q142.38-17 144.01-20.05 145.63-23.1 148.38-24.85 151.13-26.6 154.44-26.6L154.44-26.6Q156.63-26.6 158.44-25.85 160.23-25.1 161.53-24L161.53-24 161.53-26 165.63-26 165.63-0.6Q165.63 3.7 164.13 6.4 162.63 9.1 159.96 10.35 157.28 11.6 153.69 11.6ZM154.94-4L154.94-4Q156.94-4 158.53-4.9 160.13-5.8 161.13-7L161.13-7 161.13-20.6Q160.03-21.4 158.48-22.05 156.94-22.7 154.88-22.7L154.88-22.7Q152.83-22.7 151.03-21.6 149.23-20.5 148.11-18.43 146.98-16.35 146.98-13.35L146.98-13.35Q146.98-10.5 148.11-8.4 149.23-6.3 151.03-5.15 152.83-4 154.94-4ZM177.88 0L173.38 0 173.38-37 177.88-37 177.88-21.85Q179.28-23.9 181.43-25.25 183.58-26.6 186.48-26.6L186.48-26.6Q190.88-26.6 193.06-23.95 195.23-21.3 195.23-16.95L195.23-16.95 195.23 0 190.73 0 190.73-16.45Q190.73-19.25 189.43-20.95 188.13-22.65 185.78-22.65L185.78-22.65Q183.48-22.65 181.41-21.03 179.33-19.4 177.88-17.2L177.88-17.2 177.88 0ZM212.08 0.6L212.08 0.6Q208.33 0.6 206.16-1.88 203.98-4.35 203.98-8.95L203.98-8.95 203.98-21.15 199.48-21.15 199.48-25.05 204.08-25.05 205.03-33.25 208.48-33.25 208.48-25.05 215.68-25.05 215.68-21.15 208.48-21.15 208.48-8.6Q208.48-5.7 209.7-4.55 210.93-3.4 212.63-3.4L212.63-3.4Q213.88-3.4 215-3.8 216.13-4.2 217.08-4.75L217.08-4.75 218.33-1.15Q217.33-0.55 215.63 0.03 213.93 0.6 212.08 0.6ZM230.33 0.6L230.33 0.6Q227.38 0.6 225-0.15 222.63-0.9 221.08-2.1L221.08-2.1 222.98-5.85Q224.28-4.75 226.25-4.03 228.23-3.3 230.48-3.3L230.48-3.3Q233.28-3.3 234.7-4.23 236.13-5.15 236.13-6.6L236.13-6.6Q236.13-7.65 235.6-8.45 235.08-9.25 233.68-10.03 232.28-10.8 229.63-11.7L229.63-11.7Q225.98-12.95 224.15-14.68 222.33-16.4 222.33-19.45L222.33-19.45Q222.33-22.45 224.95-24.53 227.58-26.6 232.23-26.6L232.23-26.6Q234.73-26.6 236.68-26.08 238.63-25.55 240.18-24.75L240.18-24.75 238.93-21.05Q237.58-21.85 235.85-22.35 234.13-22.85 232.03-22.85L232.03-22.85Q229.43-22.85 228.08-21.8 226.73-20.75 226.73-19.5L226.73-19.5Q226.73-18.3 227.78-17.45 228.83-16.6 231.88-15.6L231.88-15.6Q236.83-13.95 238.78-11.95 240.73-9.95 240.73-6.95L240.73-6.95Q240.73-3.45 237.9-1.43 235.08 0.6 230.33 0.6Z" opacity="1" transform="matrix(1,0,0,1,0,0)" fill="black" class="wordmark-text-0" id="SvgjsPath4379"></path></svg></g></svg></g></svg></g></svg></g><g><svg viewBox="0 0 194.2132219160337 194.2132219160337" height="194.2132219160337" width="194.2132219160337"><g><svg></svg></g><g id="SvgjsG4378"><svg viewBox="0 0 194.2132219160337 194.2132219160337" height="194.2132219160337" width="194.2132219160337"><g><path d="M0 97.107c0-53.63 43.476-97.107 97.107-97.107 53.63 0 97.107 43.476 97.106 97.107 0 53.63-43.476 97.107-97.106 97.106-53.63 0-97.107-43.476-97.107-97.106zM97.107 186.968c49.629 0 89.861-40.232 89.861-89.861 0-49.629-40.232-89.861-89.861-89.862-49.629 0-89.861 40.232-89.862 89.862 0 49.629 40.232 89.861 89.862 89.861z" fill="black" stroke="transparent"></path></g><g transform="matrix(1,0,0,1,42.32385017251868,42.207159067106105)"><svg viewBox="0 0 109.56552157099632 109.79890378182148" height="109.79890378182148" width="109.56552157099632"><g><svg xmlns="http://www.w3.org/2000/svg" xmlns:xlink="http://www.w3.org/1999/xlink" version="1.1" x="0" y="0" viewBox="0.5531820811854721 0.5 46.94681791881453 47.046817918814526" enable-background="new 0 0 48 48" xml:space="preserve" height="109.79890378182148" width="109.56552157099632" class="icon-dxe-0" data-fill-palette-color="accent" id="SvgjsSvg4377"><path fill="black" d="M37.4 42.3L40.7 39C40.9 38.8 41 38.5 40.9 38.3L36.7 17.6C36.6 17.3 36.7 17.1 36.9 16.9L46.3 7.5C47.9 5.9 47.9 3.3 46.3 1.7S42.1 0.1 40.5 1.7L30.8 11.4C30.6 11.6 30.4 11.7 30.1 11.6L9.1 7.7C8.8 7.7 8.6 7.7 8.4 7.9L5 11.4C4.6 11.8 4.7 12.5 5.2 12.7L21.1 19.7C21.6 19.9 21.7 20.6 21.3 21L11 31.3C10.8 31.5 10.5 31.6 10.3 31.5L3.5 30.1C3.2 30 3 30.1 2.8 30.3L0.8 32.3C0.4 32.7 0.5 33.3 1 33.6L7.8 36.9C7.8 37 7.9 37 8 37.1L10.9 40C11 40.1 11 40.1 11 40.2L14.5 47.1C14.7 47.6 15.4 47.7 15.8 47.3L17.5 45.6C17.7 45.4 17.8 45.1 17.7 44.9L16.3 38C16.2 37.7 16.3 37.5 16.5 37.3L27.4 26.4C27.8 26 28.4 26.1 28.7 26.6L36.2 42.1C36.4 42.6 37 42.7 37.4 42.3"></path></svg></g></svg></g></svg></g></svg></g></svg></g><defs><mask></mask></defs></svg><rect width="395.52" height="122.38196783075254" fill="black" stroke="none" visibility="hidden"></rect></g></mask></svg><rect width="395.52" height="122.38196783075254" fill="black" stroke="none" visibility="hidden"></rect></g></mask><linearGradient x1="0" x2="1" y1="0.578" y2="0.595" id="8a61f1ca-9df6-4db6-b7e7-05c6a897cadb"><stop stop-color="#dede50" offset="0"></stop><stop stop-color="#559c49" offset="1"></stop></linearGradient><rect width="395.52" height="122.38196783075254" fill="url(#8a61f1ca-9df6-4db6-b7e7-05c6a897cadb)" mask="url(#6ea81879-1cb5-4f6d-ac87-98cdd4187dfa)" data-fill-palette-color="accent"></rect><mask id="f2da67af-81d1-4118-ac81-b337e3d33aff"><g id="SvgjsG4409"><svg viewBox="0 0 395.52 122.38196783075254" height="122.38196783075254" width="395.52"><g><svg viewBox="0 0 627.6677430000211 194.2132219160337" height="122.38196783075254" width="395.52"><g transform="matrix(1,0,0,1,232.14774300002114,56.934673653941616)"><svg viewBox="0 0 395.52 80.34387460815046" height="80.34387460815046" width="395.52"><g id="SvgjsG4408"><svg viewBox="0 0 395.52 80.34387460815046" height="80.34387460815046" width="395.52" id="SvgjsSvg4407"><g><svg viewBox="0 0 395.52 80.34387460815046" height="80.34387460815046" width="395.52"><g transform="matrix(1,0,0,1,0,0)"><svg width="395.52" viewBox="1.5 -37 239.23 48.6" height="80.34387460815046" data-palette-color="url(#e5b2ad2d-f748-47d3-9cad-7227534bcf56)"></svg></g></svg></g></svg></g></svg></g><g><svg viewBox="0 0 194.2132219160337 194.2132219160337" height="194.2132219160337" width="194.2132219160337"><g><svg></svg></g><g id="SvgjsG4406"><svg viewBox="0 0 194.2132219160337 194.2132219160337" height="194.2132219160337" width="194.2132219160337"><g><path d="M0 97.107c0-53.63 43.476-97.107 97.107-97.107 53.63 0 97.107 43.476 97.106 97.107 0 53.63-43.476 97.107-97.106 97.106-53.63 0-97.107-43.476-97.107-97.106zM97.107 186.968c49.629 0 89.861-40.232 89.861-89.861 0-49.629-40.232-89.861-89.861-89.862-49.629 0-89.861 40.232-89.862 89.862 0 49.629 40.232 89.861 89.862 89.861z" fill="white" stroke="transparent"></path></g><g transform="matrix(1,0,0,1,42.32385017251868,42.207159067106105)"><svg viewBox="0 0 109.56552157099632 109.79890378182148" height="109.79890378182148" width="109.56552157099632"><g><svg xmlns="http://www.w3.org/2000/svg" xmlns:xlink="http://www.w3.org/1999/xlink" version="1.1" x="0" y="0" viewBox="0.5531820811854721 0.5 46.94681791881453 47.046817918814526" enable-background="new 0 0 48 48" xml:space="preserve" height="109.79890378182148" width="109.56552157099632" class="icon-dxe-0" data-fill-palette-color="accent" id="SvgjsSvg4405"></svg></g></svg></g></svg></g></svg></g></svg></g><defs><mask></mask></defs><mask><g id="SvgjsG4404"><svg viewBox="0 0 395.52 122.38196783075254" height="122.38196783075254" width="395.52"><g><svg viewBox="0 0 627.6677430000211 194.2132219160337" height="122.38196783075254" width="395.52"><g transform="matrix(1,0,0,1,232.14774300002114,56.934673653941616)"><svg viewBox="0 0 395.52 80.34387460815046" height="80.34387460815046" width="395.52"><g id="SvgjsG4403"><svg viewBox="0 0 395.52 80.34387460815046" height="80.34387460815046" width="395.52" id="SvgjsSvg4402"><g><svg viewBox="0 0 395.52 80.34387460815046" height="80.34387460815046" width="395.52"><g transform="matrix(1,0,0,1,0,0)"><svg width="395.52" viewBox="1.5 -37 239.23 48.6" height="80.34387460815046" data-palette-color="url(#e5b2ad2d-f748-47d3-9cad-7227534bcf56)"><path d="M13.2 0.6L13.2 0.6Q9.55 0.6 6.55-0.38 3.55-1.35 1.5-2.95L1.5-2.95 3.9-6.95Q5.7-5.45 7.95-4.5 10.2-3.55 13.2-3.55L13.2-3.55Q16.8-3.55 18.9-5.05 21-6.55 21-9.1L21-9.1Q21-10.55 20.4-11.68 19.8-12.8 18.07-13.88 16.35-14.95 13-16.2L13-16.2Q9.4-17.6 7.25-19.03 5.1-20.45 4.17-22.28 3.25-24.1 3.25-26.6L3.25-26.6Q3.25-29.1 4.63-31.13 6-33.15 8.68-34.38 11.35-35.6 15.15-35.6L15.15-35.6Q18.25-35.6 20.73-34.98 23.2-34.35 25.55-33.2L25.55-33.2 23.8-29.15Q22.1-30.15 19.83-30.83 17.55-31.5 15.05-31.5L15.05-31.5Q11.75-31.5 9.85-30.2 7.95-28.9 7.95-26.85L7.95-26.85Q7.95-25.55 8.5-24.55 9.05-23.55 10.68-22.6 12.3-21.65 15.55-20.45L15.55-20.45Q19.45-19 21.73-17.4 24-15.8 24.95-13.93 25.9-12.05 25.9-9.65L25.9-9.65Q25.9-6.4 24.28-4.1 22.65-1.8 19.78-0.6 16.9 0.6 13.2 0.6ZM37.4 0L32.9 0 32.9-35 39.55-35 49.25-12.85 58.8-35 65.6-35 65.6 0 60.85 0 60.85-28.95 51.5-7.9 46.8-7.9 37.4-28.95 37.4 0ZM94.34 0L89.59 0 89.59-35 110.34-35 110.34-30.9 94.34-30.9 94.34-20.2 107.69-20.2 107.69-16.3 94.34-16.3 94.34 0ZM122.24 0.6L122.24 0.6Q119.94 0.6 118.09-0.28 116.24-1.15 115.17-3.1 114.09-5.05 114.09-8.15L114.09-8.15 114.09-37 118.59-37 118.59-8.6Q118.59-5.9 119.72-4.6 120.84-3.3 122.84-3.3L122.84-3.3Q123.79-3.3 124.72-3.53 125.64-3.75 126.29-4.05L126.29-4.05 127.39-0.4Q126.49 0 125.17 0.3 123.84 0.6 122.24 0.6ZM136.14 0L131.64 0 131.64-26 136.14-26 136.14 0ZM133.89-30.45L133.89-30.45Q132.59-30.45 131.66-31.4 130.74-32.35 130.74-33.6L130.74-33.6Q130.74-35.05 131.59-35.9 132.44-36.75 133.89-36.75L133.89-36.75Q135.19-36.75 136.11-35.83 137.04-34.9 137.04-33.6L137.04-33.6Q137.04-32.2 136.19-31.33 135.34-30.45 133.89-30.45ZM153.69 11.6L153.69 11.6Q151.38 11.6 149.21 11.05 147.03 10.5 145.33 9.4L145.33 9.4 146.98 5.5Q148.19 6.45 149.78 7.08 151.38 7.7 153.69 7.7L153.69 7.7Q157.23 7.7 159.26 5.83 161.28 3.95 161.28-0.15L161.28-0.15 161.28-3.35Q160.28-2.15 158.41-1.07 156.53 0 153.94 0L153.94 0Q150.98 0 148.33-1.53 145.69-3.05 144.03-6 142.38-8.95 142.38-13.1L142.38-13.1Q142.38-17 144.01-20.05 145.63-23.1 148.38-24.85 151.13-26.6 154.44-26.6L154.44-26.6Q156.63-26.6 158.44-25.85 160.23-25.1 161.53-24L161.53-24 161.53-26 165.63-26 165.63-0.6Q165.63 3.7 164.13 6.4 162.63 9.1 159.96 10.35 157.28 11.6 153.69 11.6ZM154.94-4L154.94-4Q156.94-4 158.53-4.9 160.13-5.8 161.13-7L161.13-7 161.13-20.6Q160.03-21.4 158.48-22.05 156.94-22.7 154.88-22.7L154.88-22.7Q152.83-22.7 151.03-21.6 149.23-20.5 148.11-18.43 146.98-16.35 146.98-13.35L146.98-13.35Q146.98-10.5 148.11-8.4 149.23-6.3 151.03-5.15 152.83-4 154.94-4ZM177.88 0L173.38 0 173.38-37 177.88-37 177.88-21.85Q179.28-23.9 181.43-25.25 183.58-26.6 186.48-26.6L186.48-26.6Q190.88-26.6 193.06-23.95 195.23-21.3 195.23-16.95L195.23-16.95 195.23 0 190.73 0 190.73-16.45Q190.73-19.25 189.43-20.95 188.13-22.65 185.78-22.65L185.78-22.65Q183.48-22.65 181.41-21.03 179.33-19.4 177.88-17.2L177.88-17.2 177.88 0ZM212.08 0.6L212.08 0.6Q208.33 0.6 206.16-1.88 203.98-4.35 203.98-8.95L203.98-8.95 203.98-21.15 199.48-21.15 199.48-25.05 204.08-25.05 205.03-33.25 208.48-33.25 208.48-25.05 215.68-25.05 215.68-21.15 208.48-21.15 208.48-8.6Q208.48-5.7 209.7-4.55 210.93-3.4 212.63-3.4L212.63-3.4Q213.88-3.4 215-3.8 216.13-4.2 217.08-4.75L217.08-4.75 218.33-1.15Q217.33-0.55 215.63 0.03 213.93 0.6 212.08 0.6ZM230.33 0.6L230.33 0.6Q227.38 0.6 225-0.15 222.63-0.9 221.08-2.1L221.08-2.1 222.98-5.85Q224.28-4.75 226.25-4.03 228.23-3.3 230.48-3.3L230.48-3.3Q233.28-3.3 234.7-4.23 236.13-5.15 236.13-6.6L236.13-6.6Q236.13-7.65 235.6-8.45 235.08-9.25 233.68-10.03 232.28-10.8 229.63-11.7L229.63-11.7Q225.98-12.95 224.15-14.68 222.33-16.4 222.33-19.45L222.33-19.45Q222.33-22.45 224.95-24.53 227.58-26.6 232.23-26.6L232.23-26.6Q234.73-26.6 236.68-26.08 238.63-25.55 240.18-24.75L240.18-24.75 238.93-21.05Q237.58-21.85 235.85-22.35 234.13-22.85 232.03-22.85L232.03-22.85Q229.43-22.85 228.08-21.8 226.73-20.75 226.73-19.5L226.73-19.5Q226.73-18.3 227.78-17.45 228.83-16.6 231.88-15.6L231.88-15.6Q236.83-13.95 238.78-11.95 240.73-9.95 240.73-6.95L240.73-6.95Q240.73-3.45 237.9-1.43 235.08 0.6 230.33 0.6Z" opacity="1" transform="matrix(1,0,0,1,0,0)" fill="black" class="wordmark-text-0" id="SvgjsPath4401"></path></svg></g></svg></g></svg></g></svg></g><g><svg viewBox="0 0 194.2132219160337 194.2132219160337" height="194.2132219160337" width="194.2132219160337"><g><svg></svg></g><g id="SvgjsG4400"><svg viewBox="0 0 194.2132219160337 194.2132219160337" height="194.2132219160337" width="194.2132219160337"><g><path d="M0 97.107c0-53.63 43.476-97.107 97.107-97.107 53.63 0 97.107 43.476 97.106 97.107 0 53.63-43.476 97.107-97.106 97.106-53.63 0-97.107-43.476-97.107-97.106zM97.107 186.968c49.629 0 89.861-40.232 89.861-89.861 0-49.629-40.232-89.861-89.861-89.862-49.629 0-89.861 40.232-89.862 89.862 0 49.629 40.232 89.861 89.862 89.861z" fill="black" stroke="transparent"></path></g><g transform="matrix(1,0,0,1,42.32385017251868,42.207159067106105)"><svg viewBox="0 0 109.56552157099632 109.79890378182148" height="109.79890378182148" width="109.56552157099632"><g><svg xmlns="http://www.w3.org/2000/svg" xmlns:xlink="http://www.w3.org/1999/xlink" version="1.1" x="0" y="0" viewBox="0.5531820811854721 0.5 46.94681791881453 47.046817918814526" enable-background="new 0 0 48 48" xml:space="preserve" height="109.79890378182148" width="109.56552157099632" class="icon-dxe-0" data-fill-palette-color="accent" id="SvgjsSvg4399"><path fill="black" d="M37.4 42.3L40.7 39C40.9 38.8 41 38.5 40.9 38.3L36.7 17.6C36.6 17.3 36.7 17.1 36.9 16.9L46.3 7.5C47.9 5.9 47.9 3.3 46.3 1.7S42.1 0.1 40.5 1.7L30.8 11.4C30.6 11.6 30.4 11.7 30.1 11.6L9.1 7.7C8.8 7.7 8.6 7.7 8.4 7.9L5 11.4C4.6 11.8 4.7 12.5 5.2 12.7L21.1 19.7C21.6 19.9 21.7 20.6 21.3 21L11 31.3C10.8 31.5 10.5 31.6 10.3 31.5L3.5 30.1C3.2 30 3 30.1 2.8 30.3L0.8 32.3C0.4 32.7 0.5 33.3 1 33.6L7.8 36.9C7.8 37 7.9 37 8 37.1L10.9 40C11 40.1 11 40.1 11 40.2L14.5 47.1C14.7 47.6 15.4 47.7 15.8 47.3L17.5 45.6C17.7 45.4 17.8 45.1 17.7 44.9L16.3 38C16.2 37.7 16.3 37.5 16.5 37.3L27.4 26.4C27.8 26 28.4 26.1 28.7 26.6L36.2 42.1C36.4 42.6 37 42.7 37.4 42.3"></path></svg></g></svg></g></svg></g></svg></g></svg></g><defs><mask></mask></defs></svg><rect width="395.52" height="122.38196783075254" fill="black" stroke="none" visibility="hidden"></rect></g></mask><mask><g id="SvgjsG4398"><svg viewBox="0 0 395.52 122.38196783075254" height="122.38196783075254" width="395.52"><g><svg viewBox="0 0 627.6677430000211 194.2132219160337" height="122.38196783075254" width="395.52"><g transform="matrix(1,0,0,1,232.14774300002114,56.934673653941616)"><svg viewBox="0 0 395.52 80.34387460815046" height="80.34387460815046" width="395.52"><g id="SvgjsG4397"><svg viewBox="0 0 395.52 80.34387460815046" height="80.34387460815046" width="395.52" id="SvgjsSvg4396"><g><svg viewBox="0 0 395.52 80.34387460815046" height="80.34387460815046" width="395.52"><g transform="matrix(1,0,0,1,0,0)"><svg width="395.52" viewBox="1.5 -37 239.23 48.6" height="80.34387460815046" data-palette-color="url(#e5b2ad2d-f748-47d3-9cad-7227534bcf56)"></svg></g></svg></g></svg></g></svg></g><g><svg viewBox="0 0 194.2132219160337 194.2132219160337" height="194.2132219160337" width="194.2132219160337"><g><svg></svg></g><g id="SvgjsG4395"><svg viewBox="0 0 194.2132219160337 194.2132219160337" height="194.2132219160337" width="194.2132219160337"><g><path d="M0 97.107c0-53.63 43.476-97.107 97.107-97.107 53.63 0 97.107 43.476 97.106 97.107 0 53.63-43.476 97.107-97.106 97.106-53.63 0-97.107-43.476-97.107-97.106zM97.107 186.968c49.629 0 89.861-40.232 89.861-89.861 0-49.629-40.232-89.861-89.861-89.862-49.629 0-89.861 40.232-89.862 89.862 0 49.629 40.232 89.861 89.862 89.861z" fill="black" stroke="transparent"></path></g><g transform="matrix(1,0,0,1,42.32385017251868,42.207159067106105)"><svg viewBox="0 0 109.56552157099632 109.79890378182148" height="109.79890378182148" width="109.56552157099632"><g><svg xmlns="http://www.w3.org/2000/svg" xmlns:xlink="http://www.w3.org/1999/xlink" version="1.1" x="0" y="0" viewBox="0.5531820811854721 0.5 46.94681791881453 47.046817918814526" enable-background="new 0 0 48 48" xml:space="preserve" height="109.79890378182148" width="109.56552157099632" class="icon-dxe-0" data-fill-palette-color="accent" id="SvgjsSvg4394"><path fill="black" d="M37.4 42.3L40.7 39C40.9 38.8 41 38.5 40.9 38.3L36.7 17.6C36.6 17.3 36.7 17.1 36.9 16.9L46.3 7.5C47.9 5.9 47.9 3.3 46.3 1.7S42.1 0.1 40.5 1.7L30.8 11.4C30.6 11.6 30.4 11.7 30.1 11.6L9.1 7.7C8.8 7.7 8.6 7.7 8.4 7.9L5 11.4C4.6 11.8 4.7 12.5 5.2 12.7L21.1 19.7C21.6 19.9 21.7 20.6 21.3 21L11 31.3C10.8 31.5 10.5 31.6 10.3 31.5L3.5 30.1C3.2 30 3 30.1 2.8 30.3L0.8 32.3C0.4 32.7 0.5 33.3 1 33.6L7.8 36.9C7.8 37 7.9 37 8 37.1L10.9 40C11 40.1 11 40.1 11 40.2L14.5 47.1C14.7 47.6 15.4 47.7 15.8 47.3L17.5 45.6C17.7 45.4 17.8 45.1 17.7 44.9L16.3 38C16.2 37.7 16.3 37.5 16.5 37.3L27.4 26.4C27.8 26 28.4 26.1 28.7 26.6L36.2 42.1C36.4 42.6 37 42.7 37.4 42.3"></path></svg></g></svg></g></svg></g></svg></g></svg></g><defs><mask></mask></defs><mask><g id="SvgjsG4393"><svg viewBox="0 0 395.52 122.38196783075254" height="122.38196783075254" width="395.52"><g><svg viewBox="0 0 627.6677430000211 194.2132219160337" height="122.38196783075254" width="395.52"><g transform="matrix(1,0,0,1,232.14774300002114,56.934673653941616)"><svg viewBox="0 0 395.52 80.34387460815046" height="80.34387460815046" width="395.52"><g id="SvgjsG4392"><svg viewBox="0 0 395.52 80.34387460815046" height="80.34387460815046" width="395.52" id="SvgjsSvg4391"><g><svg viewBox="0 0 395.52 80.34387460815046" height="80.34387460815046" width="395.52"><g transform="matrix(1,0,0,1,0,0)"><svg width="395.52" viewBox="1.5 -37 239.23 48.6" height="80.34387460815046" data-palette-color="url(#e5b2ad2d-f748-47d3-9cad-7227534bcf56)"><path d="M13.2 0.6L13.2 0.6Q9.55 0.6 6.55-0.38 3.55-1.35 1.5-2.95L1.5-2.95 3.9-6.95Q5.7-5.45 7.95-4.5 10.2-3.55 13.2-3.55L13.2-3.55Q16.8-3.55 18.9-5.05 21-6.55 21-9.1L21-9.1Q21-10.55 20.4-11.68 19.8-12.8 18.07-13.88 16.35-14.95 13-16.2L13-16.2Q9.4-17.6 7.25-19.03 5.1-20.45 4.17-22.28 3.25-24.1 3.25-26.6L3.25-26.6Q3.25-29.1 4.63-31.13 6-33.15 8.68-34.38 11.35-35.6 15.15-35.6L15.15-35.6Q18.25-35.6 20.73-34.98 23.2-34.35 25.55-33.2L25.55-33.2 23.8-29.15Q22.1-30.15 19.83-30.83 17.55-31.5 15.05-31.5L15.05-31.5Q11.75-31.5 9.85-30.2 7.95-28.9 7.95-26.85L7.95-26.85Q7.95-25.55 8.5-24.55 9.05-23.55 10.68-22.6 12.3-21.65 15.55-20.45L15.55-20.45Q19.45-19 21.73-17.4 24-15.8 24.95-13.93 25.9-12.05 25.9-9.65L25.9-9.65Q25.9-6.4 24.28-4.1 22.65-1.8 19.78-0.6 16.9 0.6 13.2 0.6ZM37.4 0L32.9 0 32.9-35 39.55-35 49.25-12.85 58.8-35 65.6-35 65.6 0 60.85 0 60.85-28.95 51.5-7.9 46.8-7.9 37.4-28.95 37.4 0ZM94.34 0L89.59 0 89.59-35 110.34-35 110.34-30.9 94.34-30.9 94.34-20.2 107.69-20.2 107.69-16.3 94.34-16.3 94.34 0ZM122.24 0.6L122.24 0.6Q119.94 0.6 118.09-0.28 116.24-1.15 115.17-3.1 114.09-5.05 114.09-8.15L114.09-8.15 114.09-37 118.59-37 118.59-8.6Q118.59-5.9 119.72-4.6 120.84-3.3 122.84-3.3L122.84-3.3Q123.79-3.3 124.72-3.53 125.64-3.75 126.29-4.05L126.29-4.05 127.39-0.4Q126.49 0 125.17 0.3 123.84 0.6 122.24 0.6ZM136.14 0L131.64 0 131.64-26 136.14-26 136.14 0ZM133.89-30.45L133.89-30.45Q132.59-30.45 131.66-31.4 130.74-32.35 130.74-33.6L130.74-33.6Q130.74-35.05 131.59-35.9 132.44-36.75 133.89-36.75L133.89-36.75Q135.19-36.75 136.11-35.83 137.04-34.9 137.04-33.6L137.04-33.6Q137.04-32.2 136.19-31.33 135.34-30.45 133.89-30.45ZM153.69 11.6L153.69 11.6Q151.38 11.6 149.21 11.05 147.03 10.5 145.33 9.4L145.33 9.4 146.98 5.5Q148.19 6.45 149.78 7.08 151.38 7.7 153.69 7.7L153.69 7.7Q157.23 7.7 159.26 5.83 161.28 3.95 161.28-0.15L161.28-0.15 161.28-3.35Q160.28-2.15 158.41-1.07 156.53 0 153.94 0L153.94 0Q150.98 0 148.33-1.53 145.69-3.05 144.03-6 142.38-8.95 142.38-13.1L142.38-13.1Q142.38-17 144.01-20.05 145.63-23.1 148.38-24.85 151.13-26.6 154.44-26.6L154.44-26.6Q156.63-26.6 158.44-25.85 160.23-25.1 161.53-24L161.53-24 161.53-26 165.63-26 165.63-0.6Q165.63 3.7 164.13 6.4 162.63 9.1 159.96 10.35 157.28 11.6 153.69 11.6ZM154.94-4L154.94-4Q156.94-4 158.53-4.9 160.13-5.8 161.13-7L161.13-7 161.13-20.6Q160.03-21.4 158.48-22.05 156.94-22.7 154.88-22.7L154.88-22.7Q152.83-22.7 151.03-21.6 149.23-20.5 148.11-18.43 146.98-16.35 146.98-13.35L146.98-13.35Q146.98-10.5 148.11-8.4 149.23-6.3 151.03-5.15 152.83-4 154.94-4ZM177.88 0L173.38 0 173.38-37 177.88-37 177.88-21.85Q179.28-23.9 181.43-25.25 183.58-26.6 186.48-26.6L186.48-26.6Q190.88-26.6 193.06-23.95 195.23-21.3 195.23-16.95L195.23-16.95 195.23 0 190.73 0 190.73-16.45Q190.73-19.25 189.43-20.95 188.13-22.65 185.78-22.65L185.78-22.65Q183.48-22.65 181.41-21.03 179.33-19.4 177.88-17.2L177.88-17.2 177.88 0ZM212.08 0.6L212.08 0.6Q208.33 0.6 206.16-1.88 203.98-4.35 203.98-8.95L203.98-8.95 203.98-21.15 199.48-21.15 199.48-25.05 204.08-25.05 205.03-33.25 208.48-33.25 208.48-25.05 215.68-25.05 215.68-21.15 208.48-21.15 208.48-8.6Q208.48-5.7 209.7-4.55 210.93-3.4 212.63-3.4L212.63-3.4Q213.88-3.4 215-3.8 216.13-4.2 217.08-4.75L217.08-4.75 218.33-1.15Q217.33-0.55 215.63 0.03 213.93 0.6 212.08 0.6ZM230.33 0.6L230.33 0.6Q227.38 0.6 225-0.15 222.63-0.9 221.08-2.1L221.08-2.1 222.98-5.85Q224.28-4.75 226.25-4.03 228.23-3.3 230.48-3.3L230.48-3.3Q233.28-3.3 234.7-4.23 236.13-5.15 236.13-6.6L236.13-6.6Q236.13-7.65 235.6-8.45 235.08-9.25 233.68-10.03 232.28-10.8 229.63-11.7L229.63-11.7Q225.98-12.95 224.15-14.68 222.33-16.4 222.33-19.45L222.33-19.45Q222.33-22.45 224.95-24.53 227.58-26.6 232.23-26.6L232.23-26.6Q234.73-26.6 236.68-26.08 238.63-25.55 240.18-24.75L240.18-24.75 238.93-21.05Q237.58-21.85 235.85-22.35 234.13-22.85 232.03-22.85L232.03-22.85Q229.43-22.85 228.08-21.8 226.73-20.75 226.73-19.5L226.73-19.5Q226.73-18.3 227.78-17.45 228.83-16.6 231.88-15.6L231.88-15.6Q236.83-13.95 238.78-11.95 240.73-9.95 240.73-6.95L240.73-6.95Q240.73-3.45 237.9-1.43 235.08 0.6 230.33 0.6Z" opacity="1" transform="matrix(1,0,0,1,0,0)" fill="black" class="wordmark-text-0" id="SvgjsPath4390"></path></svg></g></svg></g></svg></g></svg></g><g><svg viewBox="0 0 194.2132219160337 194.2132219160337" height="194.2132219160337" width="194.2132219160337"><g><svg></svg></g><g id="SvgjsG4389"><svg viewBox="0 0 194.2132219160337 194.2132219160337" height="194.2132219160337" width="194.2132219160337"><g><path d="M0 97.107c0-53.63 43.476-97.107 97.107-97.107 53.63 0 97.107 43.476 97.106 97.107 0 53.63-43.476 97.107-97.106 97.106-53.63 0-97.107-43.476-97.107-97.106zM97.107 186.968c49.629 0 89.861-40.232 89.861-89.861 0-49.629-40.232-89.861-89.861-89.862-49.629 0-89.861 40.232-89.862 89.862 0 49.629 40.232 89.861 89.862 89.861z" fill="black" stroke="transparent"></path></g><g transform="matrix(1,0,0,1,42.32385017251868,42.207159067106105)"><svg viewBox="0 0 109.56552157099632 109.79890378182148" height="109.79890378182148" width="109.56552157099632"><g><svg xmlns="http://www.w3.org/2000/svg" xmlns:xlink="http://www.w3.org/1999/xlink" version="1.1" x="0" y="0" viewBox="0.5531820811854721 0.5 46.94681791881453 47.046817918814526" enable-background="new 0 0 48 48" xml:space="preserve" height="109.79890378182148" width="109.56552157099632" class="icon-dxe-0" data-fill-palette-color="accent" id="SvgjsSvg4388"><path fill="black" d="M37.4 42.3L40.7 39C40.9 38.8 41 38.5 40.9 38.3L36.7 17.6C36.6 17.3 36.7 17.1 36.9 16.9L46.3 7.5C47.9 5.9 47.9 3.3 46.3 1.7S42.1 0.1 40.5 1.7L30.8 11.4C30.6 11.6 30.4 11.7 30.1 11.6L9.1 7.7C8.8 7.7 8.6 7.7 8.4 7.9L5 11.4C4.6 11.8 4.7 12.5 5.2 12.7L21.1 19.7C21.6 19.9 21.7 20.6 21.3 21L11 31.3C10.8 31.5 10.5 31.6 10.3 31.5L3.5 30.1C3.2 30 3 30.1 2.8 30.3L0.8 32.3C0.4 32.7 0.5 33.3 1 33.6L7.8 36.9C7.8 37 7.9 37 8 37.1L10.9 40C11 40.1 11 40.1 11 40.2L14.5 47.1C14.7 47.6 15.4 47.7 15.8 47.3L17.5 45.6C17.7 45.4 17.8 45.1 17.7 44.9L16.3 38C16.2 37.7 16.3 37.5 16.5 37.3L27.4 26.4C27.8 26 28.4 26.1 28.7 26.6L36.2 42.1C36.4 42.6 37 42.7 37.4 42.3"></path></svg></g></svg></g></svg></g></svg></g></svg></g><defs><mask></mask></defs></svg><rect width="395.52" height="122.38196783075254" fill="black" stroke="none" visibility="hidden"></rect></g></mask></svg><rect width="395.52" height="122.38196783075254" fill="black" stroke="none" visibility="hidden"></rect></g></mask></svg><rect width="395.52" height="122.38196783075254" fill="black" stroke="none" visibility="hidden"></rect></g></mask><linearGradient x1="0" x2="1" y1="0.578" y2="0.595" id="18b79330-1528-4254-b587-bccde617139c"><stop stop-color="#dede50" offset="0"></stop><stop stop-color="#559c49" offset="1"></stop></linearGradient><mask id="d78f7e15-069c-4a1f-afc6-e297b2055849"><g id="SvgjsG4453"><svg viewBox="0 0 395.52 122.38196783075254" height="122.38196783075254" width="395.52"><g><svg viewBox="0 0 627.6677430000211 194.2132219160337" height="122.38196783075254" width="395.52"><g transform="matrix(1,0,0,1,232.14774300002114,56.934673653941616)"><svg viewBox="0 0 395.52 80.34387460815046" height="80.34387460815046" width="395.52"><g id="SvgjsG4452"><svg viewBox="0 0 395.52 80.34387460815046" height="80.34387460815046" width="395.52" id="SvgjsSvg4451"><g><svg viewBox="0 0 395.52 80.34387460815046" height="80.34387460815046" width="395.52"><g transform="matrix(1,0,0,1,0,0)"><svg width="395.52" viewBox="1.5 -37 239.23 48.6" height="80.34387460815046" data-palette-color="url(#e5b2ad2d-f748-47d3-9cad-7227534bcf56)"></svg></g></svg></g></svg></g></svg></g><g><svg viewBox="0 0 194.2132219160337 194.2132219160337" height="194.2132219160337" width="194.2132219160337"><g><svg></svg></g><g id="SvgjsG4450"><svg viewBox="0 0 194.2132219160337 194.2132219160337" height="194.2132219160337" width="194.2132219160337"><g><path d="M0 97.107c0-53.63 43.476-97.107 97.107-97.107 53.63 0 97.107 43.476 97.106 97.107 0 53.63-43.476 97.107-97.106 97.106-53.63 0-97.107-43.476-97.107-97.106zM97.107 186.968c49.629 0 89.861-40.232 89.861-89.861 0-49.629-40.232-89.861-89.861-89.862-49.629 0-89.861 40.232-89.862 89.862 0 49.629 40.232 89.861 89.862 89.861z" fill="black" stroke="transparent"></path></g><g transform="matrix(1,0,0,1,42.32385017251868,42.207159067106105)"><svg viewBox="0 0 109.56552157099632 109.79890378182148" height="109.79890378182148" width="109.56552157099632"><g><svg xmlns="http://www.w3.org/2000/svg" xmlns:xlink="http://www.w3.org/1999/xlink" version="1.1" x="0" y="0" viewBox="0.5531820811854721 0.5 46.94681791881453 47.046817918814526" enable-background="new 0 0 48 48" xml:space="preserve" height="109.79890378182148" width="109.56552157099632" class="icon-dxe-0" data-fill-palette-color="accent" id="SvgjsSvg4449"></svg></g></svg></g></svg></g></svg></g></svg></g><defs><mask></mask></defs><mask><g id="SvgjsG4448"><svg viewBox="0 0 395.52 122.38196783075254" height="122.38196783075254" width="395.52"><g><svg viewBox="0 0 627.6677430000211 194.2132219160337" height="122.38196783075254" width="395.52"><g transform="matrix(1,0,0,1,232.14774300002114,56.934673653941616)"><svg viewBox="0 0 395.52 80.34387460815046" height="80.34387460815046" width="395.52"><g id="SvgjsG4447"><svg viewBox="0 0 395.52 80.34387460815046" height="80.34387460815046" width="395.52" id="SvgjsSvg4446"><g><svg viewBox="0 0 395.52 80.34387460815046" height="80.34387460815046" width="395.52"><g transform="matrix(1,0,0,1,0,0)"><svg width="395.52" viewBox="1.5 -37 239.23 48.6" height="80.34387460815046" data-palette-color="url(#e5b2ad2d-f748-47d3-9cad-7227534bcf56)"><path d="M13.2 0.6L13.2 0.6Q9.55 0.6 6.55-0.38 3.55-1.35 1.5-2.95L1.5-2.95 3.9-6.95Q5.7-5.45 7.95-4.5 10.2-3.55 13.2-3.55L13.2-3.55Q16.8-3.55 18.9-5.05 21-6.55 21-9.1L21-9.1Q21-10.55 20.4-11.68 19.8-12.8 18.07-13.88 16.35-14.95 13-16.2L13-16.2Q9.4-17.6 7.25-19.03 5.1-20.45 4.17-22.28 3.25-24.1 3.25-26.6L3.25-26.6Q3.25-29.1 4.63-31.13 6-33.15 8.68-34.38 11.35-35.6 15.15-35.6L15.15-35.6Q18.25-35.6 20.73-34.98 23.2-34.35 25.55-33.2L25.55-33.2 23.8-29.15Q22.1-30.15 19.83-30.83 17.55-31.5 15.05-31.5L15.05-31.5Q11.75-31.5 9.85-30.2 7.95-28.9 7.95-26.85L7.95-26.85Q7.95-25.55 8.5-24.55 9.05-23.55 10.68-22.6 12.3-21.65 15.55-20.45L15.55-20.45Q19.45-19 21.73-17.4 24-15.8 24.95-13.93 25.9-12.05 25.9-9.65L25.9-9.65Q25.9-6.4 24.28-4.1 22.65-1.8 19.78-0.6 16.9 0.6 13.2 0.6ZM37.4 0L32.9 0 32.9-35 39.55-35 49.25-12.85 58.8-35 65.6-35 65.6 0 60.85 0 60.85-28.95 51.5-7.9 46.8-7.9 37.4-28.95 37.4 0ZM94.34 0L89.59 0 89.59-35 110.34-35 110.34-30.9 94.34-30.9 94.34-20.2 107.69-20.2 107.69-16.3 94.34-16.3 94.34 0ZM122.24 0.6L122.24 0.6Q119.94 0.6 118.09-0.28 116.24-1.15 115.17-3.1 114.09-5.05 114.09-8.15L114.09-8.15 114.09-37 118.59-37 118.59-8.6Q118.59-5.9 119.72-4.6 120.84-3.3 122.84-3.3L122.84-3.3Q123.79-3.3 124.72-3.53 125.64-3.75 126.29-4.05L126.29-4.05 127.39-0.4Q126.49 0 125.17 0.3 123.84 0.6 122.24 0.6ZM136.14 0L131.64 0 131.64-26 136.14-26 136.14 0ZM133.89-30.45L133.89-30.45Q132.59-30.45 131.66-31.4 130.74-32.35 130.74-33.6L130.74-33.6Q130.74-35.05 131.59-35.9 132.44-36.75 133.89-36.75L133.89-36.75Q135.19-36.75 136.11-35.83 137.04-34.9 137.04-33.6L137.04-33.6Q137.04-32.2 136.19-31.33 135.34-30.45 133.89-30.45ZM153.69 11.6L153.69 11.6Q151.38 11.6 149.21 11.05 147.03 10.5 145.33 9.4L145.33 9.4 146.98 5.5Q148.19 6.45 149.78 7.08 151.38 7.7 153.69 7.7L153.69 7.7Q157.23 7.7 159.26 5.83 161.28 3.95 161.28-0.15L161.28-0.15 161.28-3.35Q160.28-2.15 158.41-1.07 156.53 0 153.94 0L153.94 0Q150.98 0 148.33-1.53 145.69-3.05 144.03-6 142.38-8.95 142.38-13.1L142.38-13.1Q142.38-17 144.01-20.05 145.63-23.1 148.38-24.85 151.13-26.6 154.44-26.6L154.44-26.6Q156.63-26.6 158.44-25.85 160.23-25.1 161.53-24L161.53-24 161.53-26 165.63-26 165.63-0.6Q165.63 3.7 164.13 6.4 162.63 9.1 159.96 10.35 157.28 11.6 153.69 11.6ZM154.94-4L154.94-4Q156.94-4 158.53-4.9 160.13-5.8 161.13-7L161.13-7 161.13-20.6Q160.03-21.4 158.48-22.05 156.94-22.7 154.88-22.7L154.88-22.7Q152.83-22.7 151.03-21.6 149.23-20.5 148.11-18.43 146.98-16.35 146.98-13.35L146.98-13.35Q146.98-10.5 148.11-8.4 149.23-6.3 151.03-5.15 152.83-4 154.94-4ZM177.88 0L173.38 0 173.38-37 177.88-37 177.88-21.85Q179.28-23.9 181.43-25.25 183.58-26.6 186.48-26.6L186.48-26.6Q190.88-26.6 193.06-23.95 195.23-21.3 195.23-16.95L195.23-16.95 195.23 0 190.73 0 190.73-16.45Q190.73-19.25 189.43-20.95 188.13-22.65 185.78-22.65L185.78-22.65Q183.48-22.65 181.41-21.03 179.33-19.4 177.88-17.2L177.88-17.2 177.88 0ZM212.08 0.6L212.08 0.6Q208.33 0.6 206.16-1.88 203.98-4.35 203.98-8.95L203.98-8.95 203.98-21.15 199.48-21.15 199.48-25.05 204.08-25.05 205.03-33.25 208.48-33.25 208.48-25.05 215.68-25.05 215.68-21.15 208.48-21.15 208.48-8.6Q208.48-5.7 209.7-4.55 210.93-3.4 212.63-3.4L212.63-3.4Q213.88-3.4 215-3.8 216.13-4.2 217.08-4.75L217.08-4.75 218.33-1.15Q217.33-0.55 215.63 0.03 213.93 0.6 212.08 0.6ZM230.33 0.6L230.33 0.6Q227.38 0.6 225-0.15 222.63-0.9 221.08-2.1L221.08-2.1 222.98-5.85Q224.28-4.75 226.25-4.03 228.23-3.3 230.48-3.3L230.48-3.3Q233.28-3.3 234.7-4.23 236.13-5.15 236.13-6.6L236.13-6.6Q236.13-7.65 235.6-8.45 235.08-9.25 233.68-10.03 232.28-10.8 229.63-11.7L229.63-11.7Q225.98-12.95 224.15-14.68 222.33-16.4 222.33-19.45L222.33-19.45Q222.33-22.45 224.95-24.53 227.58-26.6 232.23-26.6L232.23-26.6Q234.73-26.6 236.68-26.08 238.63-25.55 240.18-24.75L240.18-24.75 238.93-21.05Q237.58-21.85 235.85-22.35 234.13-22.85 232.03-22.85L232.03-22.85Q229.43-22.85 228.08-21.8 226.73-20.75 226.73-19.5L226.73-19.5Q226.73-18.3 227.78-17.45 228.83-16.6 231.88-15.6L231.88-15.6Q236.83-13.95 238.78-11.95 240.73-9.95 240.73-6.95L240.73-6.95Q240.73-3.45 237.9-1.43 235.08 0.6 230.33 0.6Z" opacity="1" transform="matrix(1,0,0,1,0,0)" fill="black" class="wordmark-text-0" id="SvgjsPath4445"></path></svg></g></svg></g></svg></g></svg></g><g><svg viewBox="0 0 194.2132219160337 194.2132219160337" height="194.2132219160337" width="194.2132219160337"><g><svg></svg></g><g id="SvgjsG4444"><svg viewBox="0 0 194.2132219160337 194.2132219160337" height="194.2132219160337" width="194.2132219160337"><g><path d="M0 97.107c0-53.63 43.476-97.107 97.107-97.107 53.63 0 97.107 43.476 97.106 97.107 0 53.63-43.476 97.107-97.106 97.106-53.63 0-97.107-43.476-97.107-97.106zM97.107 186.968c49.629 0 89.861-40.232 89.861-89.861 0-49.629-40.232-89.861-89.861-89.862-49.629 0-89.861 40.232-89.862 89.862 0 49.629 40.232 89.861 89.862 89.861z" fill="black" stroke="transparent"></path></g><g transform="matrix(1,0,0,1,42.32385017251868,42.207159067106105)"><svg viewBox="0 0 109.56552157099632 109.79890378182148" height="109.79890378182148" width="109.56552157099632"><g><svg xmlns="http://www.w3.org/2000/svg" xmlns:xlink="http://www.w3.org/1999/xlink" version="1.1" x="0" y="0" viewBox="0.5531820811854721 0.5 46.94681791881453 47.046817918814526" enable-background="new 0 0 48 48" xml:space="preserve" height="109.79890378182148" width="109.56552157099632" class="icon-dxe-0" data-fill-palette-color="accent" id="SvgjsSvg4443"><path fill="black" d="M37.4 42.3L40.7 39C40.9 38.8 41 38.5 40.9 38.3L36.7 17.6C36.6 17.3 36.7 17.1 36.9 16.9L46.3 7.5C47.9 5.9 47.9 3.3 46.3 1.7S42.1 0.1 40.5 1.7L30.8 11.4C30.6 11.6 30.4 11.7 30.1 11.6L9.1 7.7C8.8 7.7 8.6 7.7 8.4 7.9L5 11.4C4.6 11.8 4.7 12.5 5.2 12.7L21.1 19.7C21.6 19.9 21.7 20.6 21.3 21L11 31.3C10.8 31.5 10.5 31.6 10.3 31.5L3.5 30.1C3.2 30 3 30.1 2.8 30.3L0.8 32.3C0.4 32.7 0.5 33.3 1 33.6L7.8 36.9C7.8 37 7.9 37 8 37.1L10.9 40C11 40.1 11 40.1 11 40.2L14.5 47.1C14.7 47.6 15.4 47.7 15.8 47.3L17.5 45.6C17.7 45.4 17.8 45.1 17.7 44.9L16.3 38C16.2 37.7 16.3 37.5 16.5 37.3L27.4 26.4C27.8 26 28.4 26.1 28.7 26.6L36.2 42.1C36.4 42.6 37 42.7 37.4 42.3"></path></svg></g></svg></g></svg></g></svg></g></svg></g><defs><mask></mask></defs></svg><rect width="395.52" height="122.38196783075254" fill="black" stroke="none" visibility="hidden"></rect></g></mask><mask><g id="SvgjsG4442"><svg viewBox="0 0 395.52 122.38196783075254" height="122.38196783075254" width="395.52"><g><svg viewBox="0 0 627.6677430000211 194.2132219160337" height="122.38196783075254" width="395.52"><g transform="matrix(1,0,0,1,232.14774300002114,56.934673653941616)"><svg viewBox="0 0 395.52 80.34387460815046" height="80.34387460815046" width="395.52"><g id="SvgjsG4441"><svg viewBox="0 0 395.52 80.34387460815046" height="80.34387460815046" width="395.52" id="SvgjsSvg4440"><g><svg viewBox="0 0 395.52 80.34387460815046" height="80.34387460815046" width="395.52"><g transform="matrix(1,0,0,1,0,0)"><svg width="395.52" viewBox="1.5 -37 239.23 48.6" height="80.34387460815046" data-palette-color="url(#e5b2ad2d-f748-47d3-9cad-7227534bcf56)"></svg></g></svg></g></svg></g></svg></g><g><svg viewBox="0 0 194.2132219160337 194.2132219160337" height="194.2132219160337" width="194.2132219160337"><g><svg></svg></g><g id="SvgjsG4439"><svg viewBox="0 0 194.2132219160337 194.2132219160337" height="194.2132219160337" width="194.2132219160337"><g><path d="M0 97.107c0-53.63 43.476-97.107 97.107-97.107 53.63 0 97.107 43.476 97.106 97.107 0 53.63-43.476 97.107-97.106 97.106-53.63 0-97.107-43.476-97.107-97.106zM97.107 186.968c49.629 0 89.861-40.232 89.861-89.861 0-49.629-40.232-89.861-89.861-89.862-49.629 0-89.861 40.232-89.862 89.862 0 49.629 40.232 89.861 89.862 89.861z" fill="black" stroke="transparent"></path></g><g transform="matrix(1,0,0,1,42.32385017251868,42.207159067106105)"><svg viewBox="0 0 109.56552157099632 109.79890378182148" height="109.79890378182148" width="109.56552157099632"><g><svg xmlns="http://www.w3.org/2000/svg" xmlns:xlink="http://www.w3.org/1999/xlink" version="1.1" x="0" y="0" viewBox="0.5531820811854721 0.5 46.94681791881453 47.046817918814526" enable-background="new 0 0 48 48" xml:space="preserve" height="109.79890378182148" width="109.56552157099632" class="icon-dxe-0" data-fill-palette-color="accent" id="SvgjsSvg4438"><path fill="black" d="M37.4 42.3L40.7 39C40.9 38.8 41 38.5 40.9 38.3L36.7 17.6C36.6 17.3 36.7 17.1 36.9 16.9L46.3 7.5C47.9 5.9 47.9 3.3 46.3 1.7S42.1 0.1 40.5 1.7L30.8 11.4C30.6 11.6 30.4 11.7 30.1 11.6L9.1 7.7C8.8 7.7 8.6 7.7 8.4 7.9L5 11.4C4.6 11.8 4.7 12.5 5.2 12.7L21.1 19.7C21.6 19.9 21.7 20.6 21.3 21L11 31.3C10.8 31.5 10.5 31.6 10.3 31.5L3.5 30.1C3.2 30 3 30.1 2.8 30.3L0.8 32.3C0.4 32.7 0.5 33.3 1 33.6L7.8 36.9C7.8 37 7.9 37 8 37.1L10.9 40C11 40.1 11 40.1 11 40.2L14.5 47.1C14.7 47.6 15.4 47.7 15.8 47.3L17.5 45.6C17.7 45.4 17.8 45.1 17.7 44.9L16.3 38C16.2 37.7 16.3 37.5 16.5 37.3L27.4 26.4C27.8 26 28.4 26.1 28.7 26.6L36.2 42.1C36.4 42.6 37 42.7 37.4 42.3"></path></svg></g></svg></g></svg></g></svg></g></svg></g><defs><mask></mask></defs><mask><g id="SvgjsG4437"><svg viewBox="0 0 395.52 122.38196783075254" height="122.38196783075254" width="395.52"><g><svg viewBox="0 0 627.6677430000211 194.2132219160337" height="122.38196783075254" width="395.52"><g transform="matrix(1,0,0,1,232.14774300002114,56.934673653941616)"><svg viewBox="0 0 395.52 80.34387460815046" height="80.34387460815046" width="395.52"><g id="SvgjsG4436"><svg viewBox="0 0 395.52 80.34387460815046" height="80.34387460815046" width="395.52" id="SvgjsSvg4435"><g><svg viewBox="0 0 395.52 80.34387460815046" height="80.34387460815046" width="395.52"><g transform="matrix(1,0,0,1,0,0)"><svg width="395.52" viewBox="1.5 -37 239.23 48.6" height="80.34387460815046" data-palette-color="url(#e5b2ad2d-f748-47d3-9cad-7227534bcf56)"><path d="M13.2 0.6L13.2 0.6Q9.55 0.6 6.55-0.38 3.55-1.35 1.5-2.95L1.5-2.95 3.9-6.95Q5.7-5.45 7.95-4.5 10.2-3.55 13.2-3.55L13.2-3.55Q16.8-3.55 18.9-5.05 21-6.55 21-9.1L21-9.1Q21-10.55 20.4-11.68 19.8-12.8 18.07-13.88 16.35-14.95 13-16.2L13-16.2Q9.4-17.6 7.25-19.03 5.1-20.45 4.17-22.28 3.25-24.1 3.25-26.6L3.25-26.6Q3.25-29.1 4.63-31.13 6-33.15 8.68-34.38 11.35-35.6 15.15-35.6L15.15-35.6Q18.25-35.6 20.73-34.98 23.2-34.35 25.55-33.2L25.55-33.2 23.8-29.15Q22.1-30.15 19.83-30.83 17.55-31.5 15.05-31.5L15.05-31.5Q11.75-31.5 9.85-30.2 7.95-28.9 7.95-26.85L7.95-26.85Q7.95-25.55 8.5-24.55 9.05-23.55 10.68-22.6 12.3-21.65 15.55-20.45L15.55-20.45Q19.45-19 21.73-17.4 24-15.8 24.95-13.93 25.9-12.05 25.9-9.65L25.9-9.65Q25.9-6.4 24.28-4.1 22.65-1.8 19.78-0.6 16.9 0.6 13.2 0.6ZM37.4 0L32.9 0 32.9-35 39.55-35 49.25-12.85 58.8-35 65.6-35 65.6 0 60.85 0 60.85-28.95 51.5-7.9 46.8-7.9 37.4-28.95 37.4 0ZM94.34 0L89.59 0 89.59-35 110.34-35 110.34-30.9 94.34-30.9 94.34-20.2 107.69-20.2 107.69-16.3 94.34-16.3 94.34 0ZM122.24 0.6L122.24 0.6Q119.94 0.6 118.09-0.28 116.24-1.15 115.17-3.1 114.09-5.05 114.09-8.15L114.09-8.15 114.09-37 118.59-37 118.59-8.6Q118.59-5.9 119.72-4.6 120.84-3.3 122.84-3.3L122.84-3.3Q123.79-3.3 124.72-3.53 125.64-3.75 126.29-4.05L126.29-4.05 127.39-0.4Q126.49 0 125.17 0.3 123.84 0.6 122.24 0.6ZM136.14 0L131.64 0 131.64-26 136.14-26 136.14 0ZM133.89-30.45L133.89-30.45Q132.59-30.45 131.66-31.4 130.74-32.35 130.74-33.6L130.74-33.6Q130.74-35.05 131.59-35.9 132.44-36.75 133.89-36.75L133.89-36.75Q135.19-36.75 136.11-35.83 137.04-34.9 137.04-33.6L137.04-33.6Q137.04-32.2 136.19-31.33 135.34-30.45 133.89-30.45ZM153.69 11.6L153.69 11.6Q151.38 11.6 149.21 11.05 147.03 10.5 145.33 9.4L145.33 9.4 146.98 5.5Q148.19 6.45 149.78 7.08 151.38 7.7 153.69 7.7L153.69 7.7Q157.23 7.7 159.26 5.83 161.28 3.95 161.28-0.15L161.28-0.15 161.28-3.35Q160.28-2.15 158.41-1.07 156.53 0 153.94 0L153.94 0Q150.98 0 148.33-1.53 145.69-3.05 144.03-6 142.38-8.95 142.38-13.1L142.38-13.1Q142.38-17 144.01-20.05 145.63-23.1 148.38-24.85 151.13-26.6 154.44-26.6L154.44-26.6Q156.63-26.6 158.44-25.85 160.23-25.1 161.53-24L161.53-24 161.53-26 165.63-26 165.63-0.6Q165.63 3.7 164.13 6.4 162.63 9.1 159.96 10.35 157.28 11.6 153.69 11.6ZM154.94-4L154.94-4Q156.94-4 158.53-4.9 160.13-5.8 161.13-7L161.13-7 161.13-20.6Q160.03-21.4 158.48-22.05 156.94-22.7 154.88-22.7L154.88-22.7Q152.83-22.7 151.03-21.6 149.23-20.5 148.11-18.43 146.98-16.35 146.98-13.35L146.98-13.35Q146.98-10.5 148.11-8.4 149.23-6.3 151.03-5.15 152.83-4 154.94-4ZM177.88 0L173.38 0 173.38-37 177.88-37 177.88-21.85Q179.28-23.9 181.43-25.25 183.58-26.6 186.48-26.6L186.48-26.6Q190.88-26.6 193.06-23.95 195.23-21.3 195.23-16.95L195.23-16.95 195.23 0 190.73 0 190.73-16.45Q190.73-19.25 189.43-20.95 188.13-22.65 185.78-22.65L185.78-22.65Q183.48-22.65 181.41-21.03 179.33-19.4 177.88-17.2L177.88-17.2 177.88 0ZM212.08 0.6L212.08 0.6Q208.33 0.6 206.16-1.88 203.98-4.35 203.98-8.95L203.98-8.95 203.98-21.15 199.48-21.15 199.48-25.05 204.08-25.05 205.03-33.25 208.48-33.25 208.48-25.05 215.68-25.05 215.68-21.15 208.48-21.15 208.48-8.6Q208.48-5.7 209.7-4.55 210.93-3.4 212.63-3.4L212.63-3.4Q213.88-3.4 215-3.8 216.13-4.2 217.08-4.75L217.08-4.75 218.33-1.15Q217.33-0.55 215.63 0.03 213.93 0.6 212.08 0.6ZM230.33 0.6L230.33 0.6Q227.38 0.6 225-0.15 222.63-0.9 221.08-2.1L221.08-2.1 222.98-5.85Q224.28-4.75 226.25-4.03 228.23-3.3 230.48-3.3L230.48-3.3Q233.28-3.3 234.7-4.23 236.13-5.15 236.13-6.6L236.13-6.6Q236.13-7.65 235.6-8.45 235.08-9.25 233.68-10.03 232.28-10.8 229.63-11.7L229.63-11.7Q225.98-12.95 224.15-14.68 222.33-16.4 222.33-19.45L222.33-19.45Q222.33-22.45 224.95-24.53 227.58-26.6 232.23-26.6L232.23-26.6Q234.73-26.6 236.68-26.08 238.63-25.55 240.18-24.75L240.18-24.75 238.93-21.05Q237.58-21.85 235.85-22.35 234.13-22.85 232.03-22.85L232.03-22.85Q229.43-22.85 228.08-21.8 226.73-20.75 226.73-19.5L226.73-19.5Q226.73-18.3 227.78-17.45 228.83-16.6 231.88-15.6L231.88-15.6Q236.83-13.95 238.78-11.95 240.73-9.95 240.73-6.95L240.73-6.95Q240.73-3.45 237.9-1.43 235.08 0.6 230.33 0.6Z" opacity="1" transform="matrix(1,0,0,1,0,0)" fill="black" class="wordmark-text-0" id="SvgjsPath4434"></path></svg></g></svg></g></svg></g></svg></g><g><svg viewBox="0 0 194.2132219160337 194.2132219160337" height="194.2132219160337" width="194.2132219160337"><g><svg></svg></g><g id="SvgjsG4433"><svg viewBox="0 0 194.2132219160337 194.2132219160337" height="194.2132219160337" width="194.2132219160337"><g><path d="M0 97.107c0-53.63 43.476-97.107 97.107-97.107 53.63 0 97.107 43.476 97.106 97.107 0 53.63-43.476 97.107-97.106 97.106-53.63 0-97.107-43.476-97.107-97.106zM97.107 186.968c49.629 0 89.861-40.232 89.861-89.861 0-49.629-40.232-89.861-89.861-89.862-49.629 0-89.861 40.232-89.862 89.862 0 49.629 40.232 89.861 89.862 89.861z" fill="black" stroke="transparent"></path></g><g transform="matrix(1,0,0,1,42.32385017251868,42.207159067106105)"><svg viewBox="0 0 109.56552157099632 109.79890378182148" height="109.79890378182148" width="109.56552157099632"><g><svg xmlns="http://www.w3.org/2000/svg" xmlns:xlink="http://www.w3.org/1999/xlink" version="1.1" x="0" y="0" viewBox="0.5531820811854721 0.5 46.94681791881453 47.046817918814526" enable-background="new 0 0 48 48" xml:space="preserve" height="109.79890378182148" width="109.56552157099632" class="icon-dxe-0" data-fill-palette-color="accent" id="SvgjsSvg4432"><path fill="black" d="M37.4 42.3L40.7 39C40.9 38.8 41 38.5 40.9 38.3L36.7 17.6C36.6 17.3 36.7 17.1 36.9 16.9L46.3 7.5C47.9 5.9 47.9 3.3 46.3 1.7S42.1 0.1 40.5 1.7L30.8 11.4C30.6 11.6 30.4 11.7 30.1 11.6L9.1 7.7C8.8 7.7 8.6 7.7 8.4 7.9L5 11.4C4.6 11.8 4.7 12.5 5.2 12.7L21.1 19.7C21.6 19.9 21.7 20.6 21.3 21L11 31.3C10.8 31.5 10.5 31.6 10.3 31.5L3.5 30.1C3.2 30 3 30.1 2.8 30.3L0.8 32.3C0.4 32.7 0.5 33.3 1 33.6L7.8 36.9C7.8 37 7.9 37 8 37.1L10.9 40C11 40.1 11 40.1 11 40.2L14.5 47.1C14.7 47.6 15.4 47.7 15.8 47.3L17.5 45.6C17.7 45.4 17.8 45.1 17.7 44.9L16.3 38C16.2 37.7 16.3 37.5 16.5 37.3L27.4 26.4C27.8 26 28.4 26.1 28.7 26.6L36.2 42.1C36.4 42.6 37 42.7 37.4 42.3"></path></svg></g></svg></g></svg></g></svg></g></svg></g><defs><mask></mask></defs></svg><rect width="395.52" height="122.38196783075254" fill="black" stroke="none" visibility="hidden"></rect></g></mask></svg><rect width="395.52" height="122.38196783075254" fill="black" stroke="none" visibility="hidden"></rect></g></mask><mask><g id="SvgjsG4431"><svg viewBox="0 0 395.52 122.38196783075254" height="122.38196783075254" width="395.52"><g><svg viewBox="0 0 627.6677430000211 194.2132219160337" height="122.38196783075254" width="395.52"><g transform="matrix(1,0,0,1,232.14774300002114,56.934673653941616)"><svg viewBox="0 0 395.52 80.34387460815046" height="80.34387460815046" width="395.52"><g id="SvgjsG4430"><svg viewBox="0 0 395.52 80.34387460815046" height="80.34387460815046" width="395.52" id="SvgjsSvg4429"><g><svg viewBox="0 0 395.52 80.34387460815046" height="80.34387460815046" width="395.52"><g transform="matrix(1,0,0,1,0,0)"><svg width="395.52" viewBox="1.5 -37 239.23 48.6" height="80.34387460815046" data-palette-color="url(#e5b2ad2d-f748-47d3-9cad-7227534bcf56)"></svg></g></svg></g></svg></g></svg></g><g><svg viewBox="0 0 194.2132219160337 194.2132219160337" height="194.2132219160337" width="194.2132219160337"><g><svg></svg></g><g id="SvgjsG4428"><svg viewBox="0 0 194.2132219160337 194.2132219160337" height="194.2132219160337" width="194.2132219160337"><g><path d="M0 97.107c0-53.63 43.476-97.107 97.107-97.107 53.63 0 97.107 43.476 97.106 97.107 0 53.63-43.476 97.107-97.106 97.106-53.63 0-97.107-43.476-97.107-97.106zM97.107 186.968c49.629 0 89.861-40.232 89.861-89.861 0-49.629-40.232-89.861-89.861-89.862-49.629 0-89.861 40.232-89.862 89.862 0 49.629 40.232 89.861 89.862 89.861z" fill="black" stroke="transparent"></path></g><g transform="matrix(1,0,0,1,42.32385017251868,42.207159067106105)"><svg viewBox="0 0 109.56552157099632 109.79890378182148" height="109.79890378182148" width="109.56552157099632"><g><svg xmlns="http://www.w3.org/2000/svg" xmlns:xlink="http://www.w3.org/1999/xlink" version="1.1" x="0" y="0" viewBox="0.5531820811854721 0.5 46.94681791881453 47.046817918814526" enable-background="new 0 0 48 48" xml:space="preserve" height="109.79890378182148" width="109.56552157099632" class="icon-dxe-0" data-fill-palette-color="accent" id="SvgjsSvg4427"></svg></g></svg></g></svg></g></svg></g></svg></g><defs><mask></mask></defs><mask><g id="SvgjsG4426"><svg viewBox="0 0 395.52 122.38196783075254" height="122.38196783075254" width="395.52"><g><svg viewBox="0 0 627.6677430000211 194.2132219160337" height="122.38196783075254" width="395.52"><g transform="matrix(1,0,0,1,232.14774300002114,56.934673653941616)"><svg viewBox="0 0 395.52 80.34387460815046" height="80.34387460815046" width="395.52"><g id="SvgjsG4425"><svg viewBox="0 0 395.52 80.34387460815046" height="80.34387460815046" width="395.52" id="SvgjsSvg4424"><g><svg viewBox="0 0 395.52 80.34387460815046" height="80.34387460815046" width="395.52"><g transform="matrix(1,0,0,1,0,0)"><svg width="395.52" viewBox="1.5 -37 239.23 48.6" height="80.34387460815046" data-palette-color="url(#e5b2ad2d-f748-47d3-9cad-7227534bcf56)"><path d="M13.2 0.6L13.2 0.6Q9.55 0.6 6.55-0.38 3.55-1.35 1.5-2.95L1.5-2.95 3.9-6.95Q5.7-5.45 7.95-4.5 10.2-3.55 13.2-3.55L13.2-3.55Q16.8-3.55 18.9-5.05 21-6.55 21-9.1L21-9.1Q21-10.55 20.4-11.68 19.8-12.8 18.07-13.88 16.35-14.95 13-16.2L13-16.2Q9.4-17.6 7.25-19.03 5.1-20.45 4.17-22.28 3.25-24.1 3.25-26.6L3.25-26.6Q3.25-29.1 4.63-31.13 6-33.15 8.68-34.38 11.35-35.6 15.15-35.6L15.15-35.6Q18.25-35.6 20.73-34.98 23.2-34.35 25.55-33.2L25.55-33.2 23.8-29.15Q22.1-30.15 19.83-30.83 17.55-31.5 15.05-31.5L15.05-31.5Q11.75-31.5 9.85-30.2 7.95-28.9 7.95-26.85L7.95-26.85Q7.95-25.55 8.5-24.55 9.05-23.55 10.68-22.6 12.3-21.65 15.55-20.45L15.55-20.45Q19.45-19 21.73-17.4 24-15.8 24.95-13.93 25.9-12.05 25.9-9.65L25.9-9.65Q25.9-6.4 24.28-4.1 22.65-1.8 19.78-0.6 16.9 0.6 13.2 0.6ZM37.4 0L32.9 0 32.9-35 39.55-35 49.25-12.85 58.8-35 65.6-35 65.6 0 60.85 0 60.85-28.95 51.5-7.9 46.8-7.9 37.4-28.95 37.4 0ZM94.34 0L89.59 0 89.59-35 110.34-35 110.34-30.9 94.34-30.9 94.34-20.2 107.69-20.2 107.69-16.3 94.34-16.3 94.34 0ZM122.24 0.6L122.24 0.6Q119.94 0.6 118.09-0.28 116.24-1.15 115.17-3.1 114.09-5.05 114.09-8.15L114.09-8.15 114.09-37 118.59-37 118.59-8.6Q118.59-5.9 119.72-4.6 120.84-3.3 122.84-3.3L122.84-3.3Q123.79-3.3 124.72-3.53 125.64-3.75 126.29-4.05L126.29-4.05 127.39-0.4Q126.49 0 125.17 0.3 123.84 0.6 122.24 0.6ZM136.14 0L131.64 0 131.64-26 136.14-26 136.14 0ZM133.89-30.45L133.89-30.45Q132.59-30.45 131.66-31.4 130.74-32.35 130.74-33.6L130.74-33.6Q130.74-35.05 131.59-35.9 132.44-36.75 133.89-36.75L133.89-36.75Q135.19-36.75 136.11-35.83 137.04-34.9 137.04-33.6L137.04-33.6Q137.04-32.2 136.19-31.33 135.34-30.45 133.89-30.45ZM153.69 11.6L153.69 11.6Q151.38 11.6 149.21 11.05 147.03 10.5 145.33 9.4L145.33 9.4 146.98 5.5Q148.19 6.45 149.78 7.08 151.38 7.7 153.69 7.7L153.69 7.7Q157.23 7.7 159.26 5.83 161.28 3.95 161.28-0.15L161.28-0.15 161.28-3.35Q160.28-2.15 158.41-1.07 156.53 0 153.94 0L153.94 0Q150.98 0 148.33-1.53 145.69-3.05 144.03-6 142.38-8.95 142.38-13.1L142.38-13.1Q142.38-17 144.01-20.05 145.63-23.1 148.38-24.85 151.13-26.6 154.44-26.6L154.44-26.6Q156.63-26.6 158.44-25.85 160.23-25.1 161.53-24L161.53-24 161.53-26 165.63-26 165.63-0.6Q165.63 3.7 164.13 6.4 162.63 9.1 159.96 10.35 157.28 11.6 153.69 11.6ZM154.94-4L154.94-4Q156.94-4 158.53-4.9 160.13-5.8 161.13-7L161.13-7 161.13-20.6Q160.03-21.4 158.48-22.05 156.94-22.7 154.88-22.7L154.88-22.7Q152.83-22.7 151.03-21.6 149.23-20.5 148.11-18.43 146.98-16.35 146.98-13.35L146.98-13.35Q146.98-10.5 148.11-8.4 149.23-6.3 151.03-5.15 152.83-4 154.94-4ZM177.88 0L173.38 0 173.38-37 177.88-37 177.88-21.85Q179.28-23.9 181.43-25.25 183.58-26.6 186.48-26.6L186.48-26.6Q190.88-26.6 193.06-23.95 195.23-21.3 195.23-16.95L195.23-16.95 195.23 0 190.73 0 190.73-16.45Q190.73-19.25 189.43-20.95 188.13-22.65 185.78-22.65L185.78-22.65Q183.48-22.65 181.41-21.03 179.33-19.4 177.88-17.2L177.88-17.2 177.88 0ZM212.08 0.6L212.08 0.6Q208.33 0.6 206.16-1.88 203.98-4.35 203.98-8.95L203.98-8.95 203.98-21.15 199.48-21.15 199.48-25.05 204.08-25.05 205.03-33.25 208.48-33.25 208.48-25.05 215.68-25.05 215.68-21.15 208.48-21.15 208.48-8.6Q208.48-5.7 209.7-4.55 210.93-3.4 212.63-3.4L212.63-3.4Q213.88-3.4 215-3.8 216.13-4.2 217.08-4.75L217.08-4.75 218.33-1.15Q217.33-0.55 215.63 0.03 213.93 0.6 212.08 0.6ZM230.33 0.6L230.33 0.6Q227.38 0.6 225-0.15 222.63-0.9 221.08-2.1L221.08-2.1 222.98-5.85Q224.28-4.75 226.25-4.03 228.23-3.3 230.48-3.3L230.48-3.3Q233.28-3.3 234.7-4.23 236.13-5.15 236.13-6.6L236.13-6.6Q236.13-7.65 235.6-8.45 235.08-9.25 233.68-10.03 232.28-10.8 229.63-11.7L229.63-11.7Q225.98-12.95 224.15-14.68 222.33-16.4 222.33-19.45L222.33-19.45Q222.33-22.45 224.95-24.53 227.58-26.6 232.23-26.6L232.23-26.6Q234.73-26.6 236.68-26.08 238.63-25.55 240.18-24.75L240.18-24.75 238.93-21.05Q237.58-21.85 235.85-22.35 234.13-22.85 232.03-22.85L232.03-22.85Q229.43-22.85 228.08-21.8 226.73-20.75 226.73-19.5L226.73-19.5Q226.73-18.3 227.78-17.45 228.83-16.6 231.88-15.6L231.88-15.6Q236.83-13.95 238.78-11.95 240.73-9.95 240.73-6.95L240.73-6.95Q240.73-3.45 237.9-1.43 235.08 0.6 230.33 0.6Z" opacity="1" transform="matrix(1,0,0,1,0,0)" fill="black" class="wordmark-text-0" id="SvgjsPath4423"></path></svg></g></svg></g></svg></g></svg></g><g><svg viewBox="0 0 194.2132219160337 194.2132219160337" height="194.2132219160337" width="194.2132219160337"><g><svg></svg></g><g id="SvgjsG4422"><svg viewBox="0 0 194.2132219160337 194.2132219160337" height="194.2132219160337" width="194.2132219160337"><g><path d="M0 97.107c0-53.63 43.476-97.107 97.107-97.107 53.63 0 97.107 43.476 97.106 97.107 0 53.63-43.476 97.107-97.106 97.106-53.63 0-97.107-43.476-97.107-97.106zM97.107 186.968c49.629 0 89.861-40.232 89.861-89.861 0-49.629-40.232-89.861-89.861-89.862-49.629 0-89.861 40.232-89.862 89.862 0 49.629 40.232 89.861 89.862 89.861z" fill="black" stroke="transparent"></path></g><g transform="matrix(1,0,0,1,42.32385017251868,42.207159067106105)"><svg viewBox="0 0 109.56552157099632 109.79890378182148" height="109.79890378182148" width="109.56552157099632"><g><svg xmlns="http://www.w3.org/2000/svg" xmlns:xlink="http://www.w3.org/1999/xlink" version="1.1" x="0" y="0" viewBox="0.5531820811854721 0.5 46.94681791881453 47.046817918814526" enable-background="new 0 0 48 48" xml:space="preserve" height="109.79890378182148" width="109.56552157099632" class="icon-dxe-0" data-fill-palette-color="accent" id="SvgjsSvg4421"><path fill="black" d="M37.4 42.3L40.7 39C40.9 38.8 41 38.5 40.9 38.3L36.7 17.6C36.6 17.3 36.7 17.1 36.9 16.9L46.3 7.5C47.9 5.9 47.9 3.3 46.3 1.7S42.1 0.1 40.5 1.7L30.8 11.4C30.6 11.6 30.4 11.7 30.1 11.6L9.1 7.7C8.8 7.7 8.6 7.7 8.4 7.9L5 11.4C4.6 11.8 4.7 12.5 5.2 12.7L21.1 19.7C21.6 19.9 21.7 20.6 21.3 21L11 31.3C10.8 31.5 10.5 31.6 10.3 31.5L3.5 30.1C3.2 30 3 30.1 2.8 30.3L0.8 32.3C0.4 32.7 0.5 33.3 1 33.6L7.8 36.9C7.8 37 7.9 37 8 37.1L10.9 40C11 40.1 11 40.1 11 40.2L14.5 47.1C14.7 47.6 15.4 47.7 15.8 47.3L17.5 45.6C17.7 45.4 17.8 45.1 17.7 44.9L16.3 38C16.2 37.7 16.3 37.5 16.5 37.3L27.4 26.4C27.8 26 28.4 26.1 28.7 26.6L36.2 42.1C36.4 42.6 37 42.7 37.4 42.3"></path></svg></g></svg></g></svg></g></svg></g></svg></g><defs><mask></mask></defs></svg><rect width="395.52" height="122.38196783075254" fill="black" stroke="none" visibility="hidden"></rect></g></mask><mask><g id="SvgjsG4420"><svg viewBox="0 0 395.52 122.38196783075254" height="122.38196783075254" width="395.52"><g><svg viewBox="0 0 627.6677430000211 194.2132219160337" height="122.38196783075254" width="395.52"><g transform="matrix(1,0,0,1,232.14774300002114,56.934673653941616)"><svg viewBox="0 0 395.52 80.34387460815046" height="80.34387460815046" width="395.52"><g id="SvgjsG4419"><svg viewBox="0 0 395.52 80.34387460815046" height="80.34387460815046" width="395.52" id="SvgjsSvg4418"><g><svg viewBox="0 0 395.52 80.34387460815046" height="80.34387460815046" width="395.52"><g transform="matrix(1,0,0,1,0,0)"><svg width="395.52" viewBox="1.5 -37 239.23 48.6" height="80.34387460815046" data-palette-color="url(#e5b2ad2d-f748-47d3-9cad-7227534bcf56)"></svg></g></svg></g></svg></g></svg></g><g><svg viewBox="0 0 194.2132219160337 194.2132219160337" height="194.2132219160337" width="194.2132219160337"><g><svg></svg></g><g id="SvgjsG4417"><svg viewBox="0 0 194.2132219160337 194.2132219160337" height="194.2132219160337" width="194.2132219160337"><g><path d="M0 97.107c0-53.63 43.476-97.107 97.107-97.107 53.63 0 97.107 43.476 97.106 97.107 0 53.63-43.476 97.107-97.106 97.106-53.63 0-97.107-43.476-97.107-97.106zM97.107 186.968c49.629 0 89.861-40.232 89.861-89.861 0-49.629-40.232-89.861-89.861-89.862-49.629 0-89.861 40.232-89.862 89.862 0 49.629 40.232 89.861 89.862 89.861z" fill="black" stroke="transparent"></path></g><g transform="matrix(1,0,0,1,42.32385017251868,42.207159067106105)"><svg viewBox="0 0 109.56552157099632 109.79890378182148" height="109.79890378182148" width="109.56552157099632"><g><svg xmlns="http://www.w3.org/2000/svg" xmlns:xlink="http://www.w3.org/1999/xlink" version="1.1" x="0" y="0" viewBox="0.5531820811854721 0.5 46.94681791881453 47.046817918814526" enable-background="new 0 0 48 48" xml:space="preserve" height="109.79890378182148" width="109.56552157099632" class="icon-dxe-0" data-fill-palette-color="accent" id="SvgjsSvg4416"><path fill="black" d="M37.4 42.3L40.7 39C40.9 38.8 41 38.5 40.9 38.3L36.7 17.6C36.6 17.3 36.7 17.1 36.9 16.9L46.3 7.5C47.9 5.9 47.9 3.3 46.3 1.7S42.1 0.1 40.5 1.7L30.8 11.4C30.6 11.6 30.4 11.7 30.1 11.6L9.1 7.7C8.8 7.7 8.6 7.7 8.4 7.9L5 11.4C4.6 11.8 4.7 12.5 5.2 12.7L21.1 19.7C21.6 19.9 21.7 20.6 21.3 21L11 31.3C10.8 31.5 10.5 31.6 10.3 31.5L3.5 30.1C3.2 30 3 30.1 2.8 30.3L0.8 32.3C0.4 32.7 0.5 33.3 1 33.6L7.8 36.9C7.8 37 7.9 37 8 37.1L10.9 40C11 40.1 11 40.1 11 40.2L14.5 47.1C14.7 47.6 15.4 47.7 15.8 47.3L17.5 45.6C17.7 45.4 17.8 45.1 17.7 44.9L16.3 38C16.2 37.7 16.3 37.5 16.5 37.3L27.4 26.4C27.8 26 28.4 26.1 28.7 26.6L36.2 42.1C36.4 42.6 37 42.7 37.4 42.3"></path></svg></g></svg></g></svg></g></svg></g></svg></g><defs><mask></mask></defs><mask><g id="SvgjsG4415"><svg viewBox="0 0 395.52 122.38196783075254" height="122.38196783075254" width="395.52"><g><svg viewBox="0 0 627.6677430000211 194.2132219160337" height="122.38196783075254" width="395.52"><g transform="matrix(1,0,0,1,232.14774300002114,56.934673653941616)"><svg viewBox="0 0 395.52 80.34387460815046" height="80.34387460815046" width="395.52"><g id="SvgjsG4414"><svg viewBox="0 0 395.52 80.34387460815046" height="80.34387460815046" width="395.52" id="SvgjsSvg4413"><g><svg viewBox="0 0 395.52 80.34387460815046" height="80.34387460815046" width="395.52"><g transform="matrix(1,0,0,1,0,0)"><svg width="395.52" viewBox="1.5 -37 239.23 48.6" height="80.34387460815046" data-palette-color="url(#e5b2ad2d-f748-47d3-9cad-7227534bcf56)"><path d="M13.2 0.6L13.2 0.6Q9.55 0.6 6.55-0.38 3.55-1.35 1.5-2.95L1.5-2.95 3.9-6.95Q5.7-5.45 7.95-4.5 10.2-3.55 13.2-3.55L13.2-3.55Q16.8-3.55 18.9-5.05 21-6.55 21-9.1L21-9.1Q21-10.55 20.4-11.68 19.8-12.8 18.07-13.88 16.35-14.95 13-16.2L13-16.2Q9.4-17.6 7.25-19.03 5.1-20.45 4.17-22.28 3.25-24.1 3.25-26.6L3.25-26.6Q3.25-29.1 4.63-31.13 6-33.15 8.68-34.38 11.35-35.6 15.15-35.6L15.15-35.6Q18.25-35.6 20.73-34.98 23.2-34.35 25.55-33.2L25.55-33.2 23.8-29.15Q22.1-30.15 19.83-30.83 17.55-31.5 15.05-31.5L15.05-31.5Q11.75-31.5 9.85-30.2 7.95-28.9 7.95-26.85L7.95-26.85Q7.95-25.55 8.5-24.55 9.05-23.55 10.68-22.6 12.3-21.65 15.55-20.45L15.55-20.45Q19.45-19 21.73-17.4 24-15.8 24.95-13.93 25.9-12.05 25.9-9.65L25.9-9.65Q25.9-6.4 24.28-4.1 22.65-1.8 19.78-0.6 16.9 0.6 13.2 0.6ZM37.4 0L32.9 0 32.9-35 39.55-35 49.25-12.85 58.8-35 65.6-35 65.6 0 60.85 0 60.85-28.95 51.5-7.9 46.8-7.9 37.4-28.95 37.4 0ZM94.34 0L89.59 0 89.59-35 110.34-35 110.34-30.9 94.34-30.9 94.34-20.2 107.69-20.2 107.69-16.3 94.34-16.3 94.34 0ZM122.24 0.6L122.24 0.6Q119.94 0.6 118.09-0.28 116.24-1.15 115.17-3.1 114.09-5.05 114.09-8.15L114.09-8.15 114.09-37 118.59-37 118.59-8.6Q118.59-5.9 119.72-4.6 120.84-3.3 122.84-3.3L122.84-3.3Q123.79-3.3 124.72-3.53 125.64-3.75 126.29-4.05L126.29-4.05 127.39-0.4Q126.49 0 125.17 0.3 123.84 0.6 122.24 0.6ZM136.14 0L131.64 0 131.64-26 136.14-26 136.14 0ZM133.89-30.45L133.89-30.45Q132.59-30.45 131.66-31.4 130.74-32.35 130.74-33.6L130.74-33.6Q130.74-35.05 131.59-35.9 132.44-36.75 133.89-36.75L133.89-36.75Q135.19-36.75 136.11-35.83 137.04-34.9 137.04-33.6L137.04-33.6Q137.04-32.2 136.19-31.33 135.34-30.45 133.89-30.45ZM153.69 11.6L153.69 11.6Q151.38 11.6 149.21 11.05 147.03 10.5 145.33 9.4L145.33 9.4 146.98 5.5Q148.19 6.45 149.78 7.08 151.38 7.7 153.69 7.7L153.69 7.7Q157.23 7.7 159.26 5.83 161.28 3.95 161.28-0.15L161.28-0.15 161.28-3.35Q160.28-2.15 158.41-1.07 156.53 0 153.94 0L153.94 0Q150.98 0 148.33-1.53 145.69-3.05 144.03-6 142.38-8.95 142.38-13.1L142.38-13.1Q142.38-17 144.01-20.05 145.63-23.1 148.38-24.85 151.13-26.6 154.44-26.6L154.44-26.6Q156.63-26.6 158.44-25.85 160.23-25.1 161.53-24L161.53-24 161.53-26 165.63-26 165.63-0.6Q165.63 3.7 164.13 6.4 162.63 9.1 159.96 10.35 157.28 11.6 153.69 11.6ZM154.94-4L154.94-4Q156.94-4 158.53-4.9 160.13-5.8 161.13-7L161.13-7 161.13-20.6Q160.03-21.4 158.48-22.05 156.94-22.7 154.88-22.7L154.88-22.7Q152.83-22.7 151.03-21.6 149.23-20.5 148.11-18.43 146.98-16.35 146.98-13.35L146.98-13.35Q146.98-10.5 148.11-8.4 149.23-6.3 151.03-5.15 152.83-4 154.94-4ZM177.88 0L173.38 0 173.38-37 177.88-37 177.88-21.85Q179.28-23.9 181.43-25.25 183.58-26.6 186.48-26.6L186.48-26.6Q190.88-26.6 193.06-23.95 195.23-21.3 195.23-16.95L195.23-16.95 195.23 0 190.73 0 190.73-16.45Q190.73-19.25 189.43-20.95 188.13-22.65 185.78-22.65L185.78-22.65Q183.48-22.65 181.41-21.03 179.33-19.4 177.88-17.2L177.88-17.2 177.88 0ZM212.08 0.6L212.08 0.6Q208.33 0.6 206.16-1.88 203.98-4.35 203.98-8.95L203.98-8.95 203.98-21.15 199.48-21.15 199.48-25.05 204.08-25.05 205.03-33.25 208.48-33.25 208.48-25.05 215.68-25.05 215.68-21.15 208.48-21.15 208.48-8.6Q208.48-5.7 209.7-4.55 210.93-3.4 212.63-3.4L212.63-3.4Q213.88-3.4 215-3.8 216.13-4.2 217.08-4.75L217.08-4.75 218.33-1.15Q217.33-0.55 215.63 0.03 213.93 0.6 212.08 0.6ZM230.33 0.6L230.33 0.6Q227.38 0.6 225-0.15 222.63-0.9 221.08-2.1L221.08-2.1 222.98-5.85Q224.28-4.75 226.25-4.03 228.23-3.3 230.48-3.3L230.48-3.3Q233.28-3.3 234.7-4.23 236.13-5.15 236.13-6.6L236.13-6.6Q236.13-7.65 235.6-8.45 235.08-9.25 233.68-10.03 232.28-10.8 229.63-11.7L229.63-11.7Q225.98-12.95 224.15-14.68 222.33-16.4 222.33-19.45L222.33-19.45Q222.33-22.45 224.95-24.53 227.58-26.6 232.23-26.6L232.23-26.6Q234.73-26.6 236.68-26.08 238.63-25.55 240.18-24.75L240.18-24.75 238.93-21.05Q237.58-21.85 235.85-22.35 234.13-22.85 232.03-22.85L232.03-22.85Q229.43-22.85 228.08-21.8 226.73-20.75 226.73-19.5L226.73-19.5Q226.73-18.3 227.78-17.45 228.83-16.6 231.88-15.6L231.88-15.6Q236.83-13.95 238.78-11.95 240.73-9.95 240.73-6.95L240.73-6.95Q240.73-3.45 237.9-1.43 235.08 0.6 230.33 0.6Z" opacity="1" transform="matrix(1,0,0,1,0,0)" fill="black" class="wordmark-text-0" id="SvgjsPath4412"></path></svg></g></svg></g></svg></g></svg></g><g><svg viewBox="0 0 194.2132219160337 194.2132219160337" height="194.2132219160337" width="194.2132219160337"><g><svg></svg></g><g id="SvgjsG4411"><svg viewBox="0 0 194.2132219160337 194.2132219160337" height="194.2132219160337" width="194.2132219160337"><g><path d="M0 97.107c0-53.63 43.476-97.107 97.107-97.107 53.63 0 97.107 43.476 97.106 97.107 0 53.63-43.476 97.107-97.106 97.106-53.63 0-97.107-43.476-97.107-97.106zM97.107 186.968c49.629 0 89.861-40.232 89.861-89.861 0-49.629-40.232-89.861-89.861-89.862-49.629 0-89.861 40.232-89.862 89.862 0 49.629 40.232 89.861 89.862 89.861z" fill="black" stroke="transparent"></path></g><g transform="matrix(1,0,0,1,42.32385017251868,42.207159067106105)"><svg viewBox="0 0 109.56552157099632 109.79890378182148" height="109.79890378182148" width="109.56552157099632"><g><svg xmlns="http://www.w3.org/2000/svg" xmlns:xlink="http://www.w3.org/1999/xlink" version="1.1" x="0" y="0" viewBox="0.5531820811854721 0.5 46.94681791881453 47.046817918814526" enable-background="new 0 0 48 48" xml:space="preserve" height="109.79890378182148" width="109.56552157099632" class="icon-dxe-0" data-fill-palette-color="accent" id="SvgjsSvg4410"><path fill="black" d="M37.4 42.3L40.7 39C40.9 38.8 41 38.5 40.9 38.3L36.7 17.6C36.6 17.3 36.7 17.1 36.9 16.9L46.3 7.5C47.9 5.9 47.9 3.3 46.3 1.7S42.1 0.1 40.5 1.7L30.8 11.4C30.6 11.6 30.4 11.7 30.1 11.6L9.1 7.7C8.8 7.7 8.6 7.7 8.4 7.9L5 11.4C4.6 11.8 4.7 12.5 5.2 12.7L21.1 19.7C21.6 19.9 21.7 20.6 21.3 21L11 31.3C10.8 31.5 10.5 31.6 10.3 31.5L3.5 30.1C3.2 30 3 30.1 2.8 30.3L0.8 32.3C0.4 32.7 0.5 33.3 1 33.6L7.8 36.9C7.8 37 7.9 37 8 37.1L10.9 40C11 40.1 11 40.1 11 40.2L14.5 47.1C14.7 47.6 15.4 47.7 15.8 47.3L17.5 45.6C17.7 45.4 17.8 45.1 17.7 44.9L16.3 38C16.2 37.7 16.3 37.5 16.5 37.3L27.4 26.4C27.8 26 28.4 26.1 28.7 26.6L36.2 42.1C36.4 42.6 37 42.7 37.4 42.3"></path></svg></g></svg></g></svg></g></svg></g></svg></g><defs><mask></mask></defs></svg><rect width="395.52" height="122.38196783075254" fill="black" stroke="none" visibility="hidden"></rect></g></mask></svg><rect width="395.52" height="122.38196783075254" fill="black" stroke="none" visibility="hidden"></rect></g></mask></svg><rect width="395.52" height="122.38196783075254" fill="black" stroke="none" visibility="hidden"></rect></g></mask></svg><rect width="395.52" height="122.38196783075254" fill="black" stroke="none" visibility="hidden"></rect></g></mask><linearGradient x1="0.054" x2="0.941" y1="0.5" y2="0.5" id="844e7018-4ad1-42a4-bdc5-4b91af9041c8"><stop stop-color="#0f3054" offset="0"></stop><stop stop-color="#3b8dcb" offset="0.498"></stop><stop stop-color="#0f3054" offset="1"></stop></linearGradient><rect width="395.52" height="122.38196783075254" fill="url(#844e7018-4ad1-42a4-bdc5-4b91af9041c8)" mask="url(#d78f7e15-069c-4a1f-afc6-e297b2055849)" data-fill-palette-color="quaternary"></rect></svg><rect width="395.52" height="122.38196783075254" fill="none" stroke="none" visibility="hidden"></rect></g></svg></g></svg>